# MagicaVoxel @ Ephtracy

# group
o 

# material
mtllib Fifth_gun.mtl
usemtl palette

# normals
vn -1 0 0
vn 1 0 0
vn 0 0 1
vn 0 0 -1
vn 0 -1 0
vn 0 1 0

# texcoords
vt 0.0332031 0.5
vt 0.990234 0.5

# verts
v 0.3 1.2 -1.4
v 0.3 1.2 -1.6
v 0.3 1.4 -1.4
v 0.3 1.4 -1.6
v 0.9 1.3 -1.4
v 0.9 1.3 -1.6
v 0.9 1.5 -1.4
v 0.9 1.5 -1.6
v 1 1.5 -1.4
v 1 1.5 -1.6
v 1 1.7 -1.4
v 1 1.7 -1.6
v 1.1 1.1 -1.4
v 1.1 1.1 -1.7
v 1.1 1.2 -1.3
v 1.1 1.2 -1.4
v 1.1 1.2 -1.6
v 1.1 1.4 -1.6
v 1.1 1.4 -1.7
v 1.1 1.5 -1.3
v 1.1 1.5 -1.4
v 1.8 0.4 -1.4
v 1.8 0.4 -1.7
v 1.8 1.1 -1.4
v 1.8 1.1 -1.7
v 2.3 0.9 -1.4
v 2.3 0.9 -1.7
v 2.3 1 -1.4
v 2.3 1 -1.7
v 2.4 0.7 -1.4
v 2.4 0.7 -1.7
v 2.4 0.8 -1.4
v 2.4 0.8 -1.7
v 2.5 0.5 -1.4
v 2.5 0.5 -1.7
v 2.5 0.7 -1.4
v 2.5 0.7 -1.7
v 2.5 1.5 -1.4
v 2.5 1.5 -1.5
v 2.5 1.5 -1.7
v 2.5 1.6 -1.4
v 2.5 1.6 -1.7
v 2.6 1.1 -1.3
v 2.6 1.1 -1.4
v 2.6 1.2 -1.3
v 2.6 1.2 -1.4
v 2.6 1.4 -1.3
v 2.6 1.4 -1.4
v 2.6 1.4 -1.5
v 2.6 1.4 -1.7
v 2.6 1.5 -1.3
v 2.6 1.5 -1.4
v 2.6 1.5 -1.5
v 2.6 1.5 -1.7
v 2.6 1.6 -1.5
v 2.6 1.6 -1.6
v 2.6 1.7 -1.5
v 2.6 1.7 -1.6
v 2.7 1 -1.3
v 2.7 1 -1.4
v 2.7 1.1 -1.3
v 2.7 1.1 -1.4
v 3.5 0.8 -1.4
v 3.5 0.8 -1.7
v 3.5 1 -1.4
v 3.5 1 -1.7
v 3.6 0.7 -1.4
v 3.6 0.7 -1.7
v 3.6 0.8 -1.4
v 3.6 0.8 -1.7
v 0.6 1.3 -1.4
v 0.6 1.3 -1.6
v 0.6 1.4 -1.4
v 0.6 1.4 -1.6
v 1.2 1.4 -1.3
v 1.2 1.4 -1.4
v 1.2 1.4 -1.5
v 1.2 1.4 -1.6
v 1.2 1.5 -1.3
v 1.2 1.5 -1.4
v 1.2 1.5 -1.5
v 1.2 1.7 -1.4
v 1.2 1.7 -1.6
v 2.1 0.4 -1.4
v 2.1 0.4 -1.7
v 2.1 0.5 -1.4
v 2.1 0.5 -1.7
v 2.2 0.5 -1.4
v 2.2 0.5 -1.7
v 2.2 0.8 -1.4
v 2.2 0.8 -1.7
v 2.2 0.9 -1.4
v 2.2 0.9 -1.7
v 2.2 1 -1.4
v 2.2 1 -1.7
v 2.7 0.5 -1.4
v 2.7 0.5 -1.7
v 2.7 0.6 -1.4
v 2.7 0.6 -1.7
v 2.7 0.9 -1.4
v 2.7 0.9 -1.7
v 2.7 1 -1.4
v 2.7 1 -1.7
v 2.7 1.5 -1.4
v 2.7 1.5 -1.7
v 2.7 1.6 -1.4
v 2.7 1.6 -1.5
v 2.7 1.6 -1.6
v 2.7 1.6 -1.7
v 2.7 1.7 -1.5
v 2.7 1.7 -1.6
v 2.8 0.7 -1.4
v 2.8 0.7 -1.7
v 2.8 0.9 -1.4
v 2.8 0.9 -1.7
v 2.9 0.6 -1.4
v 2.9 0.6 -1.7
v 2.9 0.7 -1.4
v 2.9 0.7 -1.7
v 2.9 1 -1.3
v 2.9 1 -1.4
v 2.9 1.1 -1.3
v 2.9 1.1 -1.4
v 3.1 1.4 -1.3
v 3.1 1.4 -1.4
v 3.1 1.5 -1.3
v 3.1 1.5 -1.4
v 3.2 1.4 -1.4
v 3.2 1.4 -1.7
v 3.2 1.5 -1.4
v 3.2 1.5 -1.7
v 3.4 1.1 -1.3
v 3.4 1.1 -1.4
v 3.4 1.4 -1.3
v 3.4 1.4 -1.4
v 3.9 0.7 -1.4
v 3.9 0.7 -1.7
v 3.9 1.4 -1.4
v 3.9 1.4 -1.7
v 1.1 1.2 -1.3
v 1.1 1.5 -1.3
v 1.2 1.4 -1.3
v 1.2 1.5 -1.3
v 2.6 1.1 -1.3
v 2.6 1.2 -1.3
v 2.6 1.4 -1.3
v 2.6 1.5 -1.3
v 2.7 1 -1.3
v 2.7 1.1 -1.3
v 2.9 1 -1.3
v 2.9 1.1 -1.3
v 3.1 1.4 -1.3
v 3.1 1.5 -1.3
v 3.4 1.1 -1.3
v 3.4 1.4 -1.3
v 0.3 1.2 -1.4
v 0.3 1.4 -1.4
v 0.6 1.3 -1.4
v 0.6 1.4 -1.4
v 0.9 1.3 -1.4
v 0.9 1.5 -1.4
v 1 1.5 -1.4
v 1 1.7 -1.4
v 1.1 1.1 -1.4
v 1.1 1.2 -1.4
v 1.1 1.5 -1.4
v 1.2 1.4 -1.4
v 1.2 1.5 -1.4
v 1.2 1.7 -1.4
v 1.8 0.4 -1.4
v 1.8 1.1 -1.4
v 2.1 0.4 -1.4
v 2.1 0.5 -1.4
v 2.2 0.5 -1.4
v 2.2 0.8 -1.4
v 2.2 0.9 -1.4
v 2.2 1 -1.4
v 2.3 0.9 -1.4
v 2.3 1 -1.4
v 2.4 0.7 -1.4
v 2.4 0.8 -1.4
v 2.5 0.5 -1.4
v 2.5 0.7 -1.4
v 2.5 1.5 -1.4
v 2.5 1.6 -1.4
v 2.6 1.1 -1.4
v 2.6 1.2 -1.4
v 2.6 1.4 -1.4
v 2.6 1.5 -1.4
v 2.7 0.5 -1.4
v 2.7 0.6 -1.4
v 2.7 0.9 -1.4
v 2.7 1 -1.4
v 2.7 1.1 -1.4
v 2.7 1.5 -1.4
v 2.7 1.6 -1.4
v 2.8 0.7 -1.4
v 2.8 0.9 -1.4
v 2.9 0.6 -1.4
v 2.9 0.7 -1.4
v 2.9 1 -1.4
v 2.9 1.1 -1.4
v 3.1 1.4 -1.4
v 3.1 1.5 -1.4
v 3.2 1.4 -1.4
v 3.2 1.5 -1.4
v 3.4 1.1 -1.4
v 3.4 1.4 -1.4
v 3.5 0.8 -1.4
v 3.5 1 -1.4
v 3.6 0.7 -1.4
v 3.6 0.8 -1.4
v 3.7 0.7 -1.4
v 3.7 1.4 -1.4
v 3.9 0.7 -1.4
v 3.9 1.4 -1.4
v 2.6 1.6 -1.5
v 2.6 1.7 -1.5
v 2.7 1.6 -1.5
v 2.7 1.7 -1.5
v 1.2 1.4 -1.5
v 1.2 1.5 -1.5
v 2.5 1.5 -1.5
v 2.6 1.4 -1.5
v 2.6 1.5 -1.5
v 0.3 1.2 -1.6
v 0.3 1.4 -1.6
v 0.6 1.3 -1.6
v 0.6 1.4 -1.6
v 0.9 1.3 -1.6
v 0.9 1.5 -1.6
v 1 1.5 -1.6
v 1 1.7 -1.6
v 1.1 1.2 -1.6
v 1.1 1.4 -1.6
v 1.2 1.4 -1.6
v 1.2 1.7 -1.6
v 2.6 1.6 -1.6
v 2.6 1.7 -1.6
v 2.7 1.6 -1.6
v 2.7 1.7 -1.6
v 1.1 1.1 -1.7
v 1.1 1.4 -1.7
v 1.8 0.4 -1.7
v 1.8 1.1 -1.7
v 2.1 0.4 -1.7
v 2.1 0.5 -1.7
v 2.2 0.5 -1.7
v 2.2 0.8 -1.7
v 2.2 0.9 -1.7
v 2.2 1 -1.7
v 2.3 0.9 -1.7
v 2.3 1 -1.7
v 2.4 0.7 -1.7
v 2.4 0.8 -1.7
v 2.5 0.5 -1.7
v 2.5 0.7 -1.7
v 2.5 1.5 -1.7
v 2.5 1.6 -1.7
v 2.6 1.4 -1.7
v 2.6 1.5 -1.7
v 2.7 0.5 -1.7
v 2.7 0.6 -1.7
v 2.7 0.9 -1.7
v 2.7 1 -1.7
v 2.7 1.5 -1.7
v 2.7 1.6 -1.7
v 2.8 0.7 -1.7
v 2.8 0.9 -1.7
v 2.9 0.6 -1.7
v 2.9 0.7 -1.7
v 3.2 1.4 -1.7
v 3.2 1.5 -1.7
v 3.5 0.8 -1.7
v 3.5 1 -1.7
v 3.6 0.7 -1.7
v 3.6 0.8 -1.7
v 3.7 0.7 -1.7
v 3.7 1.4 -1.7
v 3.9 0.7 -1.7
v 3.9 1.4 -1.7
v 1.8 0.4 -1.4
v 2.1 0.4 -1.4
v 1.8 0.4 -1.7
v 2.1 0.4 -1.7
v 2.1 0.5 -1.4
v 2.2 0.5 -1.4
v 2.5 0.5 -1.4
v 2.7 0.5 -1.4
v 2.1 0.5 -1.7
v 2.2 0.5 -1.7
v 2.5 0.5 -1.7
v 2.7 0.5 -1.7
v 2.7 0.6 -1.4
v 2.9 0.6 -1.4
v 2.7 0.6 -1.7
v 2.9 0.6 -1.7
v 2.4 0.7 -1.4
v 2.5 0.7 -1.4
v 3.6 0.7 -1.4
v 3.7 0.7 -1.4
v 3.9 0.7 -1.4
v 2.4 0.7 -1.7
v 2.5 0.7 -1.7
v 3.6 0.7 -1.7
v 3.7 0.7 -1.7
v 3.9 0.7 -1.7
v 2.2 0.8 -1.4
v 2.4 0.8 -1.4
v 3.5 0.8 -1.4
v 3.6 0.8 -1.4
v 2.2 0.8 -1.7
v 2.4 0.8 -1.7
v 3.5 0.8 -1.7
v 3.6 0.8 -1.7
v 2.7 1 -1.3
v 2.9 1 -1.3
v 2.2 1 -1.4
v 2.3 1 -1.4
v 2.7 1 -1.4
v 2.9 1 -1.4
v 3.5 1 -1.4
v 2.2 1 -1.7
v 2.3 1 -1.7
v 2.7 1 -1.7
v 3.5 1 -1.7
v 2.6 1.1 -1.3
v 2.7 1.1 -1.3
v 2.9 1.1 -1.3
v 3.4 1.1 -1.3
v 1.1 1.1 -1.4
v 1.8 1.1 -1.4
v 2.6 1.1 -1.4
v 2.7 1.1 -1.4
v 2.9 1.1 -1.4
v 3.4 1.1 -1.4
v 1.1 1.1 -1.7
v 1.8 1.1 -1.7
v 1.1 1.2 -1.3
v 2.6 1.2 -1.3
v 0.3 1.2 -1.4
v 1.1 1.2 -1.4
v 2.6 1.2 -1.4
v 0.3 1.2 -1.6
v 1.1 1.2 -1.6
v 2.5 1.5 -1.5
v 2.6 1.5 -1.5
v 2.5 1.5 -1.7
v 2.6 1.5 -1.7
v 2.8 0.7 -1.4
v 2.9 0.7 -1.4
v 2.8 0.7 -1.7
v 2.9 0.7 -1.7
v 2.2 0.9 -1.4
v 2.3 0.9 -1.4
v 2.7 0.9 -1.4
v 2.8 0.9 -1.4
v 2.2 0.9 -1.7
v 2.3 0.9 -1.7
v 2.7 0.9 -1.7
v 2.8 0.9 -1.7
v 0.6 1.3 -1.4
v 0.9 1.3 -1.4
v 0.6 1.3 -1.6
v 0.9 1.3 -1.6
v 1.2 1.4 -1.3
v 2.6 1.4 -1.3
v 3.1 1.4 -1.3
v 3.4 1.4 -1.3
v 0.3 1.4 -1.4
v 0.6 1.4 -1.4
v 1.2 1.4 -1.4
v 2.6 1.4 -1.4
v 3.1 1.4 -1.4
v 3.2 1.4 -1.4
v 3.4 1.4 -1.4
v 3.7 1.4 -1.4
v 3.9 1.4 -1.4
v 1.2 1.4 -1.5
v 2.6 1.4 -1.5
v 0.3 1.4 -1.6
v 0.6 1.4 -1.6
v 1.1 1.4 -1.6
v 1.2 1.4 -1.6
v 1.1 1.4 -1.7
v 2.6 1.4 -1.7
v 3.2 1.4 -1.7
v 3.7 1.4 -1.7
v 3.9 1.4 -1.7
v 1.1 1.5 -1.3
v 1.2 1.5 -1.3
v 2.6 1.5 -1.3
v 3.1 1.5 -1.3
v 0.9 1.5 -1.4
v 1 1.5 -1.4
v 1.1 1.5 -1.4
v 1.2 1.5 -1.4
v 2.5 1.5 -1.4
v 2.6 1.5 -1.4
v 2.7 1.5 -1.4
v 3.1 1.5 -1.4
v 3.2 1.5 -1.4
v 1.2 1.5 -1.5
v 2.5 1.5 -1.5
v 0.9 1.5 -1.6
v 1 1.5 -1.6
v 2.7 1.5 -1.7
v 3.2 1.5 -1.7
v 2.5 1.6 -1.4
v 2.7 1.6 -1.4
v 2.6 1.6 -1.5
v 2.7 1.6 -1.5
v 2.6 1.6 -1.6
v 2.7 1.6 -1.6
v 2.5 1.6 -1.7
v 2.7 1.6 -1.7
v 1 1.7 -1.4
v 1.2 1.7 -1.4
v 2.6 1.7 -1.5
v 2.7 1.7 -1.5
v 1 1.7 -1.6
v 1.2 1.7 -1.6
v 2.6 1.7 -1.6
v 2.7 1.7 -1.6

# faces
f 3/2/1 2/2/1 1/2/1
f 4/2/1 2/2/1 3/2/1
f 7/2/1 6/2/1 5/2/1
f 8/2/1 6/2/1 7/2/1
f 11/2/1 10/2/1 9/2/1
f 12/2/1 10/2/1 11/2/1
f 16/1/1 14/1/1 13/1/1
f 17/1/1 14/1/1 16/1/1
f 18/1/1 14/1/1 17/1/1
f 19/1/1 14/1/1 18/1/1
f 20/1/1 16/1/1 15/1/1
f 21/1/1 16/1/1 20/1/1
f 24/1/1 23/1/1 22/1/1
f 25/1/1 23/1/1 24/1/1
f 28/1/1 27/1/1 26/1/1
f 29/1/1 27/1/1 28/1/1
f 32/1/1 31/1/1 30/1/1
f 33/1/1 31/1/1 32/1/1
f 36/1/1 35/1/1 34/1/1
f 37/1/1 35/1/1 36/1/1
f 41/1/1 39/1/1 38/1/1
f 41/1/1 40/1/1 39/1/1
f 42/1/1 40/1/1 41/1/1
f 45/1/1 44/1/1 43/1/1
f 46/1/1 44/1/1 45/1/1
f 51/1/1 48/1/1 47/1/1
f 52/1/1 48/1/1 51/1/1
f 53/1/1 50/1/1 49/1/1
f 54/1/1 50/1/1 53/1/1
f 57/2/1 56/2/1 55/2/1
f 58/2/1 56/2/1 57/2/1
f 61/1/1 60/1/1 59/1/1
f 62/1/1 60/1/1 61/1/1
f 65/1/1 64/1/1 63/1/1
f 66/1/1 64/1/1 65/1/1
f 69/1/1 68/1/1 67/1/1
f 70/1/1 68/1/1 69/1/1
f 71/2/2 72/2/2 73/2/2
f 73/2/2 72/2/2 74/2/2
f 75/1/2 76/1/2 79/1/2
f 79/1/2 76/1/2 80/1/2
f 77/2/2 78/2/2 81/2/2
f 80/2/2 81/2/2 82/2/2
f 81/2/2 78/2/2 83/2/2
f 82/2/2 81/2/2 83/2/2
f 84/1/2 85/1/2 86/1/2
f 86/1/2 85/1/2 87/1/2
f 88/1/2 89/1/2 90/1/2
f 90/1/2 89/1/2 91/1/2
f 92/1/2 93/1/2 94/1/2
f 94/1/2 93/1/2 95/1/2
f 96/1/2 97/1/2 98/1/2
f 98/1/2 97/1/2 99/1/2
f 100/1/2 101/1/2 102/1/2
f 102/1/2 101/1/2 103/1/2
f 104/1/2 105/1/2 106/1/2
f 106/1/2 105/1/2 107/1/2
f 107/1/2 105/1/2 108/1/2
f 108/1/2 105/1/2 109/1/2
f 107/2/2 108/2/2 110/2/2
f 110/2/2 108/2/2 111/2/2
f 112/1/2 113/1/2 114/1/2
f 114/1/2 113/1/2 115/1/2
f 116/1/2 117/1/2 118/1/2
f 118/1/2 117/1/2 119/1/2
f 120/1/2 121/1/2 122/1/2
f 122/1/2 121/1/2 123/1/2
f 124/1/2 125/1/2 126/1/2
f 126/1/2 125/1/2 127/1/2
f 128/1/2 129/1/2 130/1/2
f 130/1/2 129/1/2 131/1/2
f 132/1/2 133/1/2 134/1/2
f 134/1/2 133/1/2 135/1/2
f 136/2/2 137/2/2 138/2/2
f 138/2/2 137/2/2 139/2/2
f 142/1/3 141/1/3 140/1/3
f 143/1/3 141/1/3 142/1/3
f 145/1/3 142/1/3 140/1/3
f 146/1/3 142/1/3 145/1/3
f 149/1/3 145/1/3 144/1/3
f 149/1/3 147/1/3 146/1/3
f 149/1/3 146/1/3 145/1/3
f 150/1/3 149/1/3 148/1/3
f 151/1/3 147/1/3 149/1/3
f 151/1/3 149/1/3 150/1/3
f 152/1/3 147/1/3 151/1/3
f 153/1/3 147/1/3 152/1/3
f 154/1/3 152/1/3 151/1/3
f 155/1/3 152/1/3 154/1/3
f 158/2/3 157/2/3 156/2/3
f 159/2/3 157/2/3 158/2/3
f 160/2/3 158/2/3 156/2/3
f 162/2/3 161/2/3 160/2/3
f 165/2/3 160/2/3 156/2/3
f 165/2/3 163/2/3 162/2/3
f 165/2/3 162/2/3 160/2/3
f 166/2/3 163/2/3 165/2/3
f 168/2/3 163/2/3 166/2/3
f 169/2/3 163/2/3 168/2/3
f 171/1/3 165/1/3 164/1/3
f 172/1/3 171/1/3 170/1/3
f 173/1/3 171/1/3 172/1/3
f 174/1/3 171/1/3 173/1/3
f 175/1/3 171/1/3 174/1/3
f 176/1/3 171/1/3 175/1/3
f 177/1/3 171/1/3 176/1/3
f 178/1/3 176/1/3 175/1/3
f 179/1/3 171/1/3 177/1/3
f 181/1/3 178/1/3 175/1/3
f 181/1/3 179/1/3 178/1/3
f 183/1/3 181/1/3 180/1/3
f 184/2/3 168/2/3 167/2/3
f 186/1/3 183/1/3 182/1/3
f 186/1/3 165/1/3 171/1/3
f 186/1/3 171/1/3 179/1/3
f 186/1/3 181/1/3 183/1/3
f 186/1/3 179/1/3 181/1/3
f 187/1/3 165/1/3 186/1/3
f 188/2/3 184/2/3 167/2/3
f 189/1/3 185/1/3 184/1/3
f 189/2/3 184/2/3 188/2/3
f 190/1/3 186/1/3 182/1/3
f 191/1/3 186/1/3 190/1/3
f 192/1/3 186/1/3 191/1/3
f 193/1/3 186/1/3 192/1/3
f 194/1/3 186/1/3 193/1/3
f 195/1/3 185/1/3 189/1/3
f 196/1/3 185/1/3 195/1/3
f 197/1/3 192/1/3 191/1/3
f 198/1/3 192/1/3 197/1/3
f 199/1/3 197/1/3 191/1/3
f 200/1/3 197/1/3 199/1/3
f 205/1/3 204/1/3 203/1/3
f 206/1/3 204/1/3 205/1/3
f 207/1/3 202/1/3 201/1/3
f 210/1/3 207/1/3 201/1/3
f 210/1/3 208/1/3 207/1/3
f 212/1/3 210/1/3 209/1/3
f 213/1/3 212/1/3 211/1/3
f 214/1/3 208/1/3 210/1/3
f 214/1/3 212/1/3 213/1/3
f 214/1/3 210/1/3 212/1/3
f 215/2/3 214/2/3 213/2/3
f 216/2/3 214/2/3 215/2/3
f 219/2/3 218/2/3 217/2/3
f 220/2/3 218/2/3 219/2/3
f 221/2/4 222/2/4 223/2/4
f 221/2/4 223/2/4 224/2/4
f 224/2/4 223/2/4 225/2/4
f 226/2/4 227/2/4 228/2/4
f 228/2/4 227/2/4 229/2/4
f 226/2/4 228/2/4 230/2/4
f 230/2/4 231/2/4 232/2/4
f 226/2/4 230/2/4 234/2/4
f 232/2/4 233/2/4 234/2/4
f 230/2/4 232/2/4 234/2/4
f 234/2/4 233/2/4 235/2/4
f 235/2/4 233/2/4 236/2/4
f 236/2/4 233/2/4 237/2/4
f 238/2/4 239/2/4 240/2/4
f 240/2/4 239/2/4 241/2/4
f 242/1/4 243/1/4 245/1/4
f 244/1/4 245/1/4 246/1/4
f 246/1/4 245/1/4 247/1/4
f 247/1/4 245/1/4 248/1/4
f 248/1/4 245/1/4 249/1/4
f 249/1/4 245/1/4 250/1/4
f 250/1/4 245/1/4 251/1/4
f 249/1/4 250/1/4 252/1/4
f 251/1/4 245/1/4 253/1/4
f 249/1/4 252/1/4 255/1/4
f 252/1/4 253/1/4 255/1/4
f 254/1/4 255/1/4 257/1/4
f 245/1/4 243/1/4 260/1/4
f 253/1/4 245/1/4 260/1/4
f 256/1/4 257/1/4 260/1/4
f 257/1/4 255/1/4 260/1/4
f 255/1/4 253/1/4 260/1/4
f 258/1/4 259/1/4 261/1/4
f 256/1/4 260/1/4 262/1/4
f 260/1/4 261/1/4 262/1/4
f 262/1/4 261/1/4 263/1/4
f 263/1/4 261/1/4 264/1/4
f 264/1/4 261/1/4 265/1/4
f 261/1/4 259/1/4 266/1/4
f 265/1/4 261/1/4 266/1/4
f 266/1/4 259/1/4 267/1/4
f 263/1/4 264/1/4 268/1/4
f 268/1/4 264/1/4 269/1/4
f 263/1/4 268/1/4 270/1/4
f 270/1/4 268/1/4 271/1/4
f 265/1/4 266/1/4 272/1/4
f 272/1/4 266/1/4 273/1/4
f 265/1/4 272/1/4 275/1/4
f 274/1/4 275/1/4 277/1/4
f 276/1/4 277/1/4 278/1/4
f 275/1/4 272/1/4 279/1/4
f 278/1/4 277/1/4 279/1/4
f 277/1/4 275/1/4 279/1/4
f 278/2/4 279/2/4 280/2/4
f 280/2/4 279/2/4 281/2/4
f 284/1/5 283/1/5 282/1/5
f 285/1/5 283/1/5 284/1/5
f 290/1/5 287/1/5 286/1/5
f 291/1/5 287/1/5 290/1/5
f 292/1/5 289/1/5 288/1/5
f 293/1/5 289/1/5 292/1/5
f 296/1/5 295/1/5 294/1/5
f 297/1/5 295/1/5 296/1/5
f 303/1/5 299/1/5 298/1/5
f 304/1/5 299/1/5 303/1/5
f 305/1/5 301/1/5 300/1/5
f 306/2/5 302/2/5 301/2/5
f 306/1/5 301/1/5 305/1/5
f 307/2/5 302/2/5 306/2/5
f 312/1/5 309/1/5 308/1/5
f 313/1/5 309/1/5 312/1/5
f 314/1/5 311/1/5 310/1/5
f 315/1/5 311/1/5 314/1/5
f 320/1/5 317/1/5 316/1/5
f 321/1/5 317/1/5 320/1/5
f 323/1/5 319/1/5 318/1/5
f 324/1/5 319/1/5 323/1/5
f 325/1/5 322/1/5 321/1/5
f 325/1/5 321/1/5 320/1/5
f 326/1/5 322/1/5 325/1/5
f 333/1/5 328/1/5 327/1/5
f 334/1/5 328/1/5 333/1/5
f 335/1/5 330/1/5 329/1/5
f 336/1/5 330/1/5 335/1/5
f 337/1/5 332/1/5 331/1/5
f 338/1/5 332/1/5 337/1/5
f 342/1/5 340/1/5 339/1/5
f 343/1/5 340/1/5 342/1/5
f 344/2/5 342/2/5 341/2/5
f 345/2/5 342/2/5 344/2/5
f 348/1/5 347/1/5 346/1/5
f 349/1/5 347/1/5 348/1/5
f 350/1/6 351/1/6 352/1/6
f 352/1/6 351/1/6 353/1/6
f 354/1/6 355/1/6 358/1/6
f 358/1/6 355/1/6 359/1/6
f 356/1/6 357/1/6 360/1/6
f 360/1/6 357/1/6 361/1/6
f 362/2/6 363/2/6 364/2/6
f 364/2/6 363/2/6 365/2/6
f 366/1/6 367/1/6 372/1/6
f 372/1/6 367/1/6 373/1/6
f 368/1/6 369/1/6 374/1/6
f 374/1/6 369/1/6 375/1/6
f 375/1/6 369/1/6 376/1/6
f 370/2/6 371/2/6 381/2/6
f 381/2/6 371/2/6 382/2/6
f 379/1/6 380/1/6 384/1/6
f 383/1/6 384/1/6 385/1/6
f 384/1/6 380/1/6 386/1/6
f 385/1/6 384/1/6 386/1/6
f 376/1/6 377/1/6 387/1/6
f 375/1/6 376/1/6 387/1/6
f 377/2/6 378/2/6 388/2/6
f 387/1/6 377/1/6 388/1/6
f 388/2/6 378/2/6 389/2/6
f 390/1/6 391/1/6 396/1/6
f 396/1/6 391/1/6 397/1/6
f 392/1/6 393/1/6 399/1/6
f 399/1/6 393/1/6 400/1/6
f 400/1/6 393/1/6 401/1/6
f 397/2/6 398/2/6 403/2/6
f 403/2/6 398/2/6 404/2/6
f 394/2/6 395/2/6 405/2/6
f 405/2/6 395/2/6 406/2/6
f 401/1/6 402/1/6 407/1/6
f 400/1/6 401/1/6 407/1/6
f 407/1/6 402/1/6 408/1/6
f 409/1/6 410/1/6 411/1/6
f 411/1/6 410/1/6 412/1/6
f 409/1/6 411/1/6 413/1/6
f 409/1/6 413/1/6 415/1/6
f 413/1/6 414/1/6 415/1/6
f 415/1/6 414/1/6 416/1/6
f 417/2/6 418/2/6 421/2/6
f 421/2/6 418/2/6 422/2/6
f 419/2/6 420/2/6 423/2/6
f 423/2/6 420/2/6 424/2/6
