# MagicaVoxel @ Ephtracy

# group
o 

# material
mtllib First_gun.mtl
usemtl palette

# normals
vn -1 0 0
vn 1 0 0
vn 0 0 1
vn 0 0 -1
vn 0 -1 0
vn 0 1 0

# texcoords
vt 0.990234 0.5
vt 0.994141 0.5

# verts
v 2.3 2.1 -2
v 2.3 2.1 -2.3
v 2.3 2.2 -2.1
v 2.3 2.2 -2.2
v 2.3 2.4 -1.8
v 2.3 2.4 -2
v 2.3 2.5 -1.9
v 2.3 2.5 -2
v 2.3 2.6 -1.9
v 2.3 2.6 -2
v 2.3 2.6 -2.3
v 2.3 2.6 -2.4
v 2.3 2.7 -1.2
v 2.3 2.7 -1.8
v 2.3 2.7 -2.1
v 2.3 2.7 -2.2
v 2.3 2.7 -2.3
v 2.3 2.7 -2.4
v 2.3 2.8 -1.2
v 2.3 2.8 -2
v 2.3 2.8 -2.3
v 2.4 2.6 -1.2
v 2.4 2.6 -1.8
v 2.4 2.7 -1.2
v 2.4 2.7 -1.8
v 2.4 2.8 -1.2
v 2.4 2.8 -2
v 2.4 2.8 -2.1
v 2.4 2.8 -2.2
v 2.4 2.9 -1.2
v 2.4 2.9 -1.3
v 2.4 2.9 -1.4
v 2.4 2.9 -2
v 2.4 2.9 -2.1
v 2.4 2.9 -2.2
v 2.4 3 -1.3
v 2.4 3 -1.4
v 2.5 2.4 -1.9
v 2.5 2.4 -2
v 2.5 2.5 -1.9
v 2.5 2.5 -2
v 2.4 2.4 -1.8
v 2.4 2.4 -2
v 2.4 2.5 -1.8
v 2.4 2.5 -1.9
v 2.4 2.5 -2
v 2.5 2.6 -1.2
v 2.5 2.6 -1.8
v 2.5 2.7 -1.2
v 2.5 2.7 -1.8
v 2.5 2.8 -1.2
v 2.5 2.8 -2
v 2.5 2.8 -2.1
v 2.5 2.8 -2.2
v 2.5 2.9 -1.2
v 2.5 2.9 -1.3
v 2.5 2.9 -1.4
v 2.5 2.9 -2
v 2.5 2.9 -2.1
v 2.5 2.9 -2.2
v 2.5 3 -1.3
v 2.5 3 -1.4
v 2.6 2.1 -2
v 2.6 2.1 -2.3
v 2.6 2.2 -2.1
v 2.6 2.2 -2.2
v 2.6 2.4 -1.9
v 2.6 2.4 -2
v 2.6 2.5 -1.8
v 2.6 2.5 -1.9
v 2.6 2.5 -2
v 2.6 2.6 -1.9
v 2.6 2.6 -2
v 2.6 2.6 -2.3
v 2.6 2.6 -2.4
v 2.6 2.7 -1.2
v 2.6 2.7 -1.8
v 2.6 2.7 -2.1
v 2.6 2.7 -2.2
v 2.6 2.7 -2.3
v 2.6 2.7 -2.4
v 2.6 2.8 -1.2
v 2.6 2.8 -2
v 2.6 2.8 -2.3
v 2.3 2.7 -1.2
v 2.3 2.8 -1.2
v 2.4 2.6 -1.2
v 2.4 2.7 -1.2
v 2.4 2.8 -1.2
v 2.4 2.9 -1.2
v 2.5 2.6 -1.2
v 2.5 2.7 -1.2
v 2.5 2.8 -1.2
v 2.5 2.9 -1.2
v 2.6 2.7 -1.2
v 2.6 2.8 -1.2
v 2.4 2.9 -1.3
v 2.4 3 -1.3
v 2.5 2.9 -1.3
v 2.5 3 -1.3
v 2.3 2.4 -1.8
v 2.3 2.7 -1.8
v 2.4 2.4 -1.8
v 2.4 2.5 -1.8
v 2.4 2.6 -1.8
v 2.4 2.7 -1.8
v 2.5 2.6 -1.8
v 2.5 2.7 -1.8
v 2.6 2.5 -1.8
v 2.6 2.7 -1.8
v 2.5 2.4 -1.9
v 2.5 2.5 -1.9
v 2.6 2.4 -1.9
v 2.6 2.5 -1.9
v 2.3 2.1 -2
v 2.3 2.4 -2
v 2.3 2.5 -2
v 2.3 2.6 -2
v 2.4 2.4 -2
v 2.4 2.5 -2
v 2.5 2.4 -2
v 2.5 2.5 -2
v 2.6 2.1 -2
v 2.6 2.4 -2
v 2.6 2.5 -2
v 2.6 2.6 -2
v 2.4 2.8 -2.1
v 2.4 2.9 -2.1
v 2.5 2.8 -2.1
v 2.5 2.9 -2.1
v 2.4 2.9 -1.4
v 2.4 3 -1.4
v 2.5 2.9 -1.4
v 2.5 3 -1.4
v 2.3 2.5 -1.9
v 2.3 2.6 -1.9
v 2.4 2.5 -1.9
v 2.5 2.5 -1.9
v 2.6 2.5 -1.9
v 2.6 2.6 -1.9
v 2.4 2.8 -2
v 2.4 2.9 -2
v 2.5 2.8 -2
v 2.5 2.9 -2
v 2.4 2.8 -2.2
v 2.4 2.9 -2.2
v 2.5 2.8 -2.2
v 2.5 2.9 -2.2
v 2.3 2.1 -2.3
v 2.3 2.6 -2.3
v 2.3 2.7 -2.3
v 2.3 2.8 -2.3
v 2.6 2.1 -2.3
v 2.6 2.6 -2.3
v 2.6 2.7 -2.3
v 2.6 2.8 -2.3
v 2.3 2.6 -2.4
v 2.3 2.7 -2.4
v 2.6 2.6 -2.4
v 2.6 2.7 -2.4
v 2.3 2.1 -2
v 2.6 2.1 -2
v 2.3 2.1 -2.3
v 2.6 2.1 -2.3
v 2.3 2.4 -1.8
v 2.4 2.4 -1.8
v 2.5 2.4 -1.9
v 2.6 2.4 -1.9
v 2.3 2.4 -2
v 2.4 2.4 -2
v 2.5 2.4 -2
v 2.6 2.4 -2
v 2.4 2.5 -1.8
v 2.6 2.5 -1.8
v 2.4 2.5 -1.9
v 2.5 2.5 -1.9
v 2.6 2.5 -1.9
v 2.4 2.6 -1.2
v 2.5 2.6 -1.2
v 2.4 2.6 -1.8
v 2.5 2.6 -1.8
v 2.3 2.6 -1.9
v 2.6 2.6 -1.9
v 2.3 2.6 -2
v 2.6 2.6 -2
v 2.3 2.6 -2.3
v 2.6 2.6 -2.3
v 2.3 2.6 -2.4
v 2.6 2.6 -2.4
v 2.3 2.7 -1.2
v 2.4 2.7 -1.2
v 2.5 2.7 -1.2
v 2.6 2.7 -1.2
v 2.3 2.7 -1.8
v 2.4 2.7 -1.8
v 2.5 2.7 -1.8
v 2.6 2.7 -1.8
v 2.3 2.5 -1.9
v 2.4 2.5 -1.9
v 2.5 2.5 -1.9
v 2.6 2.5 -1.9
v 2.3 2.5 -2
v 2.4 2.5 -2
v 2.5 2.5 -2
v 2.6 2.5 -2
v 2.3 2.7 -2.3
v 2.6 2.7 -2.3
v 2.3 2.7 -2.4
v 2.6 2.7 -2.4
v 2.3 2.8 -1.2
v 2.4 2.8 -1.2
v 2.5 2.8 -1.2
v 2.6 2.8 -1.2
v 2.3 2.8 -2
v 2.4 2.8 -2
v 2.5 2.8 -2
v 2.6 2.8 -2
v 2.4 2.8 -2.1
v 2.5 2.8 -2.1
v 2.4 2.8 -2.2
v 2.5 2.8 -2.2
v 2.3 2.8 -2.3
v 2.6 2.8 -2.3
v 2.4 2.9 -1.2
v 2.5 2.9 -1.2
v 2.4 2.9 -1.3
v 2.5 2.9 -1.3
v 2.4 2.9 -1.4
v 2.5 2.9 -1.4
v 2.4 2.9 -2
v 2.5 2.9 -2
v 2.4 2.9 -2.1
v 2.5 2.9 -2.1
v 2.4 2.9 -2.2
v 2.5 2.9 -2.2
v 2.4 3 -1.3
v 2.5 3 -1.3
v 2.4 3 -1.4
v 2.5 3 -1.4

# faces
f 3/2/1 2/2/1 1/2/1
f 4/2/1 2/2/1 3/2/1
f 6/2/1 3/2/1 1/2/1
f 7/1/1 6/1/1 5/1/1
f 8/2/1 3/2/1 6/2/1
f 8/1/1 6/1/1 7/1/1
f 9/1/1 7/1/1 5/1/1
f 10/2/1 3/2/1 8/2/1
f 11/2/1 2/2/1 4/2/1
f 14/1/1 10/1/1 9/1/1
f 14/1/1 9/1/1 5/1/1
f 15/1/1 4/1/1 3/1/1
f 15/2/1 3/2/1 10/2/1
f 16/2/1 12/2/1 11/2/1
f 16/1/1 4/1/1 15/1/1
f 16/2/1 11/2/1 4/2/1
f 17/2/1 12/2/1 16/2/1
f 18/2/1 12/2/1 17/2/1
f 19/1/1 14/1/1 13/1/1
f 20/2/1 15/2/1 10/2/1
f 20/1/1 14/1/1 19/1/1
f 20/1/1 10/1/1 14/1/1
f 20/2/1 17/2/1 16/2/1
f 20/2/1 16/2/1 15/2/1
f 21/2/1 17/2/1 20/2/1
f 24/1/1 23/1/1 22/1/1
f 25/1/1 23/1/1 24/1/1
f 30/1/1 27/1/1 26/1/1
f 31/1/1 27/1/1 30/1/1
f 32/1/1 27/1/1 31/1/1
f 33/1/1 27/1/1 32/1/1
f 34/2/1 29/2/1 28/2/1
f 35/2/1 29/2/1 34/2/1
f 36/1/1 32/1/1 31/1/1
f 37/1/1 32/1/1 36/1/1
f 40/1/1 39/1/1 38/1/1
f 41/1/1 39/1/1 40/1/1
f 42/1/2 43/1/2 44/1/2
f 44/1/2 43/1/2 45/1/2
f 45/1/2 43/1/2 46/1/2
f 47/1/2 48/1/2 49/1/2
f 49/1/2 48/1/2 50/1/2
f 51/1/2 52/1/2 55/1/2
f 55/1/2 52/1/2 56/1/2
f 56/1/2 52/1/2 57/1/2
f 57/1/2 52/1/2 58/1/2
f 53/2/2 54/2/2 59/2/2
f 59/2/2 54/2/2 60/2/2
f 56/1/2 57/1/2 61/1/2
f 61/1/2 57/1/2 62/1/2
f 63/2/2 64/2/2 65/2/2
f 65/2/2 64/2/2 66/2/2
f 63/2/2 65/2/2 68/2/2
f 67/1/2 68/1/2 70/1/2
f 68/2/2 65/2/2 71/2/2
f 70/1/2 68/1/2 71/1/2
f 69/1/2 70/1/2 72/1/2
f 71/2/2 65/2/2 73/2/2
f 66/2/2 64/2/2 74/2/2
f 72/1/2 73/1/2 77/1/2
f 69/1/2 72/1/2 77/1/2
f 65/1/2 66/1/2 78/1/2
f 73/2/2 65/2/2 78/2/2
f 74/2/2 75/2/2 79/2/2
f 78/1/2 66/1/2 79/1/2
f 66/2/2 74/2/2 79/2/2
f 79/2/2 75/2/2 80/2/2
f 80/2/2 75/2/2 81/2/2
f 76/1/2 77/1/2 82/1/2
f 73/2/2 78/2/2 83/2/2
f 82/1/2 77/1/2 83/1/2
f 77/1/2 73/1/2 83/1/2
f 79/2/2 80/2/2 83/2/2
f 78/2/2 79/2/2 83/2/2
f 83/2/2 80/2/2 84/2/2
f 88/1/3 86/1/3 85/1/3
f 89/1/3 86/1/3 88/1/3
f 91/1/3 88/1/3 87/1/3
f 91/1/3 90/1/3 89/1/3
f 91/1/3 89/1/3 88/1/3
f 92/1/3 90/1/3 91/1/3
f 93/1/3 90/1/3 92/1/3
f 94/1/3 90/1/3 93/1/3
f 95/1/3 93/1/3 92/1/3
f 96/1/3 93/1/3 95/1/3
f 99/1/3 98/1/3 97/1/3
f 100/1/3 98/1/3 99/1/3
f 103/1/3 102/1/3 101/1/3
f 104/1/3 102/1/3 103/1/3
f 105/1/3 102/1/3 104/1/3
f 106/1/3 102/1/3 105/1/3
f 107/1/3 105/1/3 104/1/3
f 109/1/3 107/1/3 104/1/3
f 109/1/3 108/1/3 107/1/3
f 110/1/3 108/1/3 109/1/3
f 113/1/3 112/1/3 111/1/3
f 114/1/3 112/1/3 113/1/3
f 119/2/3 116/2/3 115/2/3
f 120/2/3 118/2/3 117/2/3
f 121/2/3 119/2/3 115/2/3
f 121/2/3 120/2/3 119/2/3
f 122/2/3 118/2/3 120/2/3
f 122/2/3 120/2/3 121/2/3
f 123/2/3 121/2/3 115/2/3
f 124/2/3 121/2/3 123/2/3
f 125/2/3 118/2/3 122/2/3
f 126/2/3 118/2/3 125/2/3
f 129/2/3 128/2/3 127/2/3
f 130/2/3 128/2/3 129/2/3
f 131/1/4 132/1/4 133/1/4
f 133/1/4 132/1/4 134/1/4
f 135/1/4 136/1/4 137/1/4
f 137/1/4 136/1/4 138/1/4
f 138/1/4 136/1/4 139/1/4
f 139/1/4 136/1/4 140/1/4
f 141/1/4 142/1/4 143/1/4
f 143/1/4 142/1/4 144/1/4
f 145/2/4 146/2/4 147/2/4
f 147/2/4 146/2/4 148/2/4
f 149/2/4 150/2/4 153/2/4
f 153/2/4 150/2/4 154/2/4
f 151/2/4 152/2/4 155/2/4
f 155/2/4 152/2/4 156/2/4
f 157/2/4 158/2/4 159/2/4
f 159/2/4 158/2/4 160/2/4
f 163/2/5 162/2/5 161/2/5
f 164/2/5 162/2/5 163/2/5
f 169/1/5 166/1/5 165/1/5
f 170/1/5 166/1/5 169/1/5
f 171/1/5 168/1/5 167/1/5
f 172/1/5 168/1/5 171/1/5
f 175/1/5 174/1/5 173/1/5
f 176/1/5 174/1/5 175/1/5
f 177/1/5 174/1/5 176/1/5
f 180/1/5 179/1/5 178/1/5
f 181/1/5 179/1/5 180/1/5
f 184/1/5 183/1/5 182/1/5
f 185/1/5 183/1/5 184/1/5
f 188/2/5 187/2/5 186/2/5
f 189/2/5 187/2/5 188/2/5
f 194/1/5 191/1/5 190/1/5
f 195/1/5 191/1/5 194/1/5
f 196/1/5 193/1/5 192/1/5
f 197/1/5 193/1/5 196/1/5
f 198/1/6 199/1/6 202/1/6
f 202/1/6 199/1/6 203/1/6
f 200/1/6 201/1/6 204/1/6
f 204/1/6 201/1/6 205/1/6
f 206/2/6 207/2/6 208/2/6
f 208/2/6 207/2/6 209/2/6
f 210/1/6 211/1/6 214/1/6
f 214/1/6 211/1/6 215/1/6
f 212/1/6 213/1/6 216/1/6
f 216/1/6 213/1/6 217/1/6
f 214/2/6 215/2/6 218/2/6
f 215/2/6 216/2/6 218/2/6
f 216/2/6 217/2/6 218/2/6
f 218/2/6 217/2/6 219/2/6
f 214/2/6 218/2/6 220/2/6
f 219/2/6 217/2/6 221/2/6
f 214/2/6 220/2/6 222/2/6
f 220/2/6 221/2/6 222/2/6
f 221/2/6 217/2/6 223/2/6
f 222/2/6 221/2/6 223/2/6
f 224/1/6 225/1/6 226/1/6
f 226/1/6 225/1/6 227/1/6
f 228/1/6 229/1/6 230/1/6
f 230/1/6 229/1/6 231/1/6
f 232/2/6 233/2/6 234/2/6
f 234/2/6 233/2/6 235/2/6
f 236/1/6 237/1/6 238/1/6
f 238/1/6 237/1/6 239/1/6
