# MagicaVoxel @ Ephtracy

# group
o 

# material
mtllib P90.mtl
usemtl palette

# normals
vn -1 0 0
vn 1 0 0
vn 0 0 1
vn 0 0 -1
vn 0 -1 0
vn 0 1 0

# texcoords
vt 0.0878906 0.5
vt 0.0917969 0.5
vt 0.990234 0.5
vt 0.994141 0.5

# verts
v 0 0.7 -0.1
v 0 0.7 -0.2
v 0 0.8 -0.1
v 0 0.8 -0.2
v 0.2 0.6 0
v 0.2 0.6 -0.3
v 0.2 0.7 -0.1
v 0.2 0.7 -0.2
v 0.2 0.8 -0.1
v 0.2 0.8 -0.2
v 0.2 0.9 -0.1
v 0.2 0.9 -0.2
v 0.2 1 -0.1
v 0.2 1 -0.2
v 0.2 1.1 0
v 0.2 1.1 -0.1
v 0.2 1.1 -0.2
v 0.2 1.1 -0.3
v 0.3 0.5 0
v 0.3 0.5 -0.3
v 0.3 0.6 0
v 0.3 0.6 -0.3
v 0.3 1.1 0
v 0.3 1.1 -0.1
v 0.3 1.1 -0.2
v 0.3 1.1 -0.3
v 0.3 1.2 0
v 0.3 1.2 -0.1
v 0.3 1.2 -0.2
v 0.3 1.2 -0.3
v 0.7 0.4 0
v 0.7 0.4 -0.3
v 0.7 0.5 0
v 0.7 0.5 -0.3
v 0.8 1 0
v 0.8 1 -0.1
v 0.8 1 -0.2
v 0.8 1 -0.3
v 0.8 1.1 0
v 0.8 1.1 -0.1
v 0.8 1.1 -0.2
v 0.8 1.1 -0.3
v 1 0.5 0
v 1 0.5 -0.3
v 1 0.7 0
v 1 0.7 -0.3
v 1.3 0.5 0
v 1.3 0.5 -0.3
v 1.3 0.7 0
v 1.3 0.7 -0.3
v 0.3 1 0
v 0.3 1 -0.1
v 0.3 1 -0.2
v 0.3 1 -0.3
v 0.3 1.1 0
v 0.3 1.1 -0.1
v 0.3 1.1 -0.2
v 0.3 1.1 -0.3
v 0.8 0.5 0
v 0.8 0.5 -0.3
v 0.8 0.7 0
v 0.8 0.7 -0.3
v 0.8 1.1 0
v 0.8 1.1 -0.1
v 0.8 1.1 -0.2
v 0.8 1.1 -0.3
v 0.8 1.2 0
v 0.8 1.2 -0.1
v 0.8 1.2 -0.2
v 0.8 1.2 -0.3
v 0.9 1 0
v 0.9 1 -0.1
v 0.9 1 -0.2
v 0.9 1 -0.3
v 0.9 1.1 0
v 0.9 1.1 -0.1
v 0.9 1.1 -0.2
v 0.9 1.1 -0.3
v 1.2 0.5 0
v 1.2 0.5 -0.3
v 1.2 0.7 0
v 1.2 0.7 -0.3
v 1.3 0.4 0
v 1.3 0.4 -0.3
v 1.3 0.5 0
v 1.3 0.5 -0.3
v 1.7 0.5 0
v 1.7 0.5 -0.3
v 1.7 1 0
v 1.7 1 -0.3
v 0.2 0.6 0
v 0.2 1.1 0
v 0.3 0.5 0
v 0.3 0.6 0
v 0.3 0.9 0
v 0.3 1 0
v 0.3 1.1 0
v 0.3 1.2 0
v 0.4 0.9 0
v 0.4 1 0
v 0.5 0.9 0
v 0.5 1 0
v 0.6 0.9 0
v 0.6 1 0
v 0.7 0.4 0
v 0.7 0.5 0
v 0.7 0.9 0
v 0.7 1 0
v 0.8 0.5 0
v 0.8 0.7 0
v 0.8 0.9 0
v 0.8 1 0
v 0.8 1.1 0
v 0.8 1.2 0
v 0.9 0.9 0
v 0.9 1 0
v 0.9 1.1 0
v 1 0.5 0
v 1 0.7 0
v 1 0.9 0
v 1 1 0
v 1.1 0.9 0
v 1.1 1 0
v 1.2 0.5 0
v 1.2 0.7 0
v 1.2 0.9 0
v 1.2 1 0
v 1.3 0.4 0
v 1.3 0.5 0
v 1.3 0.7 0
v 1.6 0.5 0
v 1.6 1 0
v 1.7 0.5 0
v 1.7 1 0
v 0 0.7 -0.1
v 0 0.8 -0.1
v 0.2 0.7 -0.1
v 0.2 0.8 -0.1
v 0.2 1 -0.2
v 0.2 1.1 -0.2
v 0.3 1 -0.2
v 0.3 1.1 -0.2
v 0.3 1.2 -0.2
v 0.8 1 -0.2
v 0.8 1.1 -0.2
v 0.8 1.2 -0.2
v 0.9 1 -0.2
v 0.9 1.1 -0.2
v 0.2 1 -0.1
v 0.2 1.1 -0.1
v 0.3 1 -0.1
v 0.3 1.1 -0.1
v 0.3 1.2 -0.1
v 0.8 1 -0.1
v 0.8 1.1 -0.1
v 0.8 1.2 -0.1
v 0.9 1 -0.1
v 0.9 1.1 -0.1
v 0 0.7 -0.2
v 0 0.8 -0.2
v 0.2 0.7 -0.2
v 0.2 0.8 -0.2
v 0.2 0.6 -0.3
v 0.2 1.1 -0.3
v 0.3 0.5 -0.3
v 0.3 0.6 -0.3
v 0.3 0.9 -0.3
v 0.3 1 -0.3
v 0.3 1.1 -0.3
v 0.3 1.2 -0.3
v 0.4 0.9 -0.3
v 0.4 1 -0.3
v 0.5 0.9 -0.3
v 0.5 1 -0.3
v 0.6 0.9 -0.3
v 0.6 1 -0.3
v 0.7 0.4 -0.3
v 0.7 0.5 -0.3
v 0.7 0.9 -0.3
v 0.7 1 -0.3
v 0.8 0.5 -0.3
v 0.8 0.7 -0.3
v 0.8 0.9 -0.3
v 0.8 1 -0.3
v 0.8 1.1 -0.3
v 0.8 1.2 -0.3
v 0.9 0.9 -0.3
v 0.9 1 -0.3
v 0.9 1.1 -0.3
v 1 0.5 -0.3
v 1 0.7 -0.3
v 1 0.9 -0.3
v 1 1 -0.3
v 1.1 0.9 -0.3
v 1.1 1 -0.3
v 1.2 0.5 -0.3
v 1.2 0.7 -0.3
v 1.2 0.9 -0.3
v 1.2 1 -0.3
v 1.3 0.4 -0.3
v 1.3 0.5 -0.3
v 1.3 0.7 -0.3
v 1.6 0.5 -0.3
v 1.6 1 -0.3
v 1.7 0.5 -0.3
v 1.7 1 -0.3
v 0.7 0.4 0
v 1.3 0.4 0
v 0.7 0.4 -0.3
v 1.3 0.4 -0.3
v 0.3 0.5 0
v 0.7 0.5 0
v 1.3 0.5 0
v 1.6 0.5 0
v 1.7 0.5 0
v 0.3 0.5 -0.3
v 0.7 0.5 -0.3
v 1.3 0.5 -0.3
v 1.6 0.5 -0.3
v 1.7 0.5 -0.3
v 0.2 0.6 0
v 0.3 0.6 0
v 0.2 0.6 -0.3
v 0.3 0.6 -0.3
v 0.8 0.7 0
v 1 0.7 0
v 1.2 0.7 0
v 1.3 0.7 0
v 0 0.7 -0.1
v 0.2 0.7 -0.1
v 0 0.7 -0.2
v 0.2 0.7 -0.2
v 0.8 0.7 -0.3
v 1 0.7 -0.3
v 1.2 0.7 -0.3
v 1.3 0.7 -0.3
v 0.3 1.1 0
v 0.8 1.1 0
v 0.3 1.1 -0.1
v 0.8 1.1 -0.1
v 0.3 1.1 -0.2
v 0.8 1.1 -0.2
v 0.3 1.1 -0.3
v 0.8 1.1 -0.3
v 0.8 0.5 0
v 1 0.5 0
v 1.2 0.5 0
v 1.3 0.5 0
v 0.8 0.5 -0.3
v 1 0.5 -0.3
v 1.2 0.5 -0.3
v 1.3 0.5 -0.3
v 0 0.8 -0.1
v 0.2 0.8 -0.1
v 0 0.8 -0.2
v 0.2 0.8 -0.2
v 0.3 1 0
v 0.4 1 0
v 0.5 1 0
v 0.6 1 0
v 0.7 1 0
v 0.8 1 0
v 0.9 1 0
v 1 1 0
v 1.1 1 0
v 1.2 1 0
v 1.6 1 0
v 1.7 1 0
v 0.2 1 -0.1
v 0.3 1 -0.1
v 0.8 1 -0.1
v 0.9 1 -0.1
v 0.2 1 -0.2
v 0.3 1 -0.2
v 0.8 1 -0.2
v 0.9 1 -0.2
v 0.3 1 -0.3
v 0.4 1 -0.3
v 0.5 1 -0.3
v 0.6 1 -0.3
v 0.7 1 -0.3
v 0.8 1 -0.3
v 0.9 1 -0.3
v 1 1 -0.3
v 1.1 1 -0.3
v 1.2 1 -0.3
v 1.6 1 -0.3
v 1.7 1 -0.3
v 0.2 1.1 0
v 0.3 1.1 0
v 0.8 1.1 0
v 0.9 1.1 0
v 0.2 1.1 -0.1
v 0.3 1.1 -0.1
v 0.8 1.1 -0.1
v 0.9 1.1 -0.1
v 0.2 1.1 -0.2
v 0.3 1.1 -0.2
v 0.8 1.1 -0.2
v 0.9 1.1 -0.2
v 0.2 1.1 -0.3
v 0.3 1.1 -0.3
v 0.8 1.1 -0.3
v 0.9 1.1 -0.3
v 0.3 1.2 0
v 0.8 1.2 0
v 0.3 1.2 -0.1
v 0.8 1.2 -0.1
v 0.3 1.2 -0.2
v 0.8 1.2 -0.2
v 0.3 1.2 -0.3
v 0.8 1.2 -0.3

# faces
f 3/3/1 2/3/1 1/3/1
f 4/3/1 2/3/1 3/3/1
f 7/3/1 6/3/1 5/3/1
f 8/3/1 6/3/1 7/3/1
f 9/3/1 7/3/1 5/3/1
f 10/3/1 6/3/1 8/3/1
f 11/3/1 9/3/1 5/3/1
f 11/3/1 10/3/1 9/3/1
f 12/3/1 6/3/1 10/3/1
f 12/3/1 10/3/1 11/3/1
f 13/3/1 11/3/1 5/3/1
f 13/1/1 12/1/1 11/1/1
f 14/3/1 6/3/1 12/3/1
f 14/1/1 12/1/1 13/1/1
f 15/3/1 13/3/1 5/3/1
f 16/3/1 13/3/1 15/3/1
f 17/3/1 6/3/1 14/3/1
f 18/3/1 6/3/1 17/3/1
f 21/3/1 20/3/1 19/3/1
f 22/3/1 20/3/1 21/3/1
f 27/3/1 24/3/1 23/3/1
f 28/3/1 24/3/1 27/3/1
f 29/3/1 26/3/1 25/3/1
f 30/3/1 26/3/1 29/3/1
f 33/3/1 32/3/1 31/3/1
f 34/3/1 32/3/1 33/3/1
f 39/3/1 36/3/1 35/3/1
f 40/3/1 36/3/1 39/3/1
f 41/3/1 38/3/1 37/3/1
f 42/3/1 38/3/1 41/3/1
f 45/3/1 44/3/1 43/3/1
f 46/3/1 44/3/1 45/3/1
f 49/3/1 48/3/1 47/3/1
f 50/3/1 48/3/1 49/3/1
f 51/3/2 52/3/2 55/3/2
f 55/3/2 52/3/2 56/3/2
f 53/3/2 54/3/2 57/3/2
f 57/3/2 54/3/2 58/3/2
f 59/3/2 60/3/2 61/3/2
f 61/3/2 60/3/2 62/3/2
f 63/3/2 64/3/2 67/3/2
f 67/3/2 64/3/2 68/3/2
f 65/3/2 66/3/2 69/3/2
f 69/3/2 66/3/2 70/3/2
f 71/3/2 72/3/2 75/3/2
f 75/3/2 72/3/2 76/3/2
f 73/3/2 74/3/2 77/3/2
f 77/3/2 74/3/2 78/3/2
f 79/3/2 80/3/2 81/3/2
f 81/3/2 80/3/2 82/3/2
f 83/3/2 84/3/2 85/3/2
f 85/3/2 84/3/2 86/3/2
f 87/4/2 88/4/2 89/4/2
f 89/4/2 88/4/2 90/4/2
f 94/3/3 92/3/3 91/3/3
f 95/3/3 92/3/3 94/3/3
f 96/3/3 92/3/3 95/3/3
f 97/3/3 92/3/3 96/3/3
f 99/3/3 94/3/3 93/3/3
f 99/3/3 95/3/3 94/3/3
f 99/2/3 96/2/3 95/2/3
f 100/2/3 96/2/3 99/2/3
f 101/3/3 99/3/3 93/3/3
f 101/1/3 100/1/3 99/1/3
f 102/1/3 100/1/3 101/1/3
f 103/3/3 101/3/3 93/3/3
f 103/2/3 102/2/3 101/2/3
f 104/2/3 102/2/3 103/2/3
f 106/3/3 103/3/3 93/3/3
f 107/1/3 104/1/3 103/1/3
f 107/3/3 103/3/3 106/3/3
f 108/1/3 104/1/3 107/1/3
f 109/3/3 106/3/3 105/3/3
f 109/3/3 107/3/3 106/3/3
f 110/3/3 107/3/3 109/3/3
f 111/2/3 108/2/3 107/2/3
f 111/3/3 107/3/3 110/3/3
f 112/2/3 108/2/3 111/2/3
f 113/3/3 98/3/3 97/3/3
f 114/3/3 98/3/3 113/3/3
f 115/3/3 112/3/3 111/3/3
f 115/3/3 111/3/3 110/3/3
f 115/3/3 113/3/3 112/3/3
f 116/3/3 113/3/3 115/3/3
f 117/3/3 113/3/3 116/3/3
f 118/3/3 109/3/3 105/3/3
f 119/3/3 115/3/3 110/3/3
f 120/2/3 116/2/3 115/2/3
f 120/3/3 115/3/3 119/3/3
f 121/2/3 116/2/3 120/2/3
f 122/3/3 119/3/3 118/3/3
f 122/3/3 120/3/3 119/3/3
f 122/1/3 121/1/3 120/1/3
f 123/1/3 121/1/3 122/1/3
f 124/3/3 118/3/3 105/3/3
f 124/3/3 122/3/3 118/3/3
f 125/3/3 122/3/3 124/3/3
f 126/2/3 123/2/3 122/2/3
f 126/3/3 122/3/3 125/3/3
f 127/2/3 123/2/3 126/2/3
f 128/3/3 124/3/3 105/3/3
f 129/3/3 124/3/3 128/3/3
f 130/3/3 127/3/3 126/3/3
f 130/3/3 126/3/3 125/3/3
f 131/3/3 130/3/3 129/3/3
f 132/3/3 127/3/3 130/3/3
f 132/3/3 130/3/3 131/3/3
f 133/4/3 132/4/3 131/4/3
f 134/4/3 132/4/3 133/4/3
f 137/3/3 136/3/3 135/3/3
f 138/3/3 136/3/3 137/3/3
f 141/3/3 140/3/3 139/3/3
f 142/3/3 140/3/3 141/3/3
f 145/3/3 143/3/3 142/3/3
f 146/3/3 143/3/3 145/3/3
f 147/3/3 145/3/3 144/3/3
f 148/3/3 145/3/3 147/3/3
f 149/3/4 150/3/4 151/3/4
f 151/3/4 150/3/4 152/3/4
f 152/3/4 153/3/4 155/3/4
f 155/3/4 153/3/4 156/3/4
f 154/3/4 155/3/4 157/3/4
f 157/3/4 155/3/4 158/3/4
f 159/3/4 160/3/4 161/3/4
f 161/3/4 160/3/4 162/3/4
f 163/3/4 164/3/4 166/3/4
f 166/3/4 164/3/4 167/3/4
f 167/3/4 164/3/4 168/3/4
f 168/3/4 164/3/4 169/3/4
f 165/3/4 166/3/4 171/3/4
f 166/3/4 167/3/4 171/3/4
f 167/2/4 168/2/4 171/2/4
f 171/2/4 168/2/4 172/2/4
f 165/3/4 171/3/4 173/3/4
f 171/1/4 172/1/4 173/1/4
f 173/1/4 172/1/4 174/1/4
f 165/3/4 173/3/4 175/3/4
f 173/2/4 174/2/4 175/2/4
f 175/2/4 174/2/4 176/2/4
f 165/3/4 175/3/4 178/3/4
f 175/1/4 176/1/4 179/1/4
f 178/3/4 175/3/4 179/3/4
f 179/1/4 176/1/4 180/1/4
f 177/3/4 178/3/4 181/3/4
f 178/3/4 179/3/4 181/3/4
f 181/3/4 179/3/4 182/3/4
f 179/2/4 180/2/4 183/2/4
f 182/3/4 179/3/4 183/3/4
f 183/2/4 180/2/4 184/2/4
f 169/3/4 170/3/4 185/3/4
f 185/3/4 170/3/4 186/3/4
f 183/3/4 184/3/4 187/3/4
f 182/3/4 183/3/4 187/3/4
f 184/3/4 185/3/4 187/3/4
f 187/3/4 185/3/4 188/3/4
f 188/3/4 185/3/4 189/3/4
f 177/3/4 181/3/4 190/3/4
f 182/3/4 187/3/4 191/3/4
f 187/2/4 188/2/4 192/2/4
f 191/3/4 187/3/4 192/3/4
f 192/2/4 188/2/4 193/2/4
f 190/3/4 191/3/4 194/3/4
f 191/3/4 192/3/4 194/3/4
f 192/1/4 193/1/4 194/1/4
f 194/1/4 193/1/4 195/1/4
f 177/3/4 190/3/4 196/3/4
f 190/3/4 194/3/4 196/3/4
f 196/3/4 194/3/4 197/3/4
f 194/2/4 195/2/4 198/2/4
f 197/3/4 194/3/4 198/3/4
f 198/2/4 195/2/4 199/2/4
f 177/3/4 196/3/4 200/3/4
f 200/3/4 196/3/4 201/3/4
f 198/3/4 199/3/4 202/3/4
f 197/3/4 198/3/4 202/3/4
f 201/3/4 202/3/4 203/3/4
f 202/3/4 199/3/4 204/3/4
f 203/3/4 202/3/4 204/3/4
f 203/4/4 204/4/4 205/4/4
f 205/4/4 204/4/4 206/4/4
f 209/3/5 208/3/5 207/3/5
f 210/3/5 208/3/5 209/3/5
f 216/3/5 212/3/5 211/3/5
f 217/3/5 212/3/5 216/3/5
f 218/3/5 214/3/5 213/3/5
f 219/4/5 215/4/5 214/4/5
f 219/3/5 214/3/5 218/3/5
f 220/4/5 215/4/5 219/4/5
f 223/3/5 222/3/5 221/3/5
f 224/3/5 222/3/5 223/3/5
f 231/3/5 230/3/5 229/3/5
f 232/3/5 230/3/5 231/3/5
f 233/3/5 226/3/5 225/3/5
f 234/3/5 226/3/5 233/3/5
f 235/3/5 228/3/5 227/3/5
f 236/3/5 228/3/5 235/3/5
f 239/3/5 238/3/5 237/3/5
f 240/3/5 238/3/5 239/3/5
f 243/3/5 242/3/5 241/3/5
f 244/3/5 242/3/5 243/3/5
f 245/3/6 246/3/6 249/3/6
f 249/3/6 246/3/6 250/3/6
f 247/3/6 248/3/6 251/3/6
f 251/3/6 248/3/6 252/3/6
f 253/3/6 254/3/6 255/3/6
f 255/3/6 254/3/6 256/3/6
f 257/2/6 258/2/6 270/2/6
f 261/2/6 262/2/6 271/2/6
f 263/2/6 264/2/6 272/2/6
f 269/1/6 270/1/6 273/1/6
f 270/2/6 258/2/6 274/2/6
f 273/1/6 270/1/6 274/1/6
f 271/2/6 272/2/6 275/2/6
f 261/2/6 271/2/6 275/2/6
f 272/2/6 264/2/6 276/2/6
f 275/2/6 272/2/6 276/2/6
f 274/2/6 258/2/6 277/2/6
f 258/1/6 259/1/6 278/1/6
f 277/2/6 258/2/6 278/2/6
f 259/2/6 260/2/6 279/2/6
f 278/1/6 259/1/6 279/1/6
f 260/1/6 261/1/6 280/1/6
f 279/2/6 260/2/6 280/2/6
f 261/2/6 275/2/6 281/2/6
f 280/1/6 261/1/6 281/1/6
f 281/2/6 275/2/6 282/2/6
f 276/2/6 264/2/6 283/2/6
f 264/1/6 265/1/6 284/1/6
f 283/2/6 264/2/6 284/2/6
f 265/2/6 266/2/6 285/2/6
f 284/1/6 265/1/6 285/1/6
f 266/3/6 267/3/6 286/3/6
f 285/2/6 266/2/6 286/2/6
f 267/4/6 268/4/6 287/4/6
f 286/3/6 267/3/6 287/3/6
f 287/4/6 268/4/6 288/4/6
f 289/3/6 290/3/6 293/3/6
f 293/3/6 290/3/6 294/3/6
f 291/3/6 292/3/6 295/3/6
f 295/3/6 292/3/6 296/3/6
f 297/3/6 298/3/6 301/3/6
f 301/3/6 298/3/6 302/3/6
f 299/3/6 300/3/6 303/3/6
f 303/3/6 300/3/6 304/3/6
f 305/3/6 306/3/6 307/3/6
f 307/3/6 306/3/6 308/3/6
f 309/3/6 310/3/6 311/3/6
f 311/3/6 310/3/6 312/3/6
