# MagicaVoxel @ Ephtracy

# group
o 

# material
mtllib robot_body-0.mtl
usemtl palette

# normals
vn -1 0 0
vn 1 0 0
vn 0 0 1
vn 0 0 -1
vn 0 -1 0
vn 0 1 0

# texcoords
vt 0.986328 0.5
vt 0.990234 0.5

# verts
v -0.4 0.3 -4.3
v -0.4 0.3 -4.8
v -0.4 0.4 -4.3
v -0.4 0.4 -4.8
v -0.4 0.5 -4.3
v -0.4 0.5 -4.8
v -0.4 0.6 -4.3
v -0.4 0.6 -4.8
v -0.4 0.7 -4.3
v -0.4 0.7 -4.8
v -0.4 0.8 -4.3
v -0.4 0.8 -4.8
v -0.3 0.2 -4.3
v -0.3 0.2 -4.8
v -0.3 0.3 -4.3
v -0.3 0.3 -4.8
v -0.3 0.8 -4.3
v -0.3 0.8 -4.8
v -0.3 0.9 -4.3
v -0.3 0.9 -4.8
v -0.2 0.1 -4.3
v -0.2 0.1 -4.8
v -0.2 0.2 -4.3
v -0.2 0.2 -4.8
v -0.2 0.9 -4.3
v -0.2 0.9 -4.8
v -0.2 1 -4.3
v -0.2 1 -4.8
v -0.1 0 -4.3
v -0.1 0 -4.8
v -0.1 0.1 -4.3
v -0.1 0.1 -4.8
v -0.1 1 -4.3
v -0.1 1 -4.8
v -0.1 1.1 -4.3
v -0.1 1.1 -4.8
v 0.4 0 -4.3
v 0.4 0 -4.8
v 0.4 0.1 -4.3
v 0.4 0.1 -4.8
v 0.4 1 -4.3
v 0.4 1 -4.8
v 0.4 1.1 -4.3
v 0.4 1.1 -4.8
v 0.5 0.1 -4.3
v 0.5 0.1 -4.8
v 0.5 0.2 -4.3
v 0.5 0.2 -4.8
v 0.5 0.9 -4.3
v 0.5 0.9 -4.8
v 0.5 1 -4.3
v 0.5 1 -4.8
v 0.6 0.2 -4.3
v 0.6 0.2 -4.8
v 0.6 0.3 -4.3
v 0.6 0.3 -4.8
v 0.6 0.8 -4.3
v 0.6 0.8 -4.8
v 0.6 0.9 -4.3
v 0.6 0.9 -4.8
v 0.7 0.3 -4.3
v 0.7 0.3 -4.8
v 0.7 0.4 -4.3
v 0.7 0.4 -4.8
v 0.7 0.5 -4.3
v 0.7 0.5 -4.8
v 0.7 0.6 -4.3
v 0.7 0.6 -4.8
v 0.7 0.7 -4.3
v 0.7 0.7 -4.8
v 0.7 0.8 -4.3
v 0.7 0.8 -4.8
v -0.4 0.3 -4.3
v -0.4 0.4 -4.3
v -0.4 0.5 -4.3
v -0.4 0.6 -4.3
v -0.4 0.7 -4.3
v -0.4 0.8 -4.3
v -0.3 0.2 -4.3
v -0.3 0.3 -4.3
v -0.3 0.4 -4.3
v -0.3 0.5 -4.3
v -0.3 0.6 -4.3
v -0.3 0.7 -4.3
v -0.3 0.8 -4.3
v -0.3 0.9 -4.3
v -0.2 0.1 -4.3
v -0.2 0.2 -4.3
v -0.2 0.3 -4.3
v -0.2 0.8 -4.3
v -0.2 0.9 -4.3
v -0.2 1 -4.3
v -0.1 0 -4.3
v -0.1 0.1 -4.3
v -0.1 1 -4.3
v -0.1 1.1 -4.3
v 0 0 -4.3
v 0 0.1 -4.3
v 0 1 -4.3
v 0 1.1 -4.3
v 0.1 0 -4.3
v 0.1 0.1 -4.3
v 0.1 1 -4.3
v 0.1 1.1 -4.3
v 0.2 0 -4.3
v 0.2 0.1 -4.3
v 0.2 1 -4.3
v 0.2 1.1 -4.3
v 0.3 0 -4.3
v 0.3 0.1 -4.3
v 0.3 1 -4.3
v 0.3 1.1 -4.3
v 0.4 0 -4.3
v 0.4 0.1 -4.3
v 0.4 1 -4.3
v 0.4 1.1 -4.3
v 0.5 0.1 -4.3
v 0.5 0.2 -4.3
v 0.5 0.3 -4.3
v 0.5 0.8 -4.3
v 0.5 0.9 -4.3
v 0.5 1 -4.3
v 0.6 0.2 -4.3
v 0.6 0.3 -4.3
v 0.6 0.4 -4.3
v 0.6 0.5 -4.3
v 0.6 0.6 -4.3
v 0.6 0.7 -4.3
v 0.6 0.8 -4.3
v 0.6 0.9 -4.3
v 0.7 0.3 -4.3
v 0.7 0.4 -4.3
v 0.7 0.5 -4.3
v 0.7 0.6 -4.3
v 0.7 0.7 -4.3
v 0.7 0.8 -4.3
v -0.4 0.3 -4.8
v -0.4 0.4 -4.8
v -0.4 0.5 -4.8
v -0.4 0.6 -4.8
v -0.4 0.7 -4.8
v -0.4 0.8 -4.8
v -0.3 0.2 -4.8
v -0.3 0.3 -4.8
v -0.3 0.4 -4.8
v -0.3 0.5 -4.8
v -0.3 0.6 -4.8
v -0.3 0.7 -4.8
v -0.3 0.8 -4.8
v -0.3 0.9 -4.8
v -0.2 0.1 -4.8
v -0.2 0.2 -4.8
v -0.2 0.3 -4.8
v -0.2 0.8 -4.8
v -0.2 0.9 -4.8
v -0.2 1 -4.8
v -0.1 0 -4.8
v -0.1 0.1 -4.8
v -0.1 1 -4.8
v -0.1 1.1 -4.8
v 0 0 -4.8
v 0 0.1 -4.8
v 0 1 -4.8
v 0 1.1 -4.8
v 0.1 0 -4.8
v 0.1 0.1 -4.8
v 0.1 1 -4.8
v 0.1 1.1 -4.8
v 0.2 0 -4.8
v 0.2 0.1 -4.8
v 0.2 1 -4.8
v 0.2 1.1 -4.8
v 0.3 0 -4.8
v 0.3 0.1 -4.8
v 0.3 1 -4.8
v 0.3 1.1 -4.8
v 0.4 0 -4.8
v 0.4 0.1 -4.8
v 0.4 1 -4.8
v 0.4 1.1 -4.8
v 0.5 0.1 -4.8
v 0.5 0.2 -4.8
v 0.5 0.3 -4.8
v 0.5 0.8 -4.8
v 0.5 0.9 -4.8
v 0.5 1 -4.8
v 0.6 0.2 -4.8
v 0.6 0.3 -4.8
v 0.6 0.4 -4.8
v 0.6 0.5 -4.8
v 0.6 0.6 -4.8
v 0.6 0.7 -4.8
v 0.6 0.8 -4.8
v 0.6 0.9 -4.8
v 0.7 0.3 -4.8
v 0.7 0.4 -4.8
v 0.7 0.5 -4.8
v 0.7 0.6 -4.8
v 0.7 0.7 -4.8
v 0.7 0.8 -4.8
v -0.1 0 -4.3
v 0 0 -4.3
v 0.1 0 -4.3
v 0.2 0 -4.3
v 0.3 0 -4.3
v 0.4 0 -4.3
v -0.1 0 -4.8
v 0 0 -4.8
v 0.1 0 -4.8
v 0.2 0 -4.8
v 0.3 0 -4.8
v 0.4 0 -4.8
v -0.2 0.1 -4.3
v -0.1 0.1 -4.3
v 0.4 0.1 -4.3
v 0.5 0.1 -4.3
v -0.2 0.1 -4.8
v -0.1 0.1 -4.8
v 0.4 0.1 -4.8
v 0.5 0.1 -4.8
v -0.3 0.2 -4.3
v -0.2 0.2 -4.3
v 0.5 0.2 -4.3
v 0.6 0.2 -4.3
v -0.3 0.2 -4.8
v -0.2 0.2 -4.8
v 0.5 0.2 -4.8
v 0.6 0.2 -4.8
v -0.4 0.3 -4.3
v -0.3 0.3 -4.3
v 0.6 0.3 -4.3
v 0.7 0.3 -4.3
v -0.4 0.3 -4.8
v -0.3 0.3 -4.8
v 0.6 0.3 -4.8
v 0.7 0.3 -4.8
v -0.4 0.8 -4.3
v -0.3 0.8 -4.3
v 0.6 0.8 -4.3
v 0.7 0.8 -4.3
v -0.4 0.8 -4.8
v -0.3 0.8 -4.8
v 0.6 0.8 -4.8
v 0.7 0.8 -4.8
v -0.3 0.9 -4.3
v -0.2 0.9 -4.3
v 0.5 0.9 -4.3
v 0.6 0.9 -4.3
v -0.3 0.9 -4.8
v -0.2 0.9 -4.8
v 0.5 0.9 -4.8
v 0.6 0.9 -4.8
v -0.2 1 -4.3
v -0.1 1 -4.3
v 0.4 1 -4.3
v 0.5 1 -4.3
v -0.2 1 -4.8
v -0.1 1 -4.8
v 0.4 1 -4.8
v 0.5 1 -4.8
v -0.1 1.1 -4.3
v 0 1.1 -4.3
v 0.1 1.1 -4.3
v 0.2 1.1 -4.3
v 0.3 1.1 -4.3
v 0.4 1.1 -4.3
v -0.1 1.1 -4.8
v 0 1.1 -4.8
v 0.1 1.1 -4.8
v 0.2 1.1 -4.8
v 0.3 1.1 -4.8
v 0.4 1.1 -4.8

# faces
f 3/2/1 2/2/1 1/2/1
f 4/2/1 2/2/1 3/2/1
f 5/1/1 4/1/1 3/1/1
f 6/1/1 4/1/1 5/1/1
f 7/2/1 6/2/1 5/2/1
f 8/2/1 6/2/1 7/2/1
f 9/1/1 8/1/1 7/1/1
f 10/1/1 8/1/1 9/1/1
f 11/2/1 10/2/1 9/2/1
f 12/2/1 10/2/1 11/2/1
f 15/1/1 14/1/1 13/1/1
f 16/1/1 14/1/1 15/1/1
f 19/1/1 18/1/1 17/1/1
f 20/1/1 18/1/1 19/1/1
f 23/2/1 22/2/1 21/2/1
f 24/2/1 22/2/1 23/2/1
f 27/2/1 26/2/1 25/2/1
f 28/2/1 26/2/1 27/2/1
f 31/1/1 30/1/1 29/1/1
f 32/1/1 30/1/1 31/1/1
f 35/1/1 34/1/1 33/1/1
f 36/1/1 34/1/1 35/1/1
f 37/1/2 38/1/2 39/1/2
f 39/1/2 38/1/2 40/1/2
f 41/1/2 42/1/2 43/1/2
f 43/1/2 42/1/2 44/1/2
f 45/2/2 46/2/2 47/2/2
f 47/2/2 46/2/2 48/2/2
f 49/2/2 50/2/2 51/2/2
f 51/2/2 50/2/2 52/2/2
f 53/1/2 54/1/2 55/1/2
f 55/1/2 54/1/2 56/1/2
f 57/1/2 58/1/2 59/1/2
f 59/1/2 58/1/2 60/1/2
f 61/2/2 62/2/2 63/2/2
f 63/2/2 62/2/2 64/2/2
f 63/1/2 64/1/2 65/1/2
f 65/1/2 64/1/2 66/1/2
f 65/2/2 66/2/2 67/2/2
f 67/2/2 66/2/2 68/2/2
f 67/1/2 68/1/2 69/1/2
f 69/1/2 68/1/2 70/1/2
f 69/2/2 70/2/2 71/2/2
f 71/2/2 70/2/2 72/2/2
f 80/2/3 74/2/3 73/2/3
f 81/1/3 75/1/3 74/1/3
f 81/2/3 74/2/3 80/2/3
f 82/2/3 76/2/3 75/2/3
f 82/1/3 75/1/3 81/1/3
f 83/1/3 77/1/3 76/1/3
f 83/2/3 76/2/3 82/2/3
f 84/2/3 78/2/3 77/2/3
f 84/1/3 77/1/3 83/1/3
f 85/2/3 78/2/3 84/2/3
f 88/1/3 80/1/3 79/1/3
f 89/2/3 83/2/3 82/2/3
f 89/2/3 81/2/3 80/2/3
f 89/1/3 80/1/3 88/1/3
f 89/2/3 82/2/3 81/2/3
f 89/2/3 85/2/3 84/2/3
f 89/2/3 84/2/3 83/2/3
f 90/1/3 86/1/3 85/1/3
f 90/2/3 85/2/3 89/2/3
f 91/1/3 86/1/3 90/1/3
f 94/2/3 88/2/3 87/2/3
f 94/2/3 92/2/3 91/2/3
f 94/2/3 91/2/3 90/2/3
f 94/2/3 90/2/3 89/2/3
f 94/2/3 89/2/3 88/2/3
f 95/2/3 92/2/3 94/2/3
f 97/1/3 94/1/3 93/1/3
f 98/2/3 95/2/3 94/2/3
f 98/1/3 94/1/3 97/1/3
f 99/1/3 96/1/3 95/1/3
f 99/2/3 95/2/3 98/2/3
f 100/1/3 96/1/3 99/1/3
f 101/2/3 98/2/3 97/2/3
f 101/2/3 99/2/3 98/2/3
f 101/2/3 100/2/3 99/2/3
f 102/2/3 100/2/3 101/2/3
f 103/2/3 100/2/3 102/2/3
f 104/2/3 100/2/3 103/2/3
f 105/1/3 102/1/3 101/1/3
f 106/2/3 103/2/3 102/2/3
f 106/1/3 102/1/3 105/1/3
f 107/1/3 104/1/3 103/1/3
f 107/2/3 103/2/3 106/2/3
f 108/1/3 104/1/3 107/1/3
f 109/2/3 106/2/3 105/2/3
f 109/2/3 107/2/3 106/2/3
f 109/2/3 108/2/3 107/2/3
f 110/2/3 108/2/3 109/2/3
f 111/2/3 108/2/3 110/2/3
f 112/2/3 108/2/3 111/2/3
f 113/1/3 110/1/3 109/1/3
f 114/2/3 111/2/3 110/2/3
f 114/1/3 110/1/3 113/1/3
f 115/1/3 112/1/3 111/1/3
f 115/2/3 111/2/3 114/2/3
f 116/1/3 112/1/3 115/1/3
f 117/2/3 115/2/3 114/2/3
f 118/2/3 115/2/3 117/2/3
f 119/2/3 115/2/3 118/2/3
f 120/2/3 115/2/3 119/2/3
f 121/2/3 115/2/3 120/2/3
f 122/2/3 115/2/3 121/2/3
f 123/1/3 119/1/3 118/1/3
f 124/2/3 120/2/3 119/2/3
f 124/1/3 119/1/3 123/1/3
f 125/2/3 120/2/3 124/2/3
f 126/2/3 120/2/3 125/2/3
f 127/2/3 120/2/3 126/2/3
f 128/2/3 120/2/3 127/2/3
f 129/1/3 121/1/3 120/1/3
f 129/2/3 120/2/3 128/2/3
f 130/1/3 121/1/3 129/1/3
f 131/2/3 125/2/3 124/2/3
f 132/1/3 126/1/3 125/1/3
f 132/2/3 125/2/3 131/2/3
f 133/2/3 127/2/3 126/2/3
f 133/1/3 126/1/3 132/1/3
f 134/1/3 128/1/3 127/1/3
f 134/2/3 127/2/3 133/2/3
f 135/2/3 129/2/3 128/2/3
f 135/1/3 128/1/3 134/1/3
f 136/2/3 129/2/3 135/2/3
f 137/2/4 138/2/4 144/2/4
f 138/1/4 139/1/4 145/1/4
f 144/2/4 138/2/4 145/2/4
f 139/2/4 140/2/4 146/2/4
f 145/1/4 139/1/4 146/1/4
f 140/1/4 141/1/4 147/1/4
f 146/2/4 140/2/4 147/2/4
f 141/2/4 142/2/4 148/2/4
f 147/1/4 141/1/4 148/1/4
f 148/2/4 142/2/4 149/2/4
f 143/1/4 144/1/4 152/1/4
f 146/2/4 147/2/4 153/2/4
f 144/2/4 145/2/4 153/2/4
f 152/1/4 144/1/4 153/1/4
f 145/2/4 146/2/4 153/2/4
f 148/2/4 149/2/4 153/2/4
f 147/2/4 148/2/4 153/2/4
f 149/1/4 150/1/4 154/1/4
f 153/2/4 149/2/4 154/2/4
f 154/1/4 150/1/4 155/1/4
f 151/2/4 152/2/4 158/2/4
f 155/2/4 156/2/4 158/2/4
f 154/2/4 155/2/4 158/2/4
f 153/2/4 154/2/4 158/2/4
f 152/2/4 153/2/4 158/2/4
f 158/2/4 156/2/4 159/2/4
f 157/1/4 158/1/4 161/1/4
f 158/2/4 159/2/4 162/2/4
f 161/1/4 158/1/4 162/1/4
f 159/1/4 160/1/4 163/1/4
f 162/2/4 159/2/4 163/2/4
f 163/1/4 160/1/4 164/1/4
f 161/2/4 162/2/4 165/2/4
f 162/2/4 163/2/4 165/2/4
f 163/2/4 164/2/4 165/2/4
f 165/2/4 164/2/4 166/2/4
f 166/2/4 164/2/4 167/2/4
f 167/2/4 164/2/4 168/2/4
f 165/1/4 166/1/4 169/1/4
f 166/2/4 167/2/4 170/2/4
f 169/1/4 166/1/4 170/1/4
f 167/1/4 168/1/4 171/1/4
f 170/2/4 167/2/4 171/2/4
f 171/1/4 168/1/4 172/1/4
f 169/2/4 170/2/4 173/2/4
f 170/2/4 171/2/4 173/2/4
f 171/2/4 172/2/4 173/2/4
f 173/2/4 172/2/4 174/2/4
f 174/2/4 172/2/4 175/2/4
f 175/2/4 172/2/4 176/2/4
f 173/1/4 174/1/4 177/1/4
f 174/2/4 175/2/4 178/2/4
f 177/1/4 174/1/4 178/1/4
f 175/1/4 176/1/4 179/1/4
f 178/2/4 175/2/4 179/2/4
f 179/1/4 176/1/4 180/1/4
f 178/2/4 179/2/4 181/2/4
f 181/2/4 179/2/4 182/2/4
f 182/2/4 179/2/4 183/2/4
f 183/2/4 179/2/4 184/2/4
f 184/2/4 179/2/4 185/2/4
f 185/2/4 179/2/4 186/2/4
f 182/1/4 183/1/4 187/1/4
f 183/2/4 184/2/4 188/2/4
f 187/1/4 183/1/4 188/1/4
f 188/2/4 184/2/4 189/2/4
f 189/2/4 184/2/4 190/2/4
f 190/2/4 184/2/4 191/2/4
f 191/2/4 184/2/4 192/2/4
f 184/1/4 185/1/4 193/1/4
f 192/2/4 184/2/4 193/2/4
f 193/1/4 185/1/4 194/1/4
f 188/2/4 189/2/4 195/2/4
f 189/1/4 190/1/4 196/1/4
f 195/2/4 189/2/4 196/2/4
f 190/2/4 191/2/4 197/2/4
f 196/1/4 190/1/4 197/1/4
f 191/1/4 192/1/4 198/1/4
f 197/2/4 191/2/4 198/2/4
f 192/2/4 193/2/4 199/2/4
f 198/1/4 192/1/4 199/1/4
f 199/2/4 193/2/4 200/2/4
f 207/1/5 202/1/5 201/1/5
f 208/2/5 203/2/5 202/2/5
f 208/1/5 202/1/5 207/1/5
f 209/1/5 204/1/5 203/1/5
f 209/2/5 203/2/5 208/2/5
f 210/2/5 205/2/5 204/2/5
f 210/1/5 204/1/5 209/1/5
f 211/1/5 206/1/5 205/1/5
f 211/2/5 205/2/5 210/2/5
f 212/1/5 206/1/5 211/1/5
f 217/2/5 214/2/5 213/2/5
f 218/2/5 214/2/5 217/2/5
f 219/2/5 216/2/5 215/2/5
f 220/2/5 216/2/5 219/2/5
f 225/1/5 222/1/5 221/1/5
f 226/1/5 222/1/5 225/1/5
f 227/1/5 224/1/5 223/1/5
f 228/1/5 224/1/5 227/1/5
f 233/2/5 230/2/5 229/2/5
f 234/2/5 230/2/5 233/2/5
f 235/2/5 232/2/5 231/2/5
f 236/2/5 232/2/5 235/2/5
f 237/2/6 238/2/6 241/2/6
f 241/2/6 238/2/6 242/2/6
f 239/2/6 240/2/6 243/2/6
f 243/2/6 240/2/6 244/2/6
f 245/1/6 246/1/6 249/1/6
f 249/1/6 246/1/6 250/1/6
f 247/1/6 248/1/6 251/1/6
f 251/1/6 248/1/6 252/1/6
f 253/2/6 254/2/6 257/2/6
f 257/2/6 254/2/6 258/2/6
f 255/2/6 256/2/6 259/2/6
f 259/2/6 256/2/6 260/2/6
f 261/1/6 262/1/6 267/1/6
f 262/2/6 263/2/6 268/2/6
f 267/1/6 262/1/6 268/1/6
f 263/1/6 264/1/6 269/1/6
f 268/2/6 263/2/6 269/2/6
f 264/2/6 265/2/6 270/2/6
f 269/1/6 264/1/6 270/1/6
f 265/1/6 266/1/6 271/1/6
f 270/2/6 265/2/6 271/2/6
f 271/1/6 266/1/6 272/1/6
