# MagicaVoxel @ Ephtracy

# group
o 

# material
mtllib zombie-4.mtl
usemtl palette

# normals
vn -1 0 0
vn 1 0 0
vn 0 0 1
vn 0 0 -1
vn 0 -1 0
vn 0 1 0

# texcoords
vt 0.357422 0.5
vt 0.685547 0.5
vt 0.955078 0.5
vt 0.958984 0.5
vt 0.982422 0.5

# verts
v 5.5 7.6 0.3
v 5.5 7.6 0.2
v 5.5 7.6 0
v 5.5 7.6 -0.2
v 5.5 7.7 0.3
v 5.5 7.7 0.2
v 5.5 7.7 0
v 5.5 7.7 -0.2
v 5.5 7.7 -0.3
v 5.5 7.8 -0.2
v 5.5 7.8 -0.3
v 5.5 8.8 -0.2
v 5.5 8.8 -0.3
v 5.5 9.1 -0.2
v 5.5 9.1 -0.3
v 5.5 9.1 -0.4
v 5.5 9.2 -0.2
v 5.5 9.2 -0.3
v 5.5 9.3 -0.1
v 5.5 9.3 -0.2
v 5.5 9.3 -0.4
v 5.5 9.4 -0.1
v 5.5 9.4 -0.2
v 5.5 9.4 -0.3
v 5.5 9.4 -0.4
v 5.5 9.5 -0.1
v 5.5 9.5 -0.2
v 5.5 9.6 0
v 5.5 9.6 -0.1
v 5.5 9.6 -0.2
v 5.5 9.7 0
v 5.5 9.7 -0.1
v 5.5 9.7 -0.2
v 5.5 9.7 -0.3
v 5.5 9.8 0
v 5.5 9.8 -0.2
v 5.5 9.8 -0.3
v 5.5 10 -0.1
v 5.5 10 -0.2
v 5.5 10.1 0
v 5.5 10.1 -0.1
v 5.5 10.1 -0.2
v 5.5 10.2 -0.1
v 5.5 10.2 -0.2
v 5.5 10.8 0
v 5.5 10.8 -0.3
v 5.7 7.7 -0.1
v 5.7 7.7 -0.2
v 5.7 7.8 -0.1
v 5.7 7.8 -0.2
v 5.7 7.8 -0.3
v 5.7 8.2 -0.2
v 5.7 8.2 -0.3
v 5.7 8.4 -0.2
v 5.7 8.4 -0.3
v 5.7 8.5 -0.2
v 5.7 8.5 -0.3
v 5.7 8.8 -0.2
v 5.7 8.8 -0.3
v 5.7 9 -0.3
v 5.7 9 -0.4
v 5.7 9.1 -0.3
v 5.7 9.1 -0.4
v 5.7 9.3 -0.1
v 5.7 9.3 -0.2
v 5.7 9.4 -0.1
v 5.7 9.4 -0.2
v 5.8 7.6 0.3
v 5.8 7.6 0.1
v 5.8 7.6 -0.1
v 5.8 7.6 -0.2
v 5.8 7.7 0.3
v 5.8 7.7 0.1
v 5.8 7.7 -0.1
v 5.8 7.7 -0.2
v 5.8 7.7 -0.3
v 5.8 7.8 -0.1
v 5.8 7.8 -0.2
v 5.8 8.2 -0.2
v 5.8 8.2 -0.3
v 5.8 8.4 -0.2
v 5.8 8.4 -0.3
v 5.8 8.5 -0.2
v 5.8 8.5 -0.3
v 5.8 9 -0.2
v 5.8 9 -0.3
v 5.8 9 -0.4
v 5.8 9.1 -0.2
v 5.8 9.1 -0.3
v 5.8 9.3 -0.3
v 5.8 9.3 -0.4
v 5.8 9.4 -0.1
v 5.8 9.4 -0.2
v 5.8 9.4 -0.3
v 5.8 9.4 -0.4
v 5.8 9.5 -0.1
v 5.8 9.5 -0.2
v 5.8 9.6 0
v 5.8 9.6 -0.1
v 5.8 9.7 -0.2
v 5.8 9.7 -0.3
v 5.8 9.9 0
v 5.8 9.9 -0.1
v 5.8 9.9 -0.2
v 5.8 9.9 -0.3
v 5.9 9.9 0
v 5.9 9.9 -0.1
v 5.9 9.9 -0.3
v 5.9 10.1 0
v 5.9 10.1 -0.1
v 5.9 10.1 -0.2
v 5.9 10.2 -0.1
v 5.9 10.2 -0.2
v 5.9 10.8 0
v 5.9 10.8 -0.3
v 5.5 7.6 0.3
v 5.5 7.7 0.3
v 5.7 7.6 0.3
v 5.7 7.7 0.3
v 5.8 7.6 0.3
v 5.8 7.7 0.3
v 5.5 9.6 0
v 5.5 9.7 0
v 5.5 9.8 0
v 5.5 10.1 0
v 5.5 10.8 0
v 5.7 9.6 0
v 5.7 9.7 0
v 5.7 9.8 0
v 5.7 10 0
v 5.7 10.1 0
v 5.8 9.6 0
v 5.8 9.9 0
v 5.8 10 0
v 5.8 10.1 0
v 5.9 9.9 0
v 5.9 10.1 0
v 5.9 10.8 0
v 5.5 9.3 -0.1
v 5.5 9.4 -0.1
v 5.5 9.5 -0.1
v 5.5 9.6 -0.1
v 5.7 7.7 -0.1
v 5.7 7.8 -0.1
v 5.7 9.3 -0.1
v 5.7 9.4 -0.1
v 5.7 9.6 -0.1
v 5.8 7.7 -0.1
v 5.8 7.8 -0.1
v 5.8 9.4 -0.1
v 5.8 9.5 -0.1
v 5.8 9.6 -0.1
v 5.5 7.7 -0.2
v 5.5 7.8 -0.2
v 5.5 8.8 -0.2
v 5.5 9.1 -0.2
v 5.5 9.2 -0.2
v 5.5 9.3 -0.2
v 5.7 7.7 -0.2
v 5.7 7.8 -0.2
v 5.7 8.2 -0.2
v 5.7 8.4 -0.2
v 5.7 8.5 -0.2
v 5.7 8.8 -0.2
v 5.7 9 -0.2
v 5.7 9.1 -0.2
v 5.7 9.2 -0.2
v 5.7 9.3 -0.2
v 5.7 9.4 -0.2
v 5.8 7.8 -0.2
v 5.8 8.2 -0.2
v 5.8 8.4 -0.2
v 5.8 8.5 -0.2
v 5.8 9 -0.2
v 5.8 9.1 -0.2
v 5.8 9.4 -0.2
v 5.5 7.6 -0.2
v 5.5 7.7 -0.2
v 5.7 7.6 -0.2
v 5.7 7.7 -0.2
v 5.8 7.6 -0.2
v 5.8 7.7 -0.2
v 5.5 7.7 -0.3
v 5.5 7.8 -0.3
v 5.5 8.8 -0.3
v 5.5 9.1 -0.3
v 5.5 9.4 -0.3
v 5.5 9.7 -0.3
v 5.5 9.8 -0.3
v 5.5 10.8 -0.3
v 5.7 7.8 -0.3
v 5.7 8.2 -0.3
v 5.7 8.4 -0.3
v 5.7 8.5 -0.3
v 5.7 8.8 -0.3
v 5.7 9 -0.3
v 5.7 9.1 -0.3
v 5.7 9.4 -0.3
v 5.7 9.7 -0.3
v 5.7 9.8 -0.3
v 5.8 7.7 -0.3
v 5.8 8.2 -0.3
v 5.8 8.4 -0.3
v 5.8 8.5 -0.3
v 5.8 9 -0.3
v 5.8 9.4 -0.3
v 5.8 9.7 -0.3
v 5.8 9.9 -0.3
v 5.9 9.9 -0.3
v 5.9 10.8 -0.3
v 5.5 9.1 -0.4
v 5.5 9.3 -0.4
v 5.5 9.4 -0.4
v 5.7 9 -0.4
v 5.7 9.1 -0.4
v 5.7 9.3 -0.4
v 5.7 9.4 -0.4
v 5.8 9 -0.4
v 5.8 9.3 -0.4
v 5.8 9.4 -0.4
v 5.5 7.6 0.3
v 5.7 7.6 0.3
v 5.8 7.6 0.3
v 5.5 7.6 0.2
v 5.7 7.6 0.2
v 5.7 7.6 0.1
v 5.8 7.6 0.1
v 5.5 7.6 0
v 5.7 7.6 0
v 5.7 7.6 -0.1
v 5.8 7.6 -0.1
v 5.5 7.6 -0.2
v 5.7 7.6 -0.2
v 5.8 7.6 -0.2
v 5.5 7.7 -0.2
v 5.7 7.7 -0.2
v 5.8 7.7 -0.2
v 5.5 7.7 -0.3
v 5.8 7.7 -0.3
v 5.5 8.8 -0.2
v 5.7 8.8 -0.2
v 5.5 8.8 -0.3
v 5.7 8.8 -0.3
v 5.7 9 -0.3
v 5.8 9 -0.3
v 5.7 9 -0.4
v 5.8 9 -0.4
v 5.5 9.1 -0.3
v 5.7 9.1 -0.3
v 5.5 9.1 -0.4
v 5.7 9.1 -0.4
v 5.5 9.3 -0.1
v 5.7 9.3 -0.1
v 5.5 9.3 -0.2
v 5.7 9.3 -0.2
v 5.7 9.4 -0.1
v 5.8 9.4 -0.1
v 5.7 9.4 -0.2
v 5.8 9.4 -0.2
v 5.5 9.6 0
v 5.7 9.6 0
v 5.8 9.6 0
v 5.5 9.6 -0.1
v 5.7 9.6 -0.1
v 5.8 9.6 -0.1
v 5.8 9.9 0
v 5.9 9.9 0
v 5.8 9.9 -0.1
v 5.9 9.9 -0.1
v 5.8 9.9 -0.2
v 5.8 9.9 -0.3
v 5.9 9.9 -0.3
v 5.5 7.7 0.3
v 5.7 7.7 0.3
v 5.8 7.7 0.3
v 5.5 7.7 0.2
v 5.7 7.7 0.2
v 5.7 7.7 0.1
v 5.8 7.7 0.1
v 5.5 7.7 0
v 5.7 7.7 0
v 5.7 7.7 -0.1
v 5.8 7.7 -0.1
v 5.5 7.7 -0.2
v 5.7 7.7 -0.2
v 5.7 7.8 -0.1
v 5.8 7.8 -0.1
v 5.5 7.8 -0.2
v 5.7 7.8 -0.2
v 5.8 7.8 -0.2
v 5.5 7.8 -0.3
v 5.7 7.8 -0.3
v 5.5 9.4 -0.3
v 5.7 9.4 -0.3
v 5.8 9.4 -0.3
v 5.5 9.4 -0.4
v 5.7 9.4 -0.4
v 5.8 9.4 -0.4
v 5.5 10.8 0
v 5.9 10.8 0
v 5.5 10.8 -0.3
v 5.9 10.8 -0.3

# faces
f 5/3/1 2/3/1 1/3/1
f 6/5/1 3/5/1 2/5/1
f 6/3/1 2/3/1 5/3/1
f 7/4/1 4/4/1 3/4/1
f 7/5/1 3/5/1 6/5/1
f 8/4/1 4/4/1 7/4/1
f 10/5/1 9/5/1 8/5/1
f 11/5/1 9/5/1 10/5/1
f 14/5/1 13/5/1 12/5/1
f 15/5/1 13/5/1 14/5/1
f 17/3/1 15/3/1 14/3/1
f 18/4/1 16/4/1 15/4/1
f 18/3/1 15/3/1 17/3/1
f 20/4/1 18/4/1 17/4/1
f 21/4/1 16/4/1 18/4/1
f 21/4/1 18/4/1 20/4/1
f 22/4/1 20/4/1 19/4/1
f 23/1/1 21/1/1 20/1/1
f 23/4/1 20/4/1 22/4/1
f 24/1/1 21/1/1 23/1/1
f 25/1/1 21/1/1 24/1/1
f 26/3/1 23/3/1 22/3/1
f 27/2/1 24/2/1 23/2/1
f 27/3/1 23/3/1 26/3/1
f 29/1/1 27/1/1 26/1/1
f 30/2/1 24/2/1 27/2/1
f 30/1/1 27/1/1 29/1/1
f 31/3/1 29/3/1 28/3/1
f 32/2/1 30/2/1 29/2/1
f 32/3/1 29/3/1 31/3/1
f 33/2/1 24/2/1 30/2/1
f 33/2/1 30/2/1 32/2/1
f 34/2/1 24/2/1 33/2/1
f 35/2/1 32/2/1 31/2/1
f 35/2/1 33/2/1 32/2/1
f 36/1/1 34/1/1 33/1/1
f 36/2/1 33/2/1 35/2/1
f 37/1/1 34/1/1 36/1/1
f 38/1/1 36/1/1 35/1/1
f 39/2/1 37/2/1 36/2/1
f 39/1/1 36/1/1 38/1/1
f 40/1/1 38/1/1 35/1/1
f 41/2/1 39/2/1 38/2/1
f 41/1/1 38/1/1 40/1/1
f 42/2/1 37/2/1 39/2/1
f 42/2/1 39/2/1 41/2/1
f 43/2/1 41/2/1 40/2/1
f 43/1/1 42/1/1 41/1/1
f 44/2/1 37/2/1 42/2/1
f 44/1/1 42/1/1 43/1/1
f 45/2/1 43/2/1 40/2/1
f 45/2/1 44/2/1 43/2/1
f 46/2/1 37/2/1 44/2/1
f 46/2/1 44/2/1 45/2/1
f 49/5/1 48/5/1 47/5/1
f 50/5/1 48/5/1 49/5/1
f 52/5/1 51/5/1 50/5/1
f 53/5/1 51/5/1 52/5/1
f 54/4/1 53/4/1 52/4/1
f 55/4/1 53/4/1 54/4/1
f 56/3/1 55/3/1 54/3/1
f 57/3/1 55/3/1 56/3/1
f 58/5/1 57/5/1 56/5/1
f 59/5/1 57/5/1 58/5/1
f 62/1/1 61/1/1 60/1/1
f 63/1/1 61/1/1 62/1/1
f 64/4/2 65/4/2 66/4/2
f 66/4/2 65/4/2 67/4/2
f 68/5/2 69/5/2 72/5/2
f 69/4/2 70/4/2 73/4/2
f 72/5/2 69/5/2 73/5/2
f 70/5/2 71/5/2 74/5/2
f 73/4/2 70/4/2 74/4/2
f 74/5/2 71/5/2 75/5/2
f 75/5/2 76/5/2 77/5/2
f 74/5/2 75/5/2 77/5/2
f 77/5/2 76/5/2 78/5/2
f 78/5/2 76/5/2 79/5/2
f 79/5/2 76/5/2 80/5/2
f 79/4/2 80/4/2 81/4/2
f 81/4/2 80/4/2 82/4/2
f 81/3/2 82/3/2 83/3/2
f 83/3/2 82/3/2 84/3/2
f 83/5/2 84/5/2 85/5/2
f 85/5/2 84/5/2 86/5/2
f 85/3/2 86/3/2 88/3/2
f 86/1/2 87/1/2 89/1/2
f 88/3/2 86/3/2 89/3/2
f 88/1/2 89/1/2 90/1/2
f 89/1/2 87/1/2 90/1/2
f 90/1/2 87/1/2 91/1/2
f 88/1/2 90/1/2 93/1/2
f 90/3/2 91/3/2 94/3/2
f 93/1/2 90/1/2 94/1/2
f 94/3/2 91/3/2 95/3/2
f 92/3/2 93/3/2 96/3/2
f 93/3/2 94/3/2 96/3/2
f 96/3/2 94/3/2 97/3/2
f 96/1/2 97/1/2 99/1/2
f 97/3/2 94/3/2 100/3/2
f 98/1/2 99/1/2 100/1/2
f 99/1/2 97/1/2 100/1/2
f 100/3/2 94/3/2 101/3/2
f 98/1/2 100/1/2 102/1/2
f 102/1/2 100/1/2 103/1/2
f 100/2/2 101/2/2 104/2/2
f 103/1/2 100/1/2 104/1/2
f 104/2/2 101/2/2 105/2/2
f 106/1/2 107/1/2 109/1/2
f 107/2/2 108/2/2 110/2/2
f 109/1/2 107/1/2 110/1/2
f 110/2/2 108/2/2 111/2/2
f 109/2/2 110/2/2 112/2/2
f 110/1/2 111/1/2 112/1/2
f 111/2/2 108/2/2 113/2/2
f 112/1/2 111/1/2 113/1/2
f 109/2/2 112/2/2 114/2/2
f 112/2/2 113/2/2 114/2/2
f 113/2/2 108/2/2 115/2/2
f 114/2/2 113/2/2 115/2/2
f 118/3/3 117/3/3 116/3/3
f 119/3/3 117/3/3 118/3/3
f 120/5/3 119/5/3 118/5/3
f 121/5/3 119/5/3 120/5/3
f 127/3/3 123/3/3 122/3/3
f 128/2/3 124/2/3 123/2/3
f 128/3/3 123/3/3 127/3/3
f 129/1/3 125/1/3 124/1/3
f 129/2/3 124/2/3 128/2/3
f 130/1/3 125/1/3 129/1/3
f 131/2/3 126/2/3 125/2/3
f 131/1/3 125/1/3 130/1/3
f 132/1/3 130/1/3 129/1/3
f 132/1/3 128/1/3 127/1/3
f 132/1/3 129/1/3 128/1/3
f 133/1/3 130/1/3 132/1/3
f 134/2/3 131/2/3 130/2/3
f 134/1/3 130/1/3 133/1/3
f 135/2/3 126/2/3 131/2/3
f 135/2/3 131/2/3 134/2/3
f 136/1/3 134/1/3 133/1/3
f 136/1/3 135/1/3 134/1/3
f 137/2/3 126/2/3 135/2/3
f 137/1/3 135/1/3 136/1/3
f 138/2/3 126/2/3 137/2/3
f 145/4/3 140/4/3 139/4/3
f 146/3/3 141/3/3 140/3/3
f 146/4/3 140/4/3 145/4/3
f 147/1/3 142/1/3 141/1/3
f 148/5/3 144/5/3 143/5/3
f 149/5/3 144/5/3 148/5/3
f 150/3/3 141/3/3 146/3/3
f 151/1/3 147/1/3 141/1/3
f 151/3/3 141/3/3 150/3/3
f 152/1/3 147/1/3 151/1/3
f 159/5/3 154/5/3 153/5/3
f 160/5/3 154/5/3 159/5/3
f 164/5/3 156/5/3 155/5/3
f 165/5/3 156/5/3 164/5/3
f 166/3/3 157/3/3 156/3/3
f 166/5/3 156/5/3 165/5/3
f 167/4/3 158/4/3 157/4/3
f 167/3/3 157/3/3 166/3/3
f 168/4/3 158/4/3 167/4/3
f 170/5/3 161/5/3 160/5/3
f 171/4/3 162/4/3 161/4/3
f 171/5/3 161/5/3 170/5/3
f 172/3/3 163/3/3 162/3/3
f 172/4/3 162/4/3 171/4/3
f 173/5/3 165/5/3 164/5/3
f 173/3/3 163/3/3 172/3/3
f 173/5/3 164/5/3 163/5/3
f 174/3/3 166/3/3 165/3/3
f 174/5/3 165/5/3 173/5/3
f 175/1/3 169/1/3 168/1/3
f 175/3/3 166/3/3 174/3/3
f 175/1/3 168/1/3 167/1/3
f 175/1/3 167/1/3 166/1/3
f 176/1/3 169/1/3 175/1/3
f 177/4/4 178/4/4 179/4/4
f 179/4/4 178/4/4 180/4/4
f 179/5/4 180/5/4 181/5/4
f 181/5/4 180/5/4 182/5/4
f 183/5/4 184/5/4 191/5/4
f 185/5/4 186/5/4 195/5/4
f 195/5/4 186/5/4 196/5/4
f 196/5/4 186/5/4 197/5/4
f 187/2/4 188/2/4 198/2/4
f 188/1/4 189/1/4 199/1/4
f 198/2/4 188/2/4 199/2/4
f 189/2/4 190/2/4 200/2/4
f 199/1/4 189/1/4 200/1/4
f 183/5/4 191/5/4 201/5/4
f 191/5/4 192/5/4 201/5/4
f 192/4/4 193/4/4 202/4/4
f 201/5/4 192/5/4 202/5/4
f 193/3/4 194/3/4 203/3/4
f 202/4/4 193/4/4 203/4/4
f 195/5/4 196/5/4 204/5/4
f 203/3/4 194/3/4 204/3/4
f 194/5/4 195/5/4 204/5/4
f 204/5/4 196/5/4 205/5/4
f 198/3/4 199/3/4 206/3/4
f 199/2/4 200/2/4 207/2/4
f 206/3/4 199/3/4 207/3/4
f 200/2/4 190/2/4 208/2/4
f 207/2/4 200/2/4 208/2/4
f 208/2/4 190/2/4 209/2/4
f 209/2/4 190/2/4 210/2/4
f 211/4/4 212/4/4 215/4/4
f 212/1/4 213/1/4 216/1/4
f 215/4/4 212/4/4 216/4/4
f 216/1/4 213/1/4 217/1/4
f 214/1/4 215/1/4 218/1/4
f 215/1/4 216/1/4 218/1/4
f 216/3/4 217/3/4 219/3/4
f 218/1/4 216/1/4 219/1/4
f 219/3/4 217/3/4 220/3/4
f 224/3/5 222/3/5 221/3/5
f 225/5/5 223/5/5 222/5/5
f 225/3/5 222/3/5 224/3/5
f 226/5/5 225/5/5 224/5/5
f 226/5/5 223/5/5 225/5/5
f 227/5/5 223/5/5 226/5/5
f 228/5/5 226/5/5 224/5/5
f 229/4/5 227/4/5 226/4/5
f 229/5/5 226/5/5 228/5/5
f 230/4/5 229/4/5 228/4/5
f 230/4/5 227/4/5 229/4/5
f 231/4/5 227/4/5 230/4/5
f 232/4/5 230/4/5 228/4/5
f 233/5/5 231/5/5 230/5/5
f 233/4/5 230/4/5 232/4/5
f 234/5/5 231/5/5 233/5/5
f 238/5/5 236/5/5 235/5/5
f 238/5/5 237/5/5 236/5/5
f 239/5/5 237/5/5 238/5/5
f 242/5/5 241/5/5 240/5/5
f 243/5/5 241/5/5 242/5/5
f 246/1/5 245/1/5 244/1/5
f 247/1/5 245/1/5 246/1/5
f 250/4/5 249/4/5 248/4/5
f 251/4/5 249/4/5 250/4/5
f 254/4/5 253/4/5 252/4/5
f 255/4/5 253/4/5 254/4/5
f 258/3/5 257/3/5 256/3/5
f 259/3/5 257/3/5 258/3/5
f 263/3/5 261/3/5 260/3/5
f 264/1/5 262/1/5 261/1/5
f 264/3/5 261/3/5 263/3/5
f 265/1/5 262/1/5 264/1/5
f 268/1/5 267/1/5 266/1/5
f 269/1/5 267/1/5 268/1/5
f 270/2/5 269/2/5 268/2/5
f 271/2/5 269/2/5 270/2/5
f 272/2/5 269/2/5 271/2/5
f 273/3/6 274/3/6 276/3/6
f 274/5/6 275/5/6 277/5/6
f 276/3/6 274/3/6 277/3/6
f 276/5/6 277/5/6 278/5/6
f 277/5/6 275/5/6 278/5/6
f 278/5/6 275/5/6 279/5/6
f 276/5/6 278/5/6 280/5/6
f 278/4/6 279/4/6 281/4/6
f 280/5/6 278/5/6 281/5/6
f 280/4/6 281/4/6 282/4/6
f 281/4/6 279/4/6 282/4/6
f 282/4/6 279/4/6 283/4/6
f 280/4/6 282/4/6 284/4/6
f 284/4/6 282/4/6 285/4/6
f 286/5/6 287/5/6 289/5/6
f 289/5/6 287/5/6 290/5/6
f 288/5/6 289/5/6 291/5/6
f 291/5/6 289/5/6 292/5/6
f 293/1/6 294/1/6 296/1/6
f 294/3/6 295/3/6 297/3/6
f 296/1/6 294/1/6 297/1/6
f 297/3/6 295/3/6 298/3/6
f 299/2/6 300/2/6 301/2/6
f 301/2/6 300/2/6 302/2/6
