# MagicaVoxel @ Ephtracy

# group
o 

# material
mtllib Zeds-0-Zed_1-1.mtl
usemtl palette

# normals
vn 1 0 0
vn -1 0 0
vn 0 0 1
vn 0 0 -1
vn 0 -1 0
vn 0 1 0

# texcoords
vt 0.244141 0.5
vt 0.310547 0.5
vt 0.357422 0.5

# verts
v 0.7 3.4 0.2
v 0.7 3.4 -1.2
v 0.7 4.3 0.2
v 0.7 4.3 -1.2
v 0.3 0.2 1
v 0.3 0.2 0.9
v 0.3 0.2 0.6
v 0.3 0.3 1
v 0.3 0.3 0.9
v 0.3 0.4 0.9
v 0.3 0.4 0.6
v 0.3 2.8 0.2
v 0.3 2.8 -0.5
v 0.3 3 -0.5
v 0.3 3 -0.9
v 0.3 3.4 0.2
v 0.3 3.4 -0.9
v 0.2 1 0.1
v 0.2 1 -0.5
v 0.2 2 -0.4
v 0.2 2 -0.5
v 0.2 2.1 0.4
v 0.2 2.1 0.1
v 0.2 2.2 -0.2
v 0.2 2.2 -0.4
v 0.2 2.6 -0.2
v 0.2 2.6 -0.4
v 0.2 2.7 0.4
v 0.2 2.7 0.3
v 0.2 2.8 0.2
v 0.2 2.8 -0.4
v 0.2 2.9 0.3
v 0.2 2.9 0.2
v 0.1 0.2 0.6
v 0.1 0.2 -0.5
v 0.1 0.4 0.8
v 0.1 0.4 0.6
v 0.1 0.5 0.8
v 0.1 0.5 0.1
v 0.1 1 0.1
v 0.1 1 -0.5
v 0 0.2 1.2
v 0 0.2 1.1
v 0 0.2 0.8
v 0 0.3 1.2
v 0 0.3 1.1
v 0 0.4 1.1
v 0 0.4 0.9
v 0 0.5 0.9
v 0 0.5 0.8
v -0.4 0.2 1.2
v -0.4 0.2 1.1
v -0.4 0.2 0.9
v -0.4 0.3 1.2
v -0.4 0.3 1.1
v -0.4 0.4 1.1
v -0.4 0.4 0.9
v 0.1 0.2 1
v 0.1 0.2 0.9
v 0.1 0.2 0.8
v 0.1 0.3 1
v 0.1 0.3 0.9
v 0.1 0.4 0.9
v 0.1 0.4 0.8
v 0 3.4 -0.9
v 0 3.4 -1.2
v 0 4.1 -0.9
v 0 4.1 -1.2
v -0.2 0.2 1.2
v -0.2 0.2 1.1
v -0.2 0.2 0.9
v -0.2 0.3 1.2
v -0.2 0.3 1.1
v -0.2 0.4 1.1
v -0.2 0.4 0.9
v -0.4 0.4 0.9
v -0.4 0.4 0.8
v -0.4 0.5 0.9
v -0.4 0.5 0.8
v -0.5 0.2 0.7
v -0.5 0.2 0.1
v -0.5 0.4 0.8
v -0.5 0.4 0.7
v -0.5 0.5 0.8
v -0.5 0.5 0.1
v -0.6 0.2 1.2
v -0.6 0.2 1.1
v -0.6 0.2 0.7
v -0.6 0.2 0.1
v -0.6 0.2 -0.5
v -0.6 0.3 1.2
v -0.6 0.3 1.1
v -0.6 0.4 1.1
v -0.6 0.4 0.7
v -0.6 1 0.1
v -0.6 1 -0.5
v -0.6 2 -0.4
v -0.6 2 -0.5
v -0.6 2.1 0.4
v -0.6 2.1 0.1
v -0.6 2.2 -0.2
v -0.6 2.2 -0.4
v -0.6 2.6 -0.2
v -0.6 2.6 -0.4
v -0.6 2.7 0.4
v -0.6 2.7 0.3
v -0.6 2.8 -0.4
v -0.6 2.8 -0.5
v -0.6 2.9 0.3
v -0.6 2.9 0.2
v -0.6 3 -0.5
v -0.6 3 -0.9
v -0.6 4.1 -0.9
v -0.6 4.1 -1.2
v -0.6 4.3 0.2
v -0.6 4.3 -1.2
v 0 0.2 1.2
v 0 0.3 1.2
v -0.2 0.2 1.2
v -0.2 0.3 1.2
v -0.4 0.2 1.2
v -0.4 0.3 1.2
v -0.6 0.2 1.2
v -0.6 0.3 1.2
v 0 0.3 1.1
v 0 0.4 1.1
v -0.2 0.3 1.1
v -0.2 0.4 1.1
v -0.4 0.3 1.1
v -0.4 0.4 1.1
v -0.6 0.3 1.1
v -0.6 0.4 1.1
v 0.3 0.2 1
v 0.3 0.3 1
v 0.1 0.2 1
v 0.1 0.3 1
v 0.3 0.3 0.9
v 0.3 0.4 0.9
v 0.1 0.3 0.9
v 0.1 0.4 0.9
v 0 0.4 0.9
v 0 0.5 0.9
v -0.2 0.2 0.9
v -0.2 0.4 0.9
v -0.4 0.2 0.9
v -0.4 0.4 0.9
v -0.4 0.5 0.9
v 0.1 0.2 0.8
v 0.1 0.4 0.8
v 0.1 0.5 0.8
v 0 0.2 0.8
v 0 0.5 0.8
v -0.4 0.4 0.8
v -0.4 0.5 0.8
v -0.5 0.4 0.8
v -0.5 0.5 0.8
v 0.2 2.1 0.4
v 0.2 2.7 0.4
v -0.6 2.1 0.4
v -0.6 2.7 0.4
v 0.2 2.7 0.3
v 0.2 2.9 0.3
v -0.6 2.7 0.3
v -0.6 2.9 0.3
v 0.7 3.4 0.2
v 0.7 4.3 0.2
v 0.3 2.8 0.2
v 0.3 3.4 0.2
v 0.2 2.8 0.2
v 0.2 2.9 0.2
v -0.6 2.9 0.2
v -0.6 4.3 0.2
v 0.2 1 0.1
v 0.2 2.1 0.1
v 0.1 0.5 0.1
v 0.1 1 0.1
v -0.5 0.2 0.1
v -0.5 0.5 0.1
v -0.6 0.2 0.1
v -0.6 1 0.1
v -0.6 2.1 0.1
v -0.5 0.2 0.7
v -0.5 0.4 0.7
v -0.6 0.2 0.7
v -0.6 0.4 0.7
v 0.3 0.2 0.6
v 0.3 0.4 0.6
v 0.1 0.2 0.6
v 0.1 0.4 0.6
v 0.2 2.2 -0.2
v 0.2 2.6 -0.2
v -0.6 2.2 -0.2
v -0.6 2.6 -0.2
v 0.2 2 -0.4
v 0.2 2.2 -0.4
v 0.2 2.6 -0.4
v 0.2 2.8 -0.4
v -0.6 2 -0.4
v -0.6 2.2 -0.4
v -0.6 2.6 -0.4
v -0.6 2.8 -0.4
v 0.3 2.8 -0.5
v 0.3 3 -0.5
v 0.2 1 -0.5
v 0.2 2 -0.5
v 0.1 0.2 -0.5
v 0.1 1 -0.5
v -0.6 0.2 -0.5
v -0.6 1 -0.5
v -0.6 2 -0.5
v -0.6 2.8 -0.5
v -0.6 3 -0.5
v 0.3 3 -0.9
v 0.3 3.4 -0.9
v 0 3.4 -0.9
v 0 4.1 -0.9
v -0.6 3 -0.9
v -0.6 4.1 -0.9
v 0.7 3.4 -1.2
v 0.7 4.3 -1.2
v 0 3.4 -1.2
v 0 4.1 -1.2
v -0.6 4.1 -1.2
v -0.6 4.3 -1.2
v 0 0.2 1.2
v -0.2 0.2 1.2
v -0.4 0.2 1.2
v -0.6 0.2 1.2
v 0 0.2 1.1
v -0.2 0.2 1.1
v -0.4 0.2 1.1
v -0.6 0.2 1.1
v 0.3 0.2 1
v 0.1 0.2 1
v 0.3 0.2 0.9
v 0.1 0.2 0.9
v -0.2 0.2 0.9
v -0.4 0.2 0.9
v 0.1 0.2 0.8
v 0 0.2 0.8
v -0.5 0.2 0.7
v -0.6 0.2 0.7
v 0.3 0.2 0.6
v 0.1 0.2 0.6
v -0.5 0.2 0.1
v -0.6 0.2 0.1
v 0.1 0.2 -0.5
v -0.6 0.2 -0.5
v 0.2 1 0.1
v 0.1 1 0.1
v 0.2 1 -0.5
v 0.1 1 -0.5
v 0.2 2.1 0.4
v -0.6 2.1 0.4
v 0.2 2.1 0.1
v -0.6 2.1 0.1
v 0.2 2.6 -0.2
v -0.6 2.6 -0.2
v 0.2 2.6 -0.4
v -0.6 2.6 -0.4
v 0.3 2.8 0.2
v 0.2 2.8 0.2
v 0.2 2.8 -0.4
v -0.6 2.8 -0.4
v 0.3 2.8 -0.5
v -0.6 2.8 -0.5
v 0.3 3 -0.5
v -0.6 3 -0.5
v 0.3 3 -0.9
v -0.6 3 -0.9
v 0.7 3.4 0.2
v 0.3 3.4 0.2
v 0.3 3.4 -0.9
v 0 3.4 -0.9
v 0.7 3.4 -1.2
v 0 3.4 -1.2
v 0 4.1 -0.9
v -0.6 4.1 -0.9
v 0 4.1 -1.2
v -0.6 4.1 -1.2
v 0 0.3 1.2
v -0.2 0.3 1.2
v -0.4 0.3 1.2
v -0.6 0.3 1.2
v 0 0.3 1.1
v -0.2 0.3 1.1
v -0.4 0.3 1.1
v -0.6 0.3 1.1
v 0.3 0.3 1
v 0.1 0.3 1
v 0.3 0.3 0.9
v 0.1 0.3 0.9
v 0 0.4 1.1
v -0.2 0.4 1.1
v -0.4 0.4 1.1
v -0.6 0.4 1.1
v 0.3 0.4 0.9
v 0.1 0.4 0.9
v 0 0.4 0.9
v -0.2 0.4 0.9
v -0.4 0.4 0.9
v 0.1 0.4 0.8
v -0.4 0.4 0.8
v -0.5 0.4 0.8
v -0.5 0.4 0.7
v -0.6 0.4 0.7
v 0.3 0.4 0.6
v 0.1 0.4 0.6
v 0 0.5 0.9
v -0.4 0.5 0.9
v 0.1 0.5 0.8
v 0 0.5 0.8
v -0.4 0.5 0.8
v -0.5 0.5 0.8
v 0.1 0.5 0.1
v -0.5 0.5 0.1
v 0.2 2 -0.4
v -0.6 2 -0.4
v 0.2 2 -0.5
v -0.6 2 -0.5
v 0.2 2.2 -0.2
v -0.6 2.2 -0.2
v 0.2 2.2 -0.4
v -0.6 2.2 -0.4
v 0.2 2.7 0.4
v -0.6 2.7 0.4
v 0.2 2.7 0.3
v -0.6 2.7 0.3
v 0.2 2.9 0.3
v -0.6 2.9 0.3
v 0.2 2.9 0.2
v -0.6 2.9 0.2
v 0.7 4.3 0.2
v -0.6 4.3 0.2
v 0.7 4.3 -1.2
v -0.6 4.3 -1.2

# faces
f 1/2/1 2/2/1 3/2/1
f 3/2/1 2/2/1 4/2/1
f 5/1/1 6/1/1 8/1/1
f 6/3/1 7/3/1 9/3/1
f 8/1/1 6/1/1 9/1/1
f 9/3/1 7/3/1 10/3/1
f 10/3/1 7/3/1 11/3/1
f 12/2/1 13/2/1 14/2/1
f 12/2/1 14/2/1 16/2/1
f 14/2/1 15/2/1 16/2/1
f 16/2/1 15/2/1 17/2/1
f 18/2/1 19/2/1 20/2/1
f 20/2/1 19/2/1 21/2/1
f 18/2/1 20/2/1 23/2/1
f 23/2/1 20/2/1 24/2/1
f 22/2/1 23/2/1 24/2/1
f 24/2/1 20/2/1 25/2/1
f 22/2/1 24/2/1 26/2/1
f 22/2/1 26/2/1 28/2/1
f 26/2/1 27/2/1 28/2/1
f 28/2/1 27/2/1 29/2/1
f 29/2/1 27/2/1 30/2/1
f 30/2/1 27/2/1 31/2/1
f 29/2/1 30/2/1 32/2/1
f 32/2/1 30/2/1 33/2/1
f 34/3/1 35/3/1 37/3/1
f 36/3/1 37/3/1 38/3/1
f 37/3/1 35/3/1 39/3/1
f 38/3/1 37/3/1 39/3/1
f 39/3/1 35/3/1 40/3/1
f 40/3/1 35/3/1 41/3/1
f 42/1/1 43/1/1 45/1/1
f 43/3/1 44/3/1 46/3/1
f 45/1/1 43/1/1 46/1/1
f 46/3/1 44/3/1 47/3/1
f 47/3/1 44/3/1 48/3/1
f 48/3/1 44/3/1 49/3/1
f 49/3/1 44/3/1 50/3/1
f 51/1/1 52/1/1 54/1/1
f 52/3/1 53/3/1 55/3/1
f 54/1/1 52/1/1 55/1/1
f 55/3/1 53/3/1 56/3/1
f 56/3/1 53/3/1 57/3/1
f 61/1/2 59/1/2 58/1/2
f 62/3/2 60/3/2 59/3/2
f 62/1/2 59/1/2 61/1/2
f 63/3/2 60/3/2 62/3/2
f 64/3/2 60/3/2 63/3/2
f 67/2/2 66/2/2 65/2/2
f 68/2/2 66/2/2 67/2/2
f 72/1/2 70/1/2 69/1/2
f 73/3/2 71/3/2 70/3/2
f 73/1/2 70/1/2 72/1/2
f 74/3/2 71/3/2 73/3/2
f 75/3/2 71/3/2 74/3/2
f 78/3/2 77/3/2 76/3/2
f 79/3/2 77/3/2 78/3/2
f 83/3/2 81/3/2 80/3/2
f 84/3/2 83/3/2 82/3/2
f 85/3/2 81/3/2 83/3/2
f 85/3/2 83/3/2 84/3/2
f 91/1/2 87/1/2 86/1/2
f 92/3/2 88/3/2 87/3/2
f 92/1/2 87/1/2 91/1/2
f 93/3/2 88/3/2 92/3/2
f 94/3/2 88/3/2 93/3/2
f 95/3/2 90/3/2 89/3/2
f 96/3/2 90/3/2 95/3/2
f 97/2/2 96/2/2 95/2/2
f 98/2/2 96/2/2 97/2/2
f 100/2/2 97/2/2 95/2/2
f 101/2/2 97/2/2 100/2/2
f 101/2/2 100/2/2 99/2/2
f 102/2/2 97/2/2 101/2/2
f 103/2/2 101/2/2 99/2/2
f 105/2/2 103/2/2 99/2/2
f 105/2/2 104/2/2 103/2/2
f 106/2/2 104/2/2 105/2/2
f 107/2/2 104/2/2 106/2/2
f 109/2/2 107/2/2 106/2/2
f 109/2/2 108/2/2 107/2/2
f 110/2/2 108/2/2 109/2/2
f 111/2/2 108/2/2 110/2/2
f 113/2/2 112/2/2 111/2/2
f 115/2/2 111/2/2 110/2/2
f 115/2/2 114/2/2 113/2/2
f 115/2/2 113/2/2 111/2/2
f 116/2/2 114/2/2 115/2/2
f 117/1/3 118/1/3 119/1/3
f 119/1/3 118/1/3 120/1/3
f 121/1/3 122/1/3 123/1/3
f 123/1/3 122/1/3 124/1/3
f 125/3/3 126/3/3 127/3/3
f 127/3/3 126/3/3 128/3/3
f 129/3/3 130/3/3 131/3/3
f 131/3/3 130/3/3 132/3/3
f 133/1/3 134/1/3 135/1/3
f 135/1/3 134/1/3 136/1/3
f 137/3/3 138/3/3 139/3/3
f 139/3/3 138/3/3 140/3/3
f 141/3/3 142/3/3 144/3/3
f 143/3/3 144/3/3 145/3/3
f 144/3/3 142/3/3 146/3/3
f 145/3/3 144/3/3 146/3/3
f 146/3/3 142/3/3 147/3/3
f 148/3/3 149/3/3 151/3/3
f 149/3/3 150/3/3 151/3/3
f 151/3/3 150/3/3 152/3/3
f 153/3/3 154/3/3 155/3/3
f 155/3/3 154/3/3 156/3/3
f 157/2/3 158/2/3 159/2/3
f 159/2/3 158/2/3 160/2/3
f 161/2/3 162/2/3 163/2/3
f 163/2/3 162/2/3 164/2/3
f 165/2/3 166/2/3 168/2/3
f 167/2/3 168/2/3 169/2/3
f 169/2/3 168/2/3 170/2/3
f 170/2/3 168/2/3 171/2/3
f 168/2/3 166/2/3 172/2/3
f 171/2/3 168/2/3 172/2/3
f 173/2/3 174/2/3 176/2/3
f 175/3/3 176/3/3 178/3/3
f 177/3/3 178/3/3 179/3/3
f 176/2/3 174/2/3 180/2/3
f 179/3/3 178/3/3 180/3/3
f 178/3/3 176/3/3 180/3/3
f 180/2/3 174/2/3 181/2/3
f 184/3/4 183/3/4 182/3/4
f 185/3/4 183/3/4 184/3/4
f 188/3/4 187/3/4 186/3/4
f 189/3/4 187/3/4 188/3/4
f 192/2/4 191/2/4 190/2/4
f 193/2/4 191/2/4 192/2/4
f 198/2/4 195/2/4 194/2/4
f 199/2/4 195/2/4 198/2/4
f 200/2/4 197/2/4 196/2/4
f 201/2/4 197/2/4 200/2/4
f 207/2/4 205/2/4 204/2/4
f 208/3/4 207/3/4 206/3/4
f 209/2/4 205/2/4 207/2/4
f 209/3/4 207/3/4 208/3/4
f 210/2/4 205/2/4 209/2/4
f 211/2/4 203/2/4 202/2/4
f 212/2/4 203/2/4 211/2/4
f 215/2/4 214/2/4 213/2/4
f 217/2/4 215/2/4 213/2/4
f 217/2/4 216/2/4 215/2/4
f 218/2/4 216/2/4 217/2/4
f 221/2/4 220/2/4 219/2/4
f 222/2/4 220/2/4 221/2/4
f 223/2/4 220/2/4 222/2/4
f 224/2/4 220/2/4 223/2/4
f 225/1/5 226/1/5 229/1/5
f 229/1/5 226/1/5 230/1/5
f 227/1/5 228/1/5 231/1/5
f 231/1/5 228/1/5 232/1/5
f 233/1/5 234/1/5 235/1/5
f 235/1/5 234/1/5 236/1/5
f 229/3/5 230/3/5 237/3/5
f 231/3/5 232/3/5 238/3/5
f 235/3/5 236/3/5 239/3/5
f 237/3/5 238/3/5 240/3/5
f 229/3/5 237/3/5 240/3/5
f 238/3/5 232/3/5 241/3/5
f 239/3/5 240/3/5 241/3/5
f 240/3/5 238/3/5 241/3/5
f 241/3/5 232/3/5 242/3/5
f 235/3/5 239/3/5 243/3/5
f 239/3/5 241/3/5 243/3/5
f 243/3/5 241/3/5 244/3/5
f 244/3/5 241/3/5 245/3/5
f 244/3/5 245/3/5 247/3/5
f 245/3/5 246/3/5 247/3/5
f 247/3/5 246/3/5 248/3/5
f 249/2/5 250/2/5 251/2/5
f 251/2/5 250/2/5 252/2/5
f 253/2/5 254/2/5 255/2/5
f 255/2/5 254/2/5 256/2/5
f 257/2/5 258/2/5 259/2/5
f 259/2/5 258/2/5 260/2/5
f 261/2/5 262/2/5 263/2/5
f 261/2/5 263/2/5 265/2/5
f 263/2/5 264/2/5 265/2/5
f 265/2/5 264/2/5 266/2/5
f 267/2/5 268/2/5 269/2/5
f 269/2/5 268/2/5 270/2/5
f 271/2/5 272/2/5 273/2/5
f 271/2/5 273/2/5 275/2/5
f 273/2/5 274/2/5 275/2/5
f 275/2/5 274/2/5 276/2/5
f 277/2/5 278/2/5 279/2/5
f 279/2/5 278/2/5 280/2/5
f 285/1/6 282/1/6 281/1/6
f 286/1/6 282/1/6 285/1/6
f 287/1/6 284/1/6 283/1/6
f 288/1/6 284/1/6 287/1/6
f 291/1/6 290/1/6 289/1/6
f 292/1/6 290/1/6 291/1/6
f 299/3/6 294/3/6 293/3/6
f 300/3/6 294/3/6 299/3/6
f 301/3/6 296/3/6 295/3/6
f 302/3/6 298/3/6 297/3/6
f 303/3/6 296/3/6 301/3/6
f 304/3/6 296/3/6 303/3/6
f 305/3/6 296/3/6 304/3/6
f 306/3/6 296/3/6 305/3/6
f 307/3/6 302/3/6 297/3/6
f 308/3/6 302/3/6 307/3/6
f 312/3/6 310/3/6 309/3/6
f 313/3/6 310/3/6 312/3/6
f 315/3/6 312/3/6 311/3/6
f 315/3/6 314/3/6 313/3/6
f 315/3/6 313/3/6 312/3/6
f 316/3/6 314/3/6 315/3/6
f 319/2/6 318/2/6 317/2/6
f 320/2/6 318/2/6 319/2/6
f 323/2/6 322/2/6 321/2/6
f 324/2/6 322/2/6 323/2/6
f 327/2/6 326/2/6 325/2/6
f 328/2/6 326/2/6 327/2/6
f 331/2/6 330/2/6 329/2/6
f 332/2/6 330/2/6 331/2/6
f 335/2/6 334/2/6 333/2/6
f 336/2/6 334/2/6 335/2/6
