# MagicaVoxel @ Ephtracy

# group
o 

# material
mtllib Zeds-0-Zed_1-2.mtl
usemtl palette

# normals
vn -1 0 0
vn 1 0 0
vn 0 0 1
vn 0 0 -1
vn 0 -1 0
vn 0 1 0

# texcoords
vt 0.244141 0.5
vt 0.248047 0.5
vt 0.357422 0.5
vt 0.361328 0.5
vt 0.955078 0.5
vt 0.958984 0.5

# verts
v -1 2 -0.1
v -1 2 -0.4
v -1 2.4 -0.1
v -1 2.4 -0.4
v -0.8 1.4 0.5
v -0.8 1.4 0.4
v -0.8 1.4 0.1
v -0.8 1.4 -0.4
v -0.8 1.6 -0.4
v -0.8 1.6 -0.7
v -0.8 1.8 0.4
v -0.8 1.8 0.1
v -0.8 2 0.7
v -0.8 2 0.5
v -0.8 2 0.3
v -0.8 2 0.1
v -0.8 2 -0.1
v -0.8 2 -0.4
v -0.8 2.2 0.4
v -0.8 2.2 0.3
v -0.8 2.3 0.8
v -0.8 2.3 0.7
v -0.8 2.3 0.5
v -0.8 2.4 0.5
v -0.8 2.4 0.4
v -0.8 2.4 -0.1
v -0.8 2.4 -0.4
v -0.8 2.6 0.4
v -0.8 2.6 0.1
v -0.8 2.7 0.8
v -0.8 2.7 0.7
v -0.8 2.7 0.5
v -0.8 2.8 0.5
v -0.8 2.8 0.4
v -0.8 3.2 0.7
v -0.8 3.2 -0.7
v -0.6 2.2 0.8
v -0.6 2.2 0.7
v -0.6 2.3 0.8
v -0.6 2.3 0.7
v -0.6 3.2 0.6
v -0.6 3.2 -0.6
v -0.6 3.3 0.6
v -0.6 3.3 -0.6
v -0.5 1.2 0.7
v -0.5 1.2 -0.7
v -0.5 1.3 0.7
v -0.5 1.3 0.6
v -0.5 1.3 0.5
v -0.5 1.4 0.5
v -0.5 1.4 0.4
v -0.5 1.4 0.1
v -0.5 1.4 -0.4
v -0.5 1.4 -0.7
v -0.5 1.4 -0.9
v -0.5 1.5 0.7
v -0.5 1.5 0.6
v -0.5 1.5 0.5
v -0.5 1.6 -0.4
v -0.5 1.6 -0.7
v -0.5 1.7 0.7
v -0.5 1.7 0.6
v -0.5 2 0.7
v -0.5 2 0.6
v -0.5 2 0.5
v -0.5 3.1 -0.7
v -0.5 3.1 -0.9
v 0.4 2.2 0.8
v 0.4 2.2 0.7
v 0.4 2.5 0.8
v 0.4 2.5 0.7
v 0.5 2.5 0.8
v 0.5 2.5 0.7
v 0.5 2.6 0.8
v 0.5 2.6 0.7
v 0.7 2.6 0.8
v 0.7 2.6 0.7
v 0.7 2.7 0.8
v 0.7 2.7 0.7
v -0.6 2.6 0.8
v -0.6 2.6 0.7
v -0.6 2.7 0.8
v -0.6 2.7 0.7
v -0.4 2.5 0.8
v -0.4 2.5 0.7
v -0.4 2.6 0.8
v -0.4 2.6 0.7
v -0.3 2.2 0.8
v -0.3 2.2 0.7
v -0.3 2.4 0.7
v -0.3 2.5 0.8
v -0.3 2.5 0.7
v 0.6 1.2 0.7
v 0.6 1.2 -0.7
v 0.6 1.3 0.7
v 0.6 1.3 0.6
v 0.6 1.3 0.5
v 0.6 1.4 0.5
v 0.6 1.4 0.1
v 0.6 1.4 -0.4
v 0.6 1.4 -0.7
v 0.6 1.4 -0.9
v 0.6 1.5 0.7
v 0.6 1.5 0.6
v 0.6 1.5 0.5
v 0.6 1.6 -0.4
v 0.6 1.6 -0.7
v 0.6 1.7 0.7
v 0.6 1.7 0.6
v 0.6 2 0.7
v 0.6 2 0.6
v 0.6 2 0.5
v 0.6 3.1 -0.7
v 0.6 3.1 -0.9
v 0.7 2.2 0.8
v 0.7 2.2 0.7
v 0.7 2.3 0.8
v 0.7 2.3 0.7
v 0.7 3.2 0.6
v 0.7 3.2 0
v 0.7 3.2 -0.1
v 0.7 3.2 -0.6
v 0.7 3.3 0.6
v 0.7 3.3 -0.6
v 0.8 2.8 0.7
v 0.8 2.8 0.5
v 0.8 2.8 0.4
v 0.8 2.8 0.1
v 0.8 2.9 0.7
v 0.8 2.9 0.2
v 0.8 3 0.2
v 0.8 3 0.1
v 0.8 3 -0.1
v 0.8 3.1 0.1
v 0.8 3.1 0
v 0.8 3.2 0.7
v 0.8 3.2 0
v 0.8 3.2 -0.1
v 0.9 1.4 0.5
v 0.9 1.4 0.1
v 0.9 1.4 -0.4
v 0.9 1.6 -0.4
v 0.9 1.6 -0.7
v 0.9 1.8 0.5
v 0.9 1.8 0.1
v 0.9 2 0.7
v 0.9 2 0.5
v 0.9 2 -0.1
v 0.9 2 -0.4
v 0.9 2.2 -0.1
v 0.9 2.2 -0.4
v 0.9 2.3 0.8
v 0.9 2.3 0.7
v 0.9 2.3 0.5
v 0.9 2.4 0.5
v 0.9 2.4 0.4
v 0.9 2.4 -0.1
v 0.9 2.4 -0.4
v 0.9 2.7 0.8
v 0.9 2.7 0.7
v 0.9 2.7 0.5
v 0.9 2.8 0.7
v 0.9 2.8 0.5
v 0.9 2.8 0.4
v 0.9 2.8 0.1
v 0.9 3 0.1
v 0.9 3 -0.1
v 0.9 3.2 -0.1
v 0.9 3.2 -0.7
v 1.1 2 -0.1
v 1.1 2 -0.4
v 1.1 2.2 -0.1
v 1.1 2.2 -0.4
v 1.1 2.4 -0.1
v 1.1 2.4 -0.4
v -0.8 2.3 0.8
v -0.8 2.7 0.8
v -0.6 2.2 0.8
v -0.6 2.3 0.8
v -0.6 2.6 0.8
v -0.6 2.7 0.8
v -0.4 2.5 0.8
v -0.4 2.6 0.8
v -0.3 2.2 0.8
v -0.3 2.5 0.8
v 0.4 2.2 0.8
v 0.4 2.5 0.8
v 0.5 2.5 0.8
v 0.5 2.6 0.8
v 0.7 2.2 0.8
v 0.7 2.3 0.8
v 0.7 2.6 0.8
v 0.7 2.7 0.8
v 0.9 2.3 0.8
v 0.9 2.7 0.8
v -0.8 2 0.7
v -0.8 2.3 0.7
v -0.8 2.7 0.7
v -0.8 3.2 0.7
v -0.7 2.7 0.7
v -0.7 2.8 0.7
v -0.6 2.2 0.7
v -0.6 2.3 0.7
v -0.6 2.6 0.7
v -0.6 2.7 0.7
v -0.5 1.2 0.7
v -0.5 1.3 0.7
v -0.5 1.5 0.7
v -0.5 1.7 0.7
v -0.5 2 0.7
v -0.5 2.6 0.7
v -0.5 2.8 0.7
v -0.4 1.3 0.7
v -0.4 1.5 0.7
v -0.4 1.7 0.7
v -0.4 1.9 0.7
v -0.4 2 0.7
v -0.4 2.5 0.7
v -0.4 2.6 0.7
v -0.3 1.3 0.7
v -0.3 1.4 0.7
v -0.3 1.6 0.7
v -0.3 1.8 0.7
v -0.3 1.9 0.7
v -0.3 2.2 0.7
v -0.3 2.4 0.7
v -0.3 2.5 0.7
v -0.2 1.3 0.7
v -0.2 1.4 0.7
v -0.2 1.6 0.7
v -0.2 1.8 0.7
v -0.2 2.2 0.7
v -0.2 2.4 0.7
v -0.2 2.6 0.7
v -0.1 1.3 0.7
v -0.1 1.5 0.7
v -0.1 1.6 0.7
v -0.1 1.8 0.7
v 0 1.3 0.7
v 0 1.5 0.7
v 0 1.6 0.7
v 0 1.8 0.7
v 0.1 1.3 0.7
v 0.1 1.5 0.7
v 0.1 1.6 0.7
v 0.1 1.8 0.7
v 0.1 2.4 0.7
v 0.1 2.6 0.7
v 0.2 1.2 0.7
v 0.2 1.3 0.7
v 0.2 1.5 0.7
v 0.2 1.6 0.7
v 0.2 1.8 0.7
v 0.2 3 0.7
v 0.2 3.2 0.7
v 0.3 1.3 0.7
v 0.3 1.4 0.7
v 0.3 1.6 0.7
v 0.3 1.8 0.7
v 0.3 2.8 0.7
v 0.3 3 0.7
v 0.3 3.2 0.7
v 0.4 1.2 0.7
v 0.4 1.3 0.7
v 0.4 1.4 0.7
v 0.4 1.6 0.7
v 0.4 1.8 0.7
v 0.4 1.9 0.7
v 0.4 2.2 0.7
v 0.4 2.5 0.7
v 0.4 2.6 0.7
v 0.4 2.8 0.7
v 0.4 2.9 0.7
v 0.4 3 0.7
v 0.5 1.3 0.7
v 0.5 1.5 0.7
v 0.5 1.7 0.7
v 0.5 1.9 0.7
v 0.5 2 0.7
v 0.5 2.5 0.7
v 0.5 2.6 0.7
v 0.5 2.7 0.7
v 0.6 1.2 0.7
v 0.6 1.3 0.7
v 0.6 1.5 0.7
v 0.6 1.7 0.7
v 0.6 2 0.7
v 0.7 2.2 0.7
v 0.7 2.3 0.7
v 0.7 2.6 0.7
v 0.7 2.7 0.7
v 0.7 2.8 0.7
v 0.8 2.8 0.7
v 0.8 2.9 0.7
v 0.8 3.2 0.7
v 0.9 2 0.7
v 0.9 2.3 0.7
v 0.9 2.7 0.7
v 0.9 2.8 0.7
v -0.6 3.2 0.6
v -0.6 3.3 0.6
v 0.2 3.2 0.6
v 0.3 3.2 0.6
v 0.7 3.2 0.6
v 0.7 3.3 0.6
v -0.8 1.4 0.5
v -0.8 2 0.5
v -0.7 1.7 0.5
v -0.7 2 0.5
v -0.6 1.5 0.5
v -0.6 1.7 0.5
v -0.5 1.4 0.5
v -0.5 1.5 0.5
v -0.5 2 0.5
v 0.6 1.4 0.5
v 0.6 1.5 0.5
v 0.6 2 0.5
v 0.7 1.5 0.5
v 0.7 1.6 0.5
v 0.8 1.6 0.5
v 0.8 1.8 0.5
v 0.8 2 0.5
v 0.9 1.4 0.5
v 0.9 1.8 0.5
v 0.9 2 0.5
v 0.8 2.8 0.1
v 0.8 3 0.1
v 0.9 2.8 0.1
v 0.9 3 0.1
v -1 2 -0.1
v -1 2.4 -0.1
v -0.8 2 -0.1
v -0.8 2.4 -0.1
v 0.8 3 -0.1
v 0.8 3.2 -0.1
v 0.9 2 -0.1
v 0.9 2.2 -0.1
v 0.9 2.4 -0.1
v 0.9 3 -0.1
v 0.9 3.2 -0.1
v 1.1 2 -0.1
v 1.1 2.2 -0.1
v 1.1 2.4 -0.1
v -1 2 -0.4
v -1 2.4 -0.4
v -0.8 1.4 -0.4
v -0.8 1.6 -0.4
v -0.8 2 -0.4
v -0.8 2.4 -0.4
v -0.5 1.4 -0.4
v -0.5 1.6 -0.4
v 0.6 1.4 -0.4
v 0.6 1.6 -0.4
v 0.9 1.4 -0.4
v 0.9 1.6 -0.4
v 0.9 2 -0.4
v 0.9 2.2 -0.4
v 0.9 2.4 -0.4
v 1.1 2 -0.4
v 1.1 2.2 -0.4
v 1.1 2.4 -0.4
v -0.6 3.2 -0.6
v -0.6 3.3 -0.6
v 0.7 3.2 -0.6
v 0.7 3.3 -0.6
v -0.8 1.6 -0.7
v -0.8 3.2 -0.7
v -0.5 1.2 -0.7
v -0.5 1.4 -0.7
v -0.5 1.6 -0.7
v -0.5 3.1 -0.7
v 0.6 1.2 -0.7
v 0.6 1.4 -0.7
v 0.6 1.6 -0.7
v 0.6 3.1 -0.7
v 0.9 1.6 -0.7
v 0.9 3.2 -0.7
v -0.5 1.4 -0.9
v -0.5 3.1 -0.9
v 0.6 1.4 -0.9
v 0.6 3.1 -0.9
v -0.5 1.2 0.7
v 0.2 1.2 0.7
v 0.4 1.2 0.7
v 0.6 1.2 0.7
v -0.4 1.2 0.6
v 0.2 1.2 0.6
v 0.4 1.2 0.6
v 0.5 1.2 0.6
v 0.2 1.2 0.2
v 0.4 1.2 0.2
v -0.4 1.2 0.1
v -0.2 1.2 0.1
v -0.2 1.2 -0.6
v 0.5 1.2 -0.6
v -0.5 1.2 -0.7
v 0.6 1.2 -0.7
v -0.8 1.4 0.5
v -0.5 1.4 0.5
v 0.6 1.4 0.5
v 0.9 1.4 0.5
v -0.8 1.4 0.4
v -0.5 1.4 0.4
v -0.8 1.4 0.1
v -0.5 1.4 0.1
v 0.6 1.4 0.1
v 0.9 1.4 0.1
v -0.8 1.4 -0.4
v -0.5 1.4 -0.4
v 0.6 1.4 -0.4
v 0.9 1.4 -0.4
v -0.5 1.4 -0.7
v 0.6 1.4 -0.7
v -0.5 1.4 -0.9
v 0.6 1.4 -0.9
v -0.8 1.6 -0.4
v -0.5 1.6 -0.4
v 0.6 1.6 -0.4
v 0.9 1.6 -0.4
v -0.8 1.6 -0.7
v -0.5 1.6 -0.7
v 0.6 1.6 -0.7
v 0.9 1.6 -0.7
v -0.8 2 0.7
v -0.5 2 0.7
v 0.6 2 0.7
v 0.9 2 0.7
v -0.5 2 0.6
v 0.6 2 0.6
v -0.8 2 0.5
v -0.7 2 0.5
v -0.5 2 0.5
v 0.6 2 0.5
v 0.8 2 0.5
v 0.9 2 0.5
v -1 2 -0.1
v -0.8 2 -0.1
v 0.9 2 -0.1
v 1.1 2 -0.1
v -1 2 -0.4
v -0.8 2 -0.4
v 0.9 2 -0.4
v 1.1 2 -0.4
v -0.6 2.2 0.8
v -0.3 2.2 0.8
v 0.4 2.2 0.8
v 0.7 2.2 0.8
v -0.6 2.2 0.7
v -0.3 2.2 0.7
v 0.4 2.2 0.7
v 0.7 2.2 0.7
v -0.8 2.3 0.8
v -0.6 2.3 0.8
v 0.7 2.3 0.8
v 0.9 2.3 0.8
v -0.8 2.3 0.7
v -0.6 2.3 0.7
v 0.7 2.3 0.7
v 0.9 2.3 0.7
v -1 2.4 -0.1
v -0.8 2.4 -0.1
v 0.9 2.4 -0.1
v 1.1 2.4 -0.1
v -1 2.4 -0.4
v -0.8 2.4 -0.4
v 0.9 2.4 -0.4
v 1.1 2.4 -0.4
v -0.4 2.5 0.8
v -0.3 2.5 0.8
v 0.4 2.5 0.8
v 0.5 2.5 0.8
v -0.4 2.5 0.7
v -0.3 2.5 0.7
v 0.4 2.5 0.7
v 0.5 2.5 0.7
v -0.6 2.6 0.8
v -0.4 2.6 0.8
v 0.5 2.6 0.8
v 0.7 2.6 0.8
v -0.6 2.6 0.7
v -0.5 2.6 0.7
v -0.4 2.6 0.7
v 0.5 2.6 0.7
v 0.7 2.6 0.7
v -0.8 2.7 0.8
v -0.6 2.7 0.8
v 0.7 2.7 0.8
v 0.9 2.7 0.8
v -0.8 2.7 0.7
v -0.7 2.7 0.7
v -0.6 2.7 0.7
v 0.7 2.7 0.7
v 0.9 2.7 0.7
v 0.8 2.8 0.7
v 0.9 2.8 0.7
v 0.8 2.8 0.5
v 0.9 2.8 0.5
v 0.8 2.8 0.4
v 0.9 2.8 0.4
v 0.8 2.8 0.1
v 0.9 2.8 0.1
v 0.8 3 0.1
v 0.9 3 0.1
v 0.8 3 -0.1
v 0.9 3 -0.1
v -0.5 3.1 -0.7
v 0.6 3.1 -0.7
v -0.5 3.1 -0.9
v 0.6 3.1 -0.9
v -0.8 3.2 0.7
v 0.2 3.2 0.7
v 0.3 3.2 0.7
v 0.8 3.2 0.7
v -0.6 3.2 0.6
v 0.2 3.2 0.6
v 0.3 3.2 0.6
v 0.7 3.2 0.6
v 0.7 3.2 0
v 0.8 3.2 0
v 0.7 3.2 -0.1
v 0.8 3.2 -0.1
v 0.9 3.2 -0.1
v -0.6 3.2 -0.6
v 0.7 3.2 -0.6
v -0.8 3.2 -0.7
v 0.9 3.2 -0.7
v -0.6 3.3 0.6
v 0.7 3.3 0.6
v -0.6 3.3 -0.6
v 0.7 3.3 -0.6

# faces
f 3/3/1 2/3/1 1/3/1
f 4/3/1 2/3/1 3/3/1
f 9/3/1 8/3/1 7/3/1
f 11/3/1 6/3/1 5/3/1
f 11/4/1 7/4/1 6/4/1
f 12/3/1 10/3/1 9/3/1
f 12/4/1 7/4/1 11/4/1
f 12/3/1 9/3/1 7/3/1
f 14/3/1 11/3/1 5/3/1
f 14/3/1 12/3/1 11/3/1
f 15/3/1 12/3/1 14/3/1
f 16/3/1 10/3/1 12/3/1
f 16/3/1 12/3/1 15/3/1
f 17/3/1 10/3/1 16/3/1
f 18/3/1 10/3/1 17/3/1
f 19/3/1 15/3/1 14/3/1
f 19/3/1 14/3/1 13/3/1
f 20/4/1 16/4/1 15/4/1
f 20/3/1 15/3/1 19/3/1
f 22/3/1 19/3/1 13/3/1
f 23/3/1 19/3/1 22/3/1
f 24/2/1 22/2/1 21/2/1
f 24/3/1 19/3/1 23/3/1
f 24/2/1 23/2/1 22/2/1
f 25/4/1 20/4/1 19/4/1
f 25/3/1 19/3/1 24/3/1
f 26/3/1 17/3/1 16/3/1
f 27/3/1 10/3/1 18/3/1
f 28/4/1 20/4/1 25/4/1
f 28/2/1 25/2/1 24/2/1
f 29/3/1 26/3/1 16/3/1
f 29/4/1 20/4/1 28/4/1
f 29/3/1 27/3/1 26/3/1
f 29/4/1 16/4/1 20/4/1
f 30/2/1 28/2/1 24/2/1
f 30/2/1 24/2/1 21/2/1
f 31/2/1 28/2/1 30/2/1
f 32/2/1 28/2/1 31/2/1
f 33/2/1 28/2/1 32/2/1
f 33/3/1 32/3/1 31/3/1
f 34/3/1 29/3/1 28/3/1
f 34/2/1 28/2/1 33/2/1
f 35/3/1 33/3/1 31/3/1
f 35/3/1 34/3/1 33/3/1
f 36/3/1 27/3/1 29/3/1
f 36/3/1 34/3/1 35/3/1
f 36/3/1 10/3/1 27/3/1
f 36/3/1 29/3/1 34/3/1
f 39/2/1 38/2/1 37/2/1
f 40/2/1 38/2/1 39/2/1
f 43/3/1 42/3/1 41/3/1
f 44/3/1 42/3/1 43/3/1
f 47/3/1 46/3/1 45/3/1
f 48/3/1 46/3/1 47/3/1
f 49/3/1 46/3/1 48/3/1
f 50/5/1 49/5/1 48/5/1
f 50/3/1 46/3/1 49/3/1
f 51/3/1 46/3/1 50/3/1
f 52/3/1 46/3/1 51/3/1
f 53/3/1 46/3/1 52/3/1
f 54/3/1 46/3/1 53/3/1
f 56/1/1 48/1/1 47/1/1
f 57/5/1 50/5/1 48/5/1
f 57/1/1 48/1/1 56/1/1
f 58/5/1 50/5/1 57/5/1
f 59/3/1 55/3/1 54/3/1
f 59/3/1 54/3/1 53/3/1
f 60/3/1 55/3/1 59/3/1
f 61/5/1 58/5/1 57/5/1
f 61/5/1 57/5/1 56/5/1
f 62/5/1 58/5/1 61/5/1
f 63/1/1 62/1/1 61/1/1
f 64/5/1 58/5/1 62/5/1
f 64/1/1 62/1/1 63/1/1
f 65/5/1 58/5/1 64/5/1
f 66/3/1 55/3/1 60/3/1
f 67/3/1 55/3/1 66/3/1
f 70/2/1 69/2/1 68/2/1
f 71/2/1 69/2/1 70/2/1
f 74/2/1 73/2/1 72/2/1
f 75/2/1 73/2/1 74/2/1
f 78/2/1 77/2/1 76/2/1
f 79/2/1 77/2/1 78/2/1
f 80/2/2 81/2/2 82/2/2
f 82/2/2 81/2/2 83/2/2
f 84/2/2 85/2/2 86/2/2
f 86/2/2 85/2/2 87/2/2
f 88/2/2 89/2/2 90/2/2
f 88/2/2 90/2/2 91/2/2
f 91/2/2 90/2/2 92/2/2
f 93/3/2 94/3/2 95/3/2
f 95/3/2 94/3/2 96/3/2
f 96/3/2 94/3/2 97/3/2
f 96/5/2 97/5/2 98/5/2
f 97/3/2 94/3/2 98/3/2
f 98/3/2 94/3/2 99/3/2
f 99/3/2 94/3/2 100/3/2
f 100/3/2 94/3/2 101/3/2
f 95/1/2 96/1/2 103/1/2
f 96/5/2 98/5/2 104/5/2
f 103/1/2 96/1/2 104/1/2
f 104/5/2 98/5/2 105/5/2
f 101/3/2 102/3/2 106/3/2
f 100/3/2 101/3/2 106/3/2
f 106/3/2 102/3/2 107/3/2
f 104/5/2 105/5/2 108/5/2
f 103/5/2 104/5/2 108/5/2
f 108/5/2 105/5/2 109/5/2
f 108/1/2 109/1/2 110/1/2
f 109/5/2 105/5/2 111/5/2
f 110/1/2 109/1/2 111/1/2
f 111/5/2 105/5/2 112/5/2
f 107/3/2 102/3/2 113/3/2
f 113/3/2 102/3/2 114/3/2
f 115/2/2 116/2/2 117/2/2
f 117/2/2 116/2/2 118/2/2
f 119/3/2 120/3/2 123/3/2
f 121/3/2 122/3/2 123/3/2
f 120/3/2 121/3/2 123/3/2
f 123/3/2 122/3/2 124/3/2
f 125/5/2 126/5/2 129/5/2
f 127/5/2 128/5/2 129/5/2
f 126/5/2 127/5/2 129/5/2
f 129/5/2 128/5/2 130/5/2
f 129/6/2 130/6/2 131/6/2
f 130/5/2 128/5/2 131/5/2
f 131/5/2 128/5/2 132/5/2
f 131/6/2 132/6/2 134/6/2
f 132/5/2 133/5/2 134/5/2
f 134/5/2 133/5/2 135/5/2
f 129/6/2 131/6/2 136/6/2
f 131/6/2 134/6/2 136/6/2
f 134/6/2 135/6/2 136/6/2
f 135/5/2 133/5/2 137/5/2
f 136/6/2 135/6/2 137/6/2
f 137/5/2 133/5/2 138/5/2
f 140/3/2 141/3/2 142/3/2
f 139/4/2 140/4/2 144/4/2
f 142/3/2 143/3/2 145/3/2
f 144/4/2 140/4/2 145/4/2
f 140/3/2 142/3/2 145/3/2
f 144/3/2 145/3/2 147/3/2
f 145/3/2 143/3/2 148/3/2
f 147/3/2 145/3/2 148/3/2
f 148/3/2 143/3/2 149/3/2
f 146/3/2 147/3/2 150/3/2
f 147/3/2 148/3/2 150/3/2
f 149/3/2 143/3/2 151/3/2
f 146/3/2 150/3/2 153/3/2
f 153/3/2 150/3/2 154/3/2
f 152/2/2 153/2/2 155/2/2
f 154/3/2 150/3/2 155/3/2
f 153/2/2 154/2/2 155/2/2
f 155/3/2 150/3/2 156/3/2
f 156/3/2 150/3/2 157/3/2
f 151/3/2 143/3/2 158/3/2
f 152/2/2 155/2/2 159/2/2
f 155/2/2 156/2/2 159/2/2
f 159/2/2 156/2/2 160/2/2
f 160/2/2 156/2/2 161/2/2
f 160/3/2 161/3/2 162/3/2
f 161/2/2 156/2/2 163/2/2
f 162/3/2 161/3/2 163/3/2
f 156/3/2 157/3/2 164/3/2
f 163/2/2 156/2/2 164/2/2
f 157/3/2 158/3/2 164/3/2
f 164/3/2 158/3/2 165/3/2
f 165/3/2 158/3/2 166/3/2
f 166/3/2 158/3/2 167/3/2
f 167/3/2 158/3/2 168/3/2
f 158/3/2 143/3/2 169/3/2
f 168/3/2 158/3/2 169/3/2
f 170/4/2 171/4/2 172/4/2
f 172/4/2 171/4/2 173/4/2
f 172/3/2 173/3/2 174/3/2
f 174/3/2 173/3/2 175/3/2
f 179/2/3 177/2/3 176/2/3
f 180/2/3 177/2/3 179/2/3
f 181/2/3 177/2/3 180/2/3
f 182/2/3 179/2/3 178/2/3
f 182/2/3 180/2/3 179/2/3
f 183/2/3 180/2/3 182/2/3
f 184/2/3 182/2/3 178/2/3
f 185/2/3 182/2/3 184/2/3
f 188/2/3 187/2/3 186/2/3
f 190/2/3 188/2/3 186/2/3
f 190/2/3 189/2/3 188/2/3
f 191/2/3 189/2/3 190/2/3
f 192/2/3 189/2/3 191/2/3
f 194/2/3 192/2/3 191/2/3
f 194/2/3 193/2/3 192/2/3
f 195/2/3 193/2/3 194/2/3
f 200/3/3 199/3/3 198/3/3
f 201/3/3 199/3/3 200/3/3
f 202/3/3 197/3/3 196/3/3
f 203/3/3 197/3/3 202/3/3
f 205/4/3 201/4/3 200/4/3
f 210/3/3 202/3/3 196/3/3
f 211/4/3 205/4/3 204/4/3
f 212/3/3 199/3/3 201/3/3
f 212/4/3 205/4/3 211/4/3
f 212/4/3 201/4/3 205/4/3
f 213/3/3 207/3/3 206/3/3
f 213/1/3 208/1/3 207/1/3
f 214/5/3 209/5/3 208/5/3
f 214/1/3 208/1/3 213/1/3
f 215/1/3 210/1/3 209/1/3
f 215/5/3 209/5/3 214/5/3
f 216/1/3 210/1/3 215/1/3
f 217/3/3 202/3/3 210/3/3
f 217/1/3 210/1/3 216/1/3
f 219/3/3 212/3/3 211/3/3
f 220/5/3 214/5/3 213/5/3
f 220/3/3 213/3/3 206/3/3
f 220/5/3 216/5/3 215/5/3
f 220/5/3 215/5/3 214/5/3
f 221/5/3 216/5/3 220/5/3
f 222/5/3 216/5/3 221/5/3
f 223/5/3 216/5/3 222/5/3
f 224/3/3 217/3/3 216/3/3
f 224/5/3 216/5/3 223/5/3
f 225/3/3 202/3/3 217/3/3
f 225/3/3 217/3/3 224/3/3
f 227/3/3 219/3/3 218/3/3
f 228/3/3 220/3/3 206/3/3
f 228/1/3 221/1/3 220/1/3
f 229/5/3 222/5/3 221/5/3
f 229/1/3 221/1/3 228/1/3
f 230/1/3 223/1/3 222/1/3
f 230/5/3 222/5/3 229/5/3
f 231/3/3 224/3/3 223/3/3
f 231/1/3 223/1/3 230/1/3
f 231/3/3 225/3/3 224/3/3
f 232/4/3 226/4/3 225/4/3
f 232/3/3 225/3/3 231/3/3
f 233/3/3 227/3/3 226/3/3
f 233/4/3 226/4/3 232/4/3
f 234/3/3 212/3/3 219/3/3
f 234/3/3 227/3/3 233/3/3
f 234/3/3 219/3/3 227/3/3
f 235/5/3 231/5/3 230/5/3
f 235/5/3 230/5/3 229/5/3
f 235/5/3 229/5/3 228/5/3
f 235/3/3 228/3/3 206/3/3
f 236/5/3 231/5/3 235/5/3
f 237/5/3 231/5/3 236/5/3
f 238/3/3 233/3/3 232/3/3
f 238/5/3 231/5/3 237/5/3
f 238/3/3 232/3/3 231/3/3
f 239/1/3 236/1/3 235/1/3
f 239/3/3 235/3/3 206/3/3
f 240/5/3 237/5/3 236/5/3
f 240/1/3 236/1/3 239/1/3
f 241/1/3 238/1/3 237/1/3
f 241/5/3 237/5/3 240/5/3
f 242/3/3 233/3/3 238/3/3
f 242/1/3 238/1/3 241/1/3
f 243/3/3 239/3/3 206/3/3
f 243/5/3 241/5/3 240/5/3
f 243/5/3 242/5/3 241/5/3
f 243/5/3 240/5/3 239/5/3
f 244/5/3 242/5/3 243/5/3
f 245/5/3 242/5/3 244/5/3
f 246/3/3 233/3/3 242/3/3
f 246/5/3 242/5/3 245/5/3
f 247/4/3 234/4/3 233/4/3
f 247/3/3 233/3/3 246/3/3
f 248/3/3 212/3/3 234/3/3
f 248/4/3 234/4/3 247/4/3
f 249/3/3 243/3/3 206/3/3
f 250/1/3 244/1/3 243/1/3
f 250/3/3 243/3/3 249/3/3
f 251/5/3 245/5/3 244/5/3
f 251/1/3 244/1/3 250/1/3
f 252/1/3 246/1/3 245/1/3
f 252/5/3 245/5/3 251/5/3
f 253/3/3 247/3/3 246/3/3
f 253/1/3 246/1/3 252/1/3
f 253/3/3 248/3/3 247/3/3
f 254/3/3 199/3/3 212/3/3
f 254/3/3 248/3/3 253/3/3
f 254/3/3 212/3/3 248/3/3
f 255/3/3 199/3/3 254/3/3
f 256/5/3 252/5/3 251/5/3
f 256/5/3 250/5/3 249/5/3
f 256/5/3 253/5/3 252/5/3
f 256/5/3 251/5/3 250/5/3
f 257/5/3 253/5/3 256/5/3
f 258/5/3 253/5/3 257/5/3
f 259/3/3 254/3/3 253/3/3
f 259/5/3 253/5/3 258/5/3
f 260/3/3 254/3/3 259/3/3
f 261/5/3 255/5/3 254/5/3
f 261/3/3 254/3/3 260/3/3
f 262/5/3 255/5/3 261/5/3
f 263/5/3 256/5/3 249/5/3
f 264/1/3 257/1/3 256/1/3
f 264/5/3 256/5/3 263/5/3
f 265/5/3 258/5/3 257/5/3
f 265/1/3 257/1/3 264/1/3
f 266/1/3 259/1/3 258/1/3
f 266/5/3 258/5/3 265/5/3
f 267/3/3 260/3/3 259/3/3
f 267/1/3 259/1/3 266/1/3
f 268/3/3 260/3/3 267/3/3
f 269/3/3 260/3/3 268/3/3
f 270/3/3 260/3/3 269/3/3
f 271/3/3 260/3/3 270/3/3
f 272/5/3 261/5/3 260/5/3
f 272/3/3 260/3/3 271/3/3
f 273/5/3 261/5/3 272/5/3
f 274/6/3 262/6/3 261/6/3
f 274/5/3 261/5/3 273/5/3
f 275/5/3 266/5/3 265/5/3
f 275/3/3 264/3/3 263/3/3
f 275/5/3 265/5/3 264/5/3
f 275/5/3 267/5/3 266/5/3
f 275/5/3 268/5/3 267/5/3
f 276/5/3 268/5/3 275/5/3
f 277/5/3 268/5/3 276/5/3
f 278/3/3 269/3/3 268/3/3
f 278/5/3 268/5/3 277/5/3
f 279/3/3 269/3/3 278/3/3
f 280/3/3 271/3/3 270/3/3
f 281/4/3 272/4/3 271/4/3
f 281/3/3 271/3/3 280/3/3
f 282/4/3 272/4/3 281/4/3
f 283/3/3 275/3/3 263/3/3
f 284/1/3 276/1/3 275/1/3
f 284/3/3 275/3/3 283/3/3
f 285/5/3 277/5/3 276/5/3
f 285/1/3 276/1/3 284/1/3
f 286/1/3 278/1/3 277/1/3
f 286/5/3 277/5/3 285/5/3
f 286/1/3 279/1/3 278/1/3
f 287/3/3 269/3/3 279/3/3
f 287/1/3 279/1/3 286/1/3
f 288/3/3 269/3/3 287/3/3
f 290/3/3 282/3/3 281/3/3
f 291/4/3 272/4/3 282/4/3
f 291/3/3 282/3/3 290/3/3
f 292/5/3 273/5/3 272/5/3
f 292/4/3 272/4/3 291/4/3
f 293/5/3 273/5/3 292/5/3
f 293/3/3 292/3/3 291/3/3
f 294/6/3 274/6/3 273/6/3
f 294/5/3 273/5/3 293/5/3
f 295/6/3 262/6/3 274/6/3
f 295/6/3 274/6/3 294/6/3
f 296/3/3 289/3/3 288/3/3
f 296/3/3 288/3/3 287/3/3
f 297/3/3 289/3/3 296/3/3
f 298/3/3 293/3/3 291/3/3
f 299/3/3 293/3/3 298/3/3
f 302/3/3 301/3/3 300/3/3
f 303/3/3 301/3/3 302/3/3
f 304/3/3 301/3/3 303/3/3
f 305/3/3 301/3/3 304/3/3
f 308/3/3 307/3/3 306/3/3
f 309/3/3 307/3/3 308/3/3
f 310/3/3 308/3/3 306/3/3
f 311/5/3 309/5/3 308/5/3
f 311/3/3 308/3/3 310/3/3
f 312/3/3 310/3/3 306/3/3
f 313/5/3 311/5/3 310/5/3
f 313/3/3 310/3/3 312/3/3
f 314/5/3 309/5/3 311/5/3
f 314/5/3 311/5/3 313/5/3
f 318/4/3 316/4/3 315/4/3
f 318/5/3 317/5/3 316/5/3
f 319/5/3 317/5/3 318/5/3
f 320/4/3 319/4/3 318/4/3
f 320/5/3 317/5/3 319/5/3
f 321/5/3 317/5/3 320/5/3
f 322/5/3 317/5/3 321/5/3
f 323/4/3 318/4/3 315/4/3
f 323/4/3 320/4/3 318/4/3
f 323/4/3 321/4/3 320/4/3
f 324/3/3 322/3/3 321/3/3
f 324/4/3 321/4/3 323/4/3
f 325/3/3 322/3/3 324/3/3
f 328/3/3 327/3/3 326/3/3
f 329/3/3 327/3/3 328/3/3
f 332/3/3 331/3/3 330/3/3
f 333/3/3 331/3/3 332/3/3
f 339/3/3 335/3/3 334/3/3
f 340/3/3 335/3/3 339/3/3
f 341/4/3 337/4/3 336/4/3
f 342/3/3 338/3/3 337/3/3
f 342/4/3 337/4/3 341/4/3
f 343/3/3 338/3/3 342/3/3
f 344/3/4 345/3/4 348/3/4
f 348/3/4 345/3/4 349/3/4
f 346/3/4 347/3/4 350/3/4
f 350/3/4 347/3/4 351/3/4
f 352/3/4 353/3/4 354/3/4
f 354/3/4 353/3/4 355/3/4
f 356/4/4 357/4/4 359/4/4
f 357/3/4 358/3/4 360/3/4
f 359/4/4 357/4/4 360/4/4
f 360/3/4 358/3/4 361/3/4
f 362/3/4 363/3/4 364/3/4
f 364/3/4 363/3/4 365/3/4
f 366/3/4 367/3/4 370/3/4
f 370/3/4 367/3/4 371/3/4
f 368/3/4 369/3/4 372/3/4
f 372/3/4 369/3/4 373/3/4
f 371/3/4 367/3/4 375/3/4
f 374/3/4 375/3/4 376/3/4
f 375/3/4 367/3/4 377/3/4
f 376/3/4 375/3/4 377/3/4
f 378/3/4 379/3/4 380/3/4
f 380/3/4 379/3/4 381/3/4
f 386/3/5 383/3/5 382/3/5
f 387/5/5 384/5/5 383/5/5
f 387/3/5 383/3/5 386/3/5
f 388/3/5 385/3/5 384/3/5
f 388/5/5 384/5/5 387/5/5
f 389/3/5 385/3/5 388/3/5
f 390/4/5 387/4/5 386/4/5
f 390/5/5 388/5/5 387/5/5
f 391/4/5 389/4/5 388/4/5
f 391/5/5 388/5/5 390/5/5
f 392/3/5 386/3/5 382/3/5
f 392/4/5 390/4/5 386/4/5
f 392/4/5 391/4/5 390/4/5
f 393/4/5 391/4/5 392/4/5
f 394/3/5 393/3/5 392/3/5
f 394/4/5 391/4/5 393/4/5
f 395/3/5 385/3/5 389/3/5
f 395/4/5 391/4/5 394/4/5
f 395/4/5 389/4/5 391/4/5
f 396/3/5 394/3/5 392/3/5
f 396/3/5 392/3/5 382/3/5
f 396/3/5 395/3/5 394/3/5
f 397/3/5 385/3/5 395/3/5
f 397/3/5 395/3/5 396/3/5
f 402/3/5 399/3/5 398/3/5
f 403/3/5 399/3/5 402/3/5
f 404/4/5 403/4/5 402/4/5
f 405/4/5 403/4/5 404/4/5
f 406/4/5 401/4/5 400/4/5
f 407/4/5 401/4/5 406/4/5
f 408/3/5 405/3/5 404/3/5
f 409/3/5 405/3/5 408/3/5
f 410/3/5 407/3/5 406/3/5
f 411/3/5 407/3/5 410/3/5
f 414/3/5 413/3/5 412/3/5
f 415/3/5 413/3/5 414/3/5
f 420/3/5 417/3/5 416/3/5
f 421/3/5 417/3/5 420/3/5
f 422/3/5 419/3/5 418/3/5
f 423/3/5 419/3/5 422/3/5
f 428/3/5 425/3/5 424/3/5
f 429/3/5 427/3/5 426/3/5
f 430/3/5 428/3/5 424/3/5
f 431/3/5 428/3/5 430/3/5
f 432/3/5 428/3/5 431/3/5
f 433/3/5 427/3/5 429/3/5
f 434/3/5 427/3/5 433/3/5
f 435/3/5 427/3/5 434/3/5
f 440/3/5 437/3/5 436/3/5
f 441/3/5 437/3/5 440/3/5
f 442/4/5 439/4/5 438/4/5
f 443/4/5 439/4/5 442/4/5
f 448/2/5 445/2/5 444/2/5
f 449/2/5 445/2/5 448/2/5
f 450/2/5 447/2/5 446/2/5
f 451/2/5 447/2/5 450/2/5
f 456/2/5 453/2/5 452/2/5
f 457/2/5 453/2/5 456/2/5
f 458/2/5 455/2/5 454/2/5
f 459/2/5 455/2/5 458/2/5
f 460/3/6 461/3/6 464/3/6
f 464/3/6 461/3/6 465/3/6
f 462/3/6 463/3/6 466/3/6
f 466/3/6 463/3/6 467/3/6
f 468/2/6 469/2/6 472/2/6
f 472/2/6 469/2/6 473/2/6
f 470/2/6 471/2/6 474/2/6
f 474/2/6 471/2/6 475/2/6
f 476/2/6 477/2/6 480/2/6
f 480/2/6 477/2/6 481/2/6
f 481/2/6 477/2/6 482/2/6
f 478/2/6 479/2/6 483/2/6
f 483/2/6 479/2/6 484/2/6
f 485/2/6 486/2/6 489/2/6
f 489/2/6 486/2/6 490/2/6
f 490/2/6 486/2/6 491/2/6
f 487/2/6 488/2/6 492/2/6
f 492/2/6 488/2/6 493/2/6
f 494/3/6 495/3/6 496/3/6
f 496/3/6 495/3/6 497/3/6
f 496/2/6 497/2/6 498/2/6
f 498/2/6 497/2/6 499/2/6
f 498/3/6 499/3/6 500/3/6
f 500/3/6 499/3/6 501/3/6
f 502/3/6 503/3/6 504/3/6
f 504/3/6 503/3/6 505/3/6
f 506/3/6 507/3/6 508/3/6
f 508/3/6 507/3/6 509/3/6
f 510/3/6 511/3/6 514/3/6
f 511/5/6 512/5/6 515/5/6
f 514/3/6 511/3/6 515/3/6
f 512/6/6 513/6/6 516/6/6
f 515/5/6 512/5/6 516/5/6
f 516/6/6 513/6/6 517/6/6
f 517/6/6 513/6/6 518/6/6
f 518/6/6 513/6/6 519/6/6
f 518/5/6 519/5/6 520/5/6
f 520/5/6 519/5/6 521/5/6
f 510/3/6 514/3/6 523/3/6
f 521/3/6 522/3/6 524/3/6
f 520/3/6 521/3/6 524/3/6
f 510/3/6 523/3/6 525/3/6
f 523/3/6 524/3/6 525/3/6
f 524/3/6 522/3/6 526/3/6
f 525/3/6 524/3/6 526/3/6
f 527/3/6 528/3/6 529/3/6
f 529/3/6 528/3/6 530/3/6
