# MagicaVoxel @ Ephtracy

# group
o 

# material
mtllib Zeds-0-Zed_1-5.mtl
usemtl palette

# normals
vn -1 0 0
vn 1 0 0
vn 0 0 1
vn 0 0 -1
vn 0 -1 0
vn 0 1 0

# texcoords
vt 0.310547 0.5
vt 0.357422 0.5
vt 0.361328 0.5
vt 0.955078 0.5
vt 0.958984 0.5

# verts
v -1.7 2.5 0.3
v -1.7 2.5 -0.9
v -1.7 3.8 0.3
v -1.7 3.8 -0.9
v -1.6 1.9 0.9
v -1.6 1.9 -0.9
v -1.6 2.5 0.3
v -1.6 2.5 -0.9
v -1.6 3.6 0.9
v -1.6 3.6 0.3
v -1.5 1.5 0.9
v -1.5 1.5 -0.9
v -1.5 1.9 0.9
v -1.5 1.9 -0.9
v -1.3 0.3 0.5
v -1.3 0.3 -0.9
v -1.3 0.5 0.5
v -1.3 0.5 -0.9
v -1.3 3.8 0.3
v -1.3 3.8 -0.9
v -1.3 4 0.3
v -1.3 4 -0.9
v -1.2 0.3 0.7
v -1.2 0.3 0.5
v -1.2 0.5 0.5
v -1.2 0.5 -0.9
v -1.2 1.5 0.7
v -1.2 1.5 -0.9
v -1.2 1.9 1.1
v -1.2 1.9 0.9
v -1.2 2.5 -0.9
v -1.2 2.5 -1.2
v -1.2 3.6 1.1
v -1.2 3.6 0.9
v -1.2 3.9 -0.9
v -1.2 3.9 -1.2
v -1.1 3.6 1
v -1.1 3.6 0.3
v -1.1 3.8 1
v -1.1 3.8 0.3
v -0.8 1.5 -0.9
v -0.8 1.5 -1.1
v -0.8 2.5 -0.9
v -0.8 2.5 -1.1
v -0.8 4 0.3
v -0.8 4 -0.9
v -0.8 4.1 0.3
v -0.8 4.1 -0.9
v -0.5 3.8 0.7
v -0.5 3.8 0.3
v -0.5 4.1 0.3
v -0.5 4.1 -0.3
v -0.5 4.2 0.7
v -0.5 4.2 -0.3
v 0.6 3.8 0.7
v 0.6 3.8 0.3
v 0.6 4.1 0.3
v 0.6 4.1 -0.3
v 0.6 4.2 0.7
v 0.6 4.2 -0.3
v 0.9 1.5 -0.9
v 0.9 1.5 -1.1
v 0.9 2.5 -0.9
v 0.9 2.5 -1.1
v 0.9 4 0.3
v 0.9 4 -0.9
v 0.9 4.1 0.3
v 0.9 4.1 -0.9
v 1.2 3.6 1
v 1.2 3.6 0.3
v 1.2 3.8 1
v 1.2 3.8 0.3
v 1.3 0.3 0.7
v 1.3 0.3 0.5
v 1.3 0.5 0.5
v 1.3 0.5 -0.9
v 1.3 1.5 0.7
v 1.3 1.5 -0.9
v 1.3 1.9 1.1
v 1.3 1.9 0.9
v 1.3 2.5 -0.9
v 1.3 2.5 -1.2
v 1.3 3.6 1.1
v 1.3 3.6 0.9
v 1.3 3.9 -0.9
v 1.3 3.9 -1.2
v 1.4 0.3 0.5
v 1.4 0.3 -0.9
v 1.4 0.5 0.5
v 1.4 0.5 -0.9
v 1.4 3.8 0.3
v 1.4 3.8 -0.9
v 1.4 4 0.3
v 1.4 4 -0.9
v 1.6 1.5 0.9
v 1.6 1.5 -0.9
v 1.6 1.9 0.9
v 1.6 1.9 -0.9
v 1.7 1.9 0.9
v 1.7 1.9 -0.9
v 1.7 2.5 0.3
v 1.7 2.5 -0.6
v 1.7 3.6 0.9
v 1.7 3.6 0.3
v 1.7 3.8 -0.6
v 1.7 3.8 -0.9
v 1.8 2.5 0.3
v 1.8 2.5 -0.6
v 1.8 3.8 0.3
v 1.8 3.8 -0.6
v -1.2 1.9 1.1
v -1.2 3.6 1.1
v -0.8 2.5 1.1
v -0.8 2.6 1.1
v -0.8 3 1.1
v -0.7 2.5 1.1
v -0.7 2.6 1.1
v -0.7 2.7 1.1
v -0.7 3 1.1
v -0.6 2.6 1.1
v -0.6 2.7 1.1
v -0.4 2.2 1.1
v -0.4 2.3 1.1
v -0.4 2.4 1.1
v -0.3 2.3 1.1
v -0.3 2.4 1.1
v -0.2 2.2 1.1
v -0.2 2.4 1.1
v -0.2 3 1.1
v -0.2 3.1 1.1
v -0.2 3.4 1.1
v -0.2 3.5 1.1
v -0.1 3 1.1
v -0.1 3.1 1.1
v -0.1 3.4 1.1
v -0.1 3.5 1.1
v 0.3 2.8 1.1
v 0.3 2.9 1.1
v 0.3 3.1 1.1
v 0.3 3.5 1.1
v 0.4 2.8 1.1
v 0.4 2.9 1.1
v 0.5 3.1 1.1
v 0.5 3.5 1.1
v 0.8 2.3 1.1
v 0.8 2.6 1.1
v 0.9 2.3 1.1
v 0.9 2.4 1.1
v 1 2.4 1.1
v 1 2.5 1.1
v 1.1 2.3 1.1
v 1.1 2.5 1.1
v 1.1 2.6 1.1
v 1.3 1.9 1.1
v 1.3 3.6 1.1
v -1.1 3.6 1
v -1.1 3.8 1
v -0.2 3.7 1
v -0.2 3.8 1
v -0.1 3.7 1
v -0.1 3.8 1
v 0.2 3.6 1
v 0.2 3.8 1
v 0.3 3.6 1
v 0.3 3.8 1
v 1.2 3.6 1
v 1.2 3.8 1
v -1.6 1.9 0.9
v -1.6 3.6 0.9
v -1.5 1.5 0.9
v -1.5 1.9 0.9
v -1.2 1.9 0.9
v -1.2 3.6 0.9
v 1.3 1.9 0.9
v 1.3 3.6 0.9
v 1.6 1.5 0.9
v 1.6 1.9 0.9
v 1.7 1.9 0.9
v 1.7 3.6 0.9
v -1.2 0.3 0.7
v -1.2 1.5 0.7
v -0.5 3.8 0.7
v -0.5 4.2 0.7
v -0.4 4 0.7
v -0.4 4.2 0.7
v -0.3 4 0.7
v -0.3 4.2 0.7
v -0.2 3.8 0.7
v -0.2 4 0.7
v -0.1 3.8 0.7
v -0.1 4 0.7
v -0.1 4.2 0.7
v 0.2 3.9 0.7
v 0.2 4 0.7
v 0.2 4.2 0.7
v 0.4 3.9 0.7
v 0.4 4 0.7
v 0.4 4.2 0.7
v 0.5 4 0.7
v 0.5 4.2 0.7
v 0.6 3.8 0.7
v 0.6 4.2 0.7
v 1.3 0.3 0.7
v 1.3 1.5 0.7
v -1.3 0.3 0.5
v -1.3 0.5 0.5
v -1.2 0.3 0.5
v -1.2 0.5 0.5
v 1.3 0.3 0.5
v 1.3 0.5 0.5
v 1.4 0.3 0.5
v 1.4 0.5 0.5
v -1.7 2.5 0.3
v -1.7 3.8 0.3
v -1.6 2.5 0.3
v -1.6 3.6 0.3
v -1.3 3.8 0.3
v -1.3 4 0.3
v -1.1 3.6 0.3
v -1.1 3.8 0.3
v -0.8 4 0.3
v -0.8 4.1 0.3
v -0.5 3.8 0.3
v -0.5 4.1 0.3
v 0.6 3.8 0.3
v 0.6 4.1 0.3
v 0.9 4 0.3
v 0.9 4.1 0.3
v 1.2 3.6 0.3
v 1.2 3.8 0.3
v 1.4 3.8 0.3
v 1.4 4 0.3
v 1.7 2.5 0.3
v 1.7 3.6 0.3
v 1.8 2.5 0.3
v 1.8 3.8 0.3
v -0.5 4.1 -0.3
v -0.5 4.2 -0.3
v 0.6 4.1 -0.3
v 0.6 4.2 -0.3
v 1.7 2.5 -0.6
v 1.7 3.8 -0.6
v 1.8 2.5 -0.6
v 1.8 3.8 -0.6
v -1.7 2.5 -0.9
v -1.7 3.8 -0.9
v -1.6 1.9 -0.9
v -1.6 2.5 -0.9
v -1.5 1.5 -0.9
v -1.5 1.9 -0.9
v -1.3 0.3 -0.9
v -1.3 0.5 -0.9
v -1.3 3.8 -0.9
v -1.3 4 -0.9
v -1.2 0.5 -0.9
v -1.2 1.5 -0.9
v -1.2 2.5 -0.9
v -1.2 3.9 -0.9
v -0.8 1.5 -0.9
v -0.8 2.5 -0.9
v -0.8 4 -0.9
v -0.8 4.1 -0.9
v 0.9 1.5 -0.9
v 0.9 2.5 -0.9
v 0.9 4 -0.9
v 0.9 4.1 -0.9
v 1.3 0.5 -0.9
v 1.3 1.5 -0.9
v 1.3 2.5 -0.9
v 1.3 3.9 -0.9
v 1.4 0.3 -0.9
v 1.4 0.5 -0.9
v 1.4 3.8 -0.9
v 1.4 4 -0.9
v 1.6 1.5 -0.9
v 1.6 1.9 -0.9
v 1.7 1.9 -0.9
v 1.7 3.8 -0.9
v -0.8 1.5 -1.1
v -0.8 2.5 -1.1
v 0.9 1.5 -1.1
v 0.9 2.5 -1.1
v -1.2 2.5 -1.2
v -1.2 3.9 -1.2
v 1.3 2.5 -1.2
v 1.3 3.9 -1.2
v -1.2 0.3 0.7
v 1.3 0.3 0.7
v -1.3 0.3 0.5
v -1.2 0.3 0.5
v 1.3 0.3 0.5
v 1.4 0.3 0.5
v -1.3 0.3 -0.9
v 1.4 0.3 -0.9
v -1.5 1.5 0.9
v 1.6 1.5 0.9
v -1.2 1.5 0.7
v 1.3 1.5 0.7
v -1.5 1.5 -0.9
v -1.2 1.5 -0.9
v -0.8 1.5 -0.9
v 0.9 1.5 -0.9
v 1.3 1.5 -0.9
v 1.6 1.5 -0.9
v -0.8 1.5 -1.1
v 0.9 1.5 -1.1
v -1.2 1.9 1.1
v 1.3 1.9 1.1
v -1.6 1.9 0.9
v -1.5 1.9 0.9
v -1.2 1.9 0.9
v 1.3 1.9 0.9
v 1.6 1.9 0.9
v 1.7 1.9 0.9
v -1.6 1.9 -0.9
v -1.5 1.9 -0.9
v 1.6 1.9 -0.9
v 1.7 1.9 -0.9
v -1.7 2.5 0.3
v -1.6 2.5 0.3
v 1.7 2.5 0.3
v 1.8 2.5 0.3
v 1.7 2.5 -0.6
v 1.8 2.5 -0.6
v -1.7 2.5 -0.9
v -1.6 2.5 -0.9
v -1.2 2.5 -0.9
v -0.8 2.5 -0.9
v 0.9 2.5 -0.9
v 1.3 2.5 -0.9
v -0.8 2.5 -1.1
v 0.9 2.5 -1.1
v -1.2 2.5 -1.2
v 1.3 2.5 -1.2
v -1.3 0.5 0.5
v -1.2 0.5 0.5
v 1.3 0.5 0.5
v 1.4 0.5 0.5
v -1.3 0.5 -0.9
v -1.2 0.5 -0.9
v 1.3 0.5 -0.9
v 1.4 0.5 -0.9
v -1.2 3.6 1.1
v 1.3 3.6 1.1
v -1.1 3.6 1
v 0.2 3.6 1
v 0.3 3.6 1
v 1.2 3.6 1
v -1.6 3.6 0.9
v -1.2 3.6 0.9
v 1.3 3.6 0.9
v 1.7 3.6 0.9
v -1.6 3.6 0.3
v -1.1 3.6 0.3
v 1.2 3.6 0.3
v 1.7 3.6 0.3
v -1.1 3.8 1
v -0.2 3.8 1
v -0.1 3.8 1
v 0.2 3.8 1
v 0.3 3.8 1
v 1.2 3.8 1
v 0.2 3.8 0.9
v 0.3 3.8 0.9
v -0.5 3.8 0.7
v -0.2 3.8 0.7
v -0.1 3.8 0.7
v 0.6 3.8 0.7
v -1.7 3.8 0.3
v -1.3 3.8 0.3
v -1.1 3.8 0.3
v -0.5 3.8 0.3
v 0.6 3.8 0.3
v 1.2 3.8 0.3
v 1.4 3.8 0.3
v 1.8 3.8 0.3
v 1.7 3.8 -0.6
v 1.8 3.8 -0.6
v -1.7 3.8 -0.9
v -1.3 3.8 -0.9
v 1.4 3.8 -0.9
v 1.7 3.8 -0.9
v -1.2 3.9 -0.9
v 1.3 3.9 -0.9
v -1.2 3.9 -1.2
v 1.3 3.9 -1.2
v -1.3 4 0.3
v -0.8 4 0.3
v 0.9 4 0.3
v 1.4 4 0.3
v -1.3 4 -0.9
v -0.8 4 -0.9
v 0.9 4 -0.9
v 1.4 4 -0.9
v -0.8 4.1 0.3
v -0.5 4.1 0.3
v 0.6 4.1 0.3
v 0.9 4.1 0.3
v -0.5 4.1 -0.3
v 0.6 4.1 -0.3
v -0.8 4.1 -0.9
v 0.9 4.1 -0.9
v -0.5 4.2 0.7
v -0.4 4.2 0.7
v -0.3 4.2 0.7
v -0.1 4.2 0.7
v 0.2 4.2 0.7
v 0.4 4.2 0.7
v 0.5 4.2 0.7
v 0.6 4.2 0.7
v -0.4 4.2 0.6
v -0.3 4.2 0.6
v -0.1 4.2 0.6
v 0.2 4.2 0.6
v 0.4 4.2 0.6
v 0.5 4.2 0.6
v -0.4 4.2 -0.2
v 0.5 4.2 -0.2
v -0.5 4.2 -0.3
v 0.6 4.2 -0.3

# faces
f 3/1/1 2/1/1 1/1/1
f 4/1/1 2/1/1 3/1/1
f 7/1/1 6/1/1 5/1/1
f 8/1/1 6/1/1 7/1/1
f 9/1/1 7/1/1 5/1/1
f 10/1/1 7/1/1 9/1/1
f 13/1/1 12/1/1 11/1/1
f 14/1/1 12/1/1 13/1/1
f 17/1/1 16/1/1 15/1/1
f 18/1/1 16/1/1 17/1/1
f 21/1/1 20/1/1 19/1/1
f 22/1/1 20/1/1 21/1/1
f 25/1/1 24/1/1 23/1/1
f 27/1/1 25/1/1 23/1/1
f 27/1/1 26/1/1 25/1/1
f 28/1/1 26/1/1 27/1/1
f 33/1/1 30/1/1 29/1/1
f 34/1/1 30/1/1 33/1/1
f 35/1/1 32/1/1 31/1/1
f 36/1/1 32/1/1 35/1/1
f 39/1/1 38/1/1 37/1/1
f 40/1/1 38/1/1 39/1/1
f 43/1/1 42/1/1 41/1/1
f 44/1/1 42/1/1 43/1/1
f 47/1/1 46/1/1 45/1/1
f 48/1/1 46/1/1 47/1/1
f 51/1/1 50/1/1 49/1/1
f 53/1/1 51/1/1 49/1/1
f 53/1/1 52/1/1 51/1/1
f 54/1/1 52/1/1 53/1/1
f 55/1/2 56/1/2 57/1/2
f 55/1/2 57/1/2 59/1/2
f 57/1/2 58/1/2 59/1/2
f 59/1/2 58/1/2 60/1/2
f 61/1/2 62/1/2 63/1/2
f 63/1/2 62/1/2 64/1/2
f 65/1/2 66/1/2 67/1/2
f 67/1/2 66/1/2 68/1/2
f 69/1/2 70/1/2 71/1/2
f 71/1/2 70/1/2 72/1/2
f 73/1/2 74/1/2 75/1/2
f 73/1/2 75/1/2 77/1/2
f 75/1/2 76/1/2 77/1/2
f 77/1/2 76/1/2 78/1/2
f 79/1/2 80/1/2 83/1/2
f 83/1/2 80/1/2 84/1/2
f 81/1/2 82/1/2 85/1/2
f 85/1/2 82/1/2 86/1/2
f 87/1/2 88/1/2 89/1/2
f 89/1/2 88/1/2 90/1/2
f 91/1/2 92/1/2 93/1/2
f 93/1/2 92/1/2 94/1/2
f 95/1/2 96/1/2 97/1/2
f 97/1/2 96/1/2 98/1/2
f 99/1/2 100/1/2 101/1/2
f 101/1/2 100/1/2 102/1/2
f 99/1/2 101/1/2 103/1/2
f 103/1/2 101/1/2 104/1/2
f 102/1/2 100/1/2 105/1/2
f 105/1/2 100/1/2 106/1/2
f 107/1/2 108/1/2 109/1/2
f 109/1/2 108/1/2 110/1/2
f 113/1/3 112/1/3 111/1/3
f 114/1/3 112/1/3 113/1/3
f 115/1/3 112/1/3 114/1/3
f 116/1/3 113/1/3 111/1/3
f 116/5/3 114/5/3 113/5/3
f 117/4/3 115/4/3 114/4/3
f 117/5/3 114/5/3 116/5/3
f 118/4/3 115/4/3 117/4/3
f 119/1/3 112/1/3 115/1/3
f 119/4/3 115/4/3 118/4/3
f 120/5/3 118/5/3 117/5/3
f 120/1/3 117/1/3 116/1/3
f 121/1/3 119/1/3 118/1/3
f 121/5/3 118/5/3 120/5/3
f 122/1/3 116/1/3 111/1/3
f 122/1/3 120/1/3 116/1/3
f 122/1/3 121/1/3 120/1/3
f 123/1/3 121/1/3 122/1/3
f 124/1/3 121/1/3 123/1/3
f 125/4/3 123/4/3 122/4/3
f 125/5/3 124/5/3 123/5/3
f 126/1/3 121/1/3 124/1/3
f 126/5/3 124/5/3 125/5/3
f 127/1/3 122/1/3 111/1/3
f 127/4/3 125/4/3 122/4/3
f 127/4/3 126/4/3 125/4/3
f 128/1/3 121/1/3 126/1/3
f 128/4/3 126/4/3 127/4/3
f 129/1/3 112/1/3 119/1/3
f 129/1/3 121/1/3 128/1/3
f 129/1/3 119/1/3 121/1/3
f 130/1/3 112/1/3 129/1/3
f 131/1/3 112/1/3 130/1/3
f 132/1/3 112/1/3 131/1/3
f 133/1/3 128/1/3 127/1/3
f 133/1/3 129/1/3 128/1/3
f 133/5/3 130/5/3 129/5/3
f 134/1/3 131/1/3 130/1/3
f 134/5/3 130/5/3 133/5/3
f 135/4/3 132/4/3 131/4/3
f 135/1/3 131/1/3 134/1/3
f 136/1/3 112/1/3 132/1/3
f 136/4/3 132/4/3 135/4/3
f 137/1/3 135/1/3 134/1/3
f 137/1/3 134/1/3 133/1/3
f 137/1/3 136/1/3 135/1/3
f 137/1/3 133/1/3 127/1/3
f 138/1/3 136/1/3 137/1/3
f 139/1/3 136/1/3 138/1/3
f 140/1/3 112/1/3 136/1/3
f 140/1/3 136/1/3 139/1/3
f 141/1/3 137/1/3 127/1/3
f 141/4/3 138/4/3 137/4/3
f 142/1/3 139/1/3 138/1/3
f 142/4/3 138/4/3 141/4/3
f 143/4/3 140/4/3 139/4/3
f 143/1/3 139/1/3 142/1/3
f 143/1/3 142/1/3 141/1/3
f 144/1/3 112/1/3 140/1/3
f 144/4/3 140/4/3 143/4/3
f 145/1/3 141/1/3 127/1/3
f 145/1/3 143/1/3 141/1/3
f 145/1/3 144/1/3 143/1/3
f 146/1/3 144/1/3 145/1/3
f 147/1/3 145/1/3 127/1/3
f 147/4/3 146/4/3 145/4/3
f 148/4/3 146/4/3 147/4/3
f 149/5/3 148/5/3 147/5/3
f 149/4/3 146/4/3 148/4/3
f 150/4/3 146/4/3 149/4/3
f 151/1/3 147/1/3 127/1/3
f 151/5/3 149/5/3 147/5/3
f 151/5/3 150/5/3 149/5/3
f 152/4/3 146/4/3 150/4/3
f 152/5/3 150/5/3 151/5/3
f 153/1/3 144/1/3 146/1/3
f 153/4/3 146/4/3 152/4/3
f 154/1/3 127/1/3 111/1/3
f 154/1/3 152/1/3 151/1/3
f 154/1/3 153/1/3 152/1/3
f 154/1/3 151/1/3 127/1/3
f 155/1/3 112/1/3 144/1/3
f 155/1/3 153/1/3 154/1/3
f 155/1/3 144/1/3 153/1/3
f 158/1/3 157/1/3 156/1/3
f 159/1/3 157/1/3 158/1/3
f 160/1/3 158/1/3 156/1/3
f 160/4/3 159/4/3 158/4/3
f 161/4/3 159/4/3 160/4/3
f 162/1/3 160/1/3 156/1/3
f 162/1/3 161/1/3 160/1/3
f 163/1/3 161/1/3 162/1/3
f 164/4/3 163/4/3 162/4/3
f 165/4/3 163/4/3 164/4/3
f 166/1/3 165/1/3 164/1/3
f 167/1/3 165/1/3 166/1/3
f 171/1/3 169/1/3 168/1/3
f 172/1/3 169/1/3 171/1/3
f 172/1/3 171/1/3 170/1/3
f 173/1/3 169/1/3 172/1/3
f 174/1/3 172/1/3 170/1/3
f 176/1/3 174/1/3 170/1/3
f 176/1/3 175/1/3 174/1/3
f 177/1/3 175/1/3 176/1/3
f 178/1/3 175/1/3 177/1/3
f 179/1/3 175/1/3 178/1/3
f 184/1/3 183/1/3 182/1/3
f 185/1/3 183/1/3 184/1/3
f 186/1/3 184/1/3 182/1/3
f 186/2/3 185/2/3 184/2/3
f 187/2/3 185/2/3 186/2/3
f 188/1/3 186/1/3 182/1/3
f 189/4/3 187/4/3 186/4/3
f 189/1/3 186/1/3 188/1/3
f 190/4/3 189/4/3 188/4/3
f 191/4/3 187/4/3 189/4/3
f 191/4/3 189/4/3 190/4/3
f 192/4/3 187/4/3 191/4/3
f 193/1/3 191/1/3 190/1/3
f 194/2/3 192/2/3 191/2/3
f 194/1/3 191/1/3 193/1/3
f 195/2/3 192/2/3 194/2/3
f 196/1/3 193/1/3 190/1/3
f 196/4/3 194/4/3 193/4/3
f 196/4/3 195/4/3 194/4/3
f 197/4/3 195/4/3 196/4/3
f 198/4/3 195/4/3 197/4/3
f 199/1/3 197/1/3 196/1/3
f 199/2/3 198/2/3 197/2/3
f 200/2/3 198/2/3 199/2/3
f 201/1/3 196/1/3 190/1/3
f 201/1/3 199/1/3 196/1/3
f 201/1/3 200/1/3 199/1/3
f 202/1/3 200/1/3 201/1/3
f 203/1/3 181/1/3 180/1/3
f 204/1/3 181/1/3 203/1/3
f 207/1/3 206/1/3 205/1/3
f 208/1/3 206/1/3 207/1/3
f 211/1/3 210/1/3 209/1/3
f 212/1/3 210/1/3 211/1/3
f 215/1/3 214/1/3 213/1/3
f 216/1/3 214/1/3 215/1/3
f 217/1/3 214/1/3 216/1/3
f 219/1/3 217/1/3 216/1/3
f 219/1/3 218/1/3 217/1/3
f 220/1/3 218/1/3 219/1/3
f 221/1/3 218/1/3 220/1/3
f 223/1/3 221/1/3 220/1/3
f 223/1/3 222/1/3 221/1/3
f 224/1/3 222/1/3 223/1/3
f 227/1/3 226/1/3 225/1/3
f 228/1/3 226/1/3 227/1/3
f 230/1/3 227/1/3 225/1/3
f 231/1/3 227/1/3 230/1/3
f 231/1/3 230/1/3 229/1/3
f 232/1/3 227/1/3 231/1/3
f 234/1/3 231/1/3 229/1/3
f 235/1/3 234/1/3 233/1/3
f 236/1/3 231/1/3 234/1/3
f 236/1/3 234/1/3 235/1/3
f 237/1/4 238/1/4 239/1/4
f 239/1/4 238/1/4 240/1/4
f 241/1/4 242/1/4 243/1/4
f 243/1/4 242/1/4 244/1/4
f 245/1/4 246/1/4 248/1/4
f 247/1/4 248/1/4 250/1/4
f 248/1/4 246/1/4 253/1/4
f 250/1/4 248/1/4 253/1/4
f 249/1/4 250/1/4 253/1/4
f 251/1/4 252/1/4 255/1/4
f 253/1/4 254/1/4 256/1/4
f 249/1/4 253/1/4 256/1/4
f 256/1/4 254/1/4 257/1/4
f 257/1/4 254/1/4 258/1/4
f 255/1/4 256/1/4 259/1/4
f 256/1/4 257/1/4 259/1/4
f 259/1/4 257/1/4 260/1/4
f 258/1/4 254/1/4 261/1/4
f 255/1/4 259/1/4 263/1/4
f 261/1/4 262/1/4 265/1/4
f 258/1/4 261/1/4 265/1/4
f 265/1/4 262/1/4 266/1/4
f 251/1/4 255/1/4 267/1/4
f 263/1/4 264/1/4 267/1/4
f 255/1/4 263/1/4 267/1/4
f 267/1/4 264/1/4 268/1/4
f 268/1/4 264/1/4 269/1/4
f 258/1/4 265/1/4 270/1/4
f 251/1/4 267/1/4 271/1/4
f 271/1/4 267/1/4 272/1/4
f 268/1/4 269/1/4 273/1/4
f 269/1/4 270/1/4 273/1/4
f 270/1/4 265/1/4 274/1/4
f 273/1/4 270/1/4 274/1/4
f 268/1/4 273/1/4 275/1/4
f 275/1/4 273/1/4 276/1/4
f 276/1/4 273/1/4 277/1/4
f 277/1/4 273/1/4 278/1/4
f 279/1/4 280/1/4 281/1/4
f 281/1/4 280/1/4 282/1/4
f 283/1/4 284/1/4 285/1/4
f 285/1/4 284/1/4 286/1/4
f 290/1/5 288/1/5 287/1/5
f 291/1/5 288/1/5 290/1/5
f 293/1/5 290/1/5 289/1/5
f 293/1/5 292/1/5 291/1/5
f 293/1/5 291/1/5 290/1/5
f 294/1/5 292/1/5 293/1/5
f 297/1/5 296/1/5 295/1/5
f 298/1/5 296/1/5 297/1/5
f 299/1/5 297/1/5 295/1/5
f 300/1/5 297/1/5 299/1/5
f 303/1/5 296/1/5 298/1/5
f 304/1/5 296/1/5 303/1/5
f 305/1/5 302/1/5 301/1/5
f 306/1/5 302/1/5 305/1/5
f 311/1/5 308/1/5 307/1/5
f 312/1/5 308/1/5 311/1/5
f 315/1/5 310/1/5 309/1/5
f 316/1/5 310/1/5 315/1/5
f 317/1/5 314/1/5 313/1/5
f 318/1/5 314/1/5 317/1/5
f 323/1/5 322/1/5 321/1/5
f 324/1/5 322/1/5 323/1/5
f 325/1/5 320/1/5 319/1/5
f 326/1/5 320/1/5 325/1/5
f 331/1/5 328/1/5 327/1/5
f 332/1/5 330/1/5 329/1/5
f 333/1/5 331/1/5 327/1/5
f 333/1/5 332/1/5 331/1/5
f 334/1/5 330/1/5 332/1/5
f 334/1/5 332/1/5 333/1/5
f 335/1/6 336/1/6 339/1/6
f 339/1/6 336/1/6 340/1/6
f 337/1/6 338/1/6 341/1/6
f 341/1/6 338/1/6 342/1/6
f 343/1/6 344/1/6 345/1/6
f 345/1/6 344/1/6 346/1/6
f 346/1/6 344/1/6 347/1/6
f 347/1/6 344/1/6 348/1/6
f 343/1/6 345/1/6 350/1/6
f 348/1/6 344/1/6 351/1/6
f 349/1/6 350/1/6 353/1/6
f 350/1/6 345/1/6 354/1/6
f 353/1/6 350/1/6 354/1/6
f 351/1/6 352/1/6 355/1/6
f 348/1/6 351/1/6 355/1/6
f 355/1/6 352/1/6 356/1/6
f 359/1/6 360/1/6 363/1/6
f 360/4/6 361/4/6 363/4/6
f 361/1/6 362/1/6 364/1/6
f 363/4/6 361/4/6 364/4/6
f 357/1/6 358/1/6 365/1/6
f 358/4/6 359/4/6 366/4/6
f 365/1/6 358/1/6 366/1/6
f 359/1/6 363/1/6 367/1/6
f 366/4/6 359/4/6 367/4/6
f 363/1/6 364/1/6 367/1/6
f 364/1/6 362/1/6 368/1/6
f 367/1/6 364/1/6 368/1/6
f 357/1/6 365/1/6 371/1/6
f 371/1/6 365/1/6 372/1/6
f 368/1/6 362/1/6 373/1/6
f 373/1/6 362/1/6 374/1/6
f 375/1/6 376/1/6 377/1/6
f 377/1/6 376/1/6 378/1/6
f 369/1/6 370/1/6 379/1/6
f 379/1/6 370/1/6 380/1/6
f 375/1/6 377/1/6 381/1/6
f 381/1/6 377/1/6 382/1/6
f 383/1/6 384/1/6 385/1/6
f 385/1/6 384/1/6 386/1/6
f 387/1/6 388/1/6 391/1/6
f 391/1/6 388/1/6 392/1/6
f 389/1/6 390/1/6 393/1/6
f 393/1/6 390/1/6 394/1/6
f 395/1/6 396/1/6 399/1/6
f 397/1/6 398/1/6 400/1/6
f 395/1/6 399/1/6 401/1/6
f 399/1/6 400/1/6 401/1/6
f 400/1/6 398/1/6 402/1/6
f 401/1/6 400/1/6 402/1/6
f 403/1/6 404/1/6 411/1/6
f 404/2/6 405/2/6 411/2/6
f 405/4/6 406/4/6 412/4/6
f 411/2/6 405/2/6 412/2/6
f 406/2/6 407/2/6 413/2/6
f 412/4/6 406/4/6 413/4/6
f 407/4/6 408/4/6 414/4/6
f 413/2/6 407/2/6 414/2/6
f 408/2/6 409/2/6 415/2/6
f 414/4/6 408/4/6 415/4/6
f 409/1/6 410/1/6 416/1/6
f 415/2/6 409/2/6 416/2/6
f 414/3/6 415/3/6 417/3/6
f 413/3/6 414/3/6 417/3/6
f 415/3/6 416/3/6 417/3/6
f 412/3/6 413/3/6 417/3/6
f 411/3/6 412/3/6 417/3/6
f 403/1/6 411/1/6 417/1/6
f 416/1/6 410/1/6 418/1/6
f 417/3/6 416/3/6 418/3/6
f 403/1/6 417/1/6 419/1/6
f 417/1/6 418/1/6 419/1/6
f 418/1/6 410/1/6 420/1/6
f 419/1/6 418/1/6 420/1/6
