# MagicaVoxel @ Ephtracy

# group
o 

# material
mtllib Zeds-0-Zed_1-4.mtl
usemtl palette

# normals
vn -1 0 0
vn 1 0 0
vn 0 0 1
vn 0 0 -1
vn 0 -1 0
vn 0 1 0

# texcoords
vt 0.244141 0.5
vt 0.310547 0.5
vt 0.357422 0.5

# verts
v -0.6 3.4 0.2
v -0.6 3.4 -1.2
v -0.6 4.3 0.2
v -0.6 4.3 -1.2
v -0.2 0.2 1
v -0.2 0.2 0.9
v -0.2 0.2 0.6
v -0.2 0.3 1
v -0.2 0.3 0.9
v -0.2 0.4 0.9
v -0.2 0.4 0.6
v -0.2 2.8 0.2
v -0.2 2.8 -0.5
v -0.2 3 -0.5
v -0.2 3 -0.9
v -0.2 3.4 0.2
v -0.2 3.4 -0.9
v -0.1 1 0.1
v -0.1 1 -0.5
v -0.1 2 -0.4
v -0.1 2 -0.5
v -0.1 2.1 0.4
v -0.1 2.1 0.1
v -0.1 2.2 -0.2
v -0.1 2.2 -0.4
v -0.1 2.6 -0.2
v -0.1 2.6 -0.4
v -0.1 2.7 0.4
v -0.1 2.7 0.3
v -0.1 2.8 0.2
v -0.1 2.8 -0.4
v -0.1 2.9 0.3
v -0.1 2.9 0.2
v -5.96046e-08 0.2 0.6
v -5.96046e-08 0.2 -0.5
v -5.96046e-08 0.4 0.8
v -5.96046e-08 0.4 0.6
v -5.96046e-08 0.5 0.8
v -5.96046e-08 0.5 0.1
v -5.96046e-08 1 0.1
v -5.96046e-08 1 -0.5
v 0.1 0.2 1.2
v 0.1 0.2 1.1
v 0.1 0.2 0.8
v 0.1 0.3 1.2
v 0.1 0.3 1.1
v 0.1 0.4 1.1
v 0.1 0.4 0.9
v 0.1 0.5 0.9
v 0.1 0.5 0.8
v 0.5 0.2 1.2
v 0.5 0.2 1.1
v 0.5 0.2 0.9
v 0.5 0.3 1.2
v 0.5 0.3 1.1
v 0.5 0.4 1.1
v 0.5 0.4 0.9
v -5.96046e-08 0.2 1
v -5.96046e-08 0.2 0.9
v -5.96046e-08 0.2 0.8
v -5.96046e-08 0.3 1
v -5.96046e-08 0.3 0.9
v -5.96046e-08 0.4 0.9
v -5.96046e-08 0.4 0.8
v 0.1 3.4 -0.9
v 0.1 3.4 -1.2
v 0.1 4.1 -0.9
v 0.1 4.1 -1.2
v 0.3 0.2 1.2
v 0.3 0.2 1.1
v 0.3 0.2 0.9
v 0.3 0.3 1.2
v 0.3 0.3 1.1
v 0.3 0.4 1.1
v 0.3 0.4 0.9
v 0.5 0.4 0.9
v 0.5 0.4 0.8
v 0.5 0.5 0.9
v 0.5 0.5 0.8
v 0.6 0.2 0.7
v 0.6 0.2 0.1
v 0.6 0.4 0.8
v 0.6 0.4 0.7
v 0.6 0.5 0.8
v 0.6 0.5 0.1
v 0.7 0.2 1.2
v 0.7 0.2 1.1
v 0.7 0.2 0.7
v 0.7 0.2 0.1
v 0.7 0.2 -0.5
v 0.7 0.3 1.2
v 0.7 0.3 1.1
v 0.7 0.4 1.1
v 0.7 0.4 0.7
v 0.7 1 0.1
v 0.7 1 -0.5
v 0.7 2 -0.4
v 0.7 2 -0.5
v 0.7 2.1 0.4
v 0.7 2.1 0.1
v 0.7 2.2 -0.2
v 0.7 2.2 -0.4
v 0.7 2.6 -0.2
v 0.7 2.6 -0.4
v 0.7 2.7 0.4
v 0.7 2.7 0.3
v 0.7 2.8 -0.4
v 0.7 2.8 -0.5
v 0.7 2.9 0.3
v 0.7 2.9 0.2
v 0.7 3 -0.5
v 0.7 3 -0.9
v 0.7 4.1 -0.9
v 0.7 4.1 -1.2
v 0.7 4.3 0.2
v 0.7 4.3 -1.2
v 0.1 0.2 1.2
v 0.1 0.3 1.2
v 0.3 0.2 1.2
v 0.3 0.3 1.2
v 0.5 0.2 1.2
v 0.5 0.3 1.2
v 0.7 0.2 1.2
v 0.7 0.3 1.2
v 0.1 0.3 1.1
v 0.1 0.4 1.1
v 0.3 0.3 1.1
v 0.3 0.4 1.1
v 0.5 0.3 1.1
v 0.5 0.4 1.1
v 0.7 0.3 1.1
v 0.7 0.4 1.1
v -0.2 0.2 1
v -0.2 0.3 1
v -5.96046e-08 0.2 1
v -5.96046e-08 0.3 1
v -0.2 0.3 0.9
v -0.2 0.4 0.9
v -5.96046e-08 0.3 0.9
v -5.96046e-08 0.4 0.9
v 0.1 0.4 0.9
v 0.1 0.5 0.9
v 0.3 0.2 0.9
v 0.3 0.4 0.9
v 0.5 0.2 0.9
v 0.5 0.4 0.9
v 0.5 0.5 0.9
v -5.96046e-08 0.2 0.8
v -5.96046e-08 0.4 0.8
v -5.96046e-08 0.5 0.8
v 0.1 0.2 0.8
v 0.1 0.5 0.8
v 0.5 0.4 0.8
v 0.5 0.5 0.8
v 0.6 0.4 0.8
v 0.6 0.5 0.8
v -0.1 2.1 0.4
v -0.1 2.7 0.4
v 0.7 2.1 0.4
v 0.7 2.7 0.4
v -0.1 2.7 0.3
v -0.1 2.9 0.3
v 0.7 2.7 0.3
v 0.7 2.9 0.3
v -0.6 3.4 0.2
v -0.6 4.3 0.2
v -0.2 2.8 0.2
v -0.2 3.4 0.2
v -0.1 2.8 0.2
v -0.1 2.9 0.2
v 0.7 2.9 0.2
v 0.7 4.3 0.2
v -0.1 1 0.1
v -0.1 2.1 0.1
v -5.96046e-08 0.5 0.1
v -5.96046e-08 1 0.1
v 0.6 0.2 0.1
v 0.6 0.5 0.1
v 0.7 0.2 0.1
v 0.7 1 0.1
v 0.7 2.1 0.1
v 0.6 0.2 0.7
v 0.6 0.4 0.7
v 0.7 0.2 0.7
v 0.7 0.4 0.7
v -0.2 0.2 0.6
v -0.2 0.4 0.6
v -5.96046e-08 0.2 0.6
v -5.96046e-08 0.4 0.6
v -0.1 2.2 -0.2
v -0.1 2.6 -0.2
v 0.7 2.2 -0.2
v 0.7 2.6 -0.2
v -0.1 2 -0.4
v -0.1 2.2 -0.4
v -0.1 2.6 -0.4
v -0.1 2.8 -0.4
v 0.7 2 -0.4
v 0.7 2.2 -0.4
v 0.7 2.6 -0.4
v 0.7 2.8 -0.4
v -0.2 2.8 -0.5
v -0.2 3 -0.5
v -0.1 1 -0.5
v -0.1 2 -0.5
v -5.96046e-08 0.2 -0.5
v -5.96046e-08 1 -0.5
v 0.7 0.2 -0.5
v 0.7 1 -0.5
v 0.7 2 -0.5
v 0.7 2.8 -0.5
v 0.7 3 -0.5
v -0.2 3 -0.9
v -0.2 3.4 -0.9
v 0.1 3.4 -0.9
v 0.1 4.1 -0.9
v 0.7 3 -0.9
v 0.7 4.1 -0.9
v -0.6 3.4 -1.2
v -0.6 4.3 -1.2
v 0.1 3.4 -1.2
v 0.1 4.1 -1.2
v 0.7 4.1 -1.2
v 0.7 4.3 -1.2
v 0.1 0.2 1.2
v 0.3 0.2 1.2
v 0.5 0.2 1.2
v 0.7 0.2 1.2
v 0.1 0.2 1.1
v 0.3 0.2 1.1
v 0.5 0.2 1.1
v 0.7 0.2 1.1
v -0.2 0.2 1
v -5.96046e-08 0.2 1
v -0.2 0.2 0.9
v -5.96046e-08 0.2 0.9
v 0.3 0.2 0.9
v 0.5 0.2 0.9
v -5.96046e-08 0.2 0.8
v 0.1 0.2 0.8
v 0.6 0.2 0.7
v 0.7 0.2 0.7
v -0.2 0.2 0.6
v -5.96046e-08 0.2 0.6
v 0.6 0.2 0.1
v 0.7 0.2 0.1
v -5.96046e-08 0.2 -0.5
v 0.7 0.2 -0.5
v -0.1 1 0.1
v -5.96046e-08 1 0.1
v -0.1 1 -0.5
v -5.96046e-08 1 -0.5
v -0.1 2.1 0.4
v 0.7 2.1 0.4
v -0.1 2.1 0.1
v 0.7 2.1 0.1
v -0.1 2.6 -0.2
v 0.7 2.6 -0.2
v -0.1 2.6 -0.4
v 0.7 2.6 -0.4
v -0.2 2.8 0.2
v -0.1 2.8 0.2
v -0.1 2.8 -0.4
v 0.7 2.8 -0.4
v -0.2 2.8 -0.5
v 0.7 2.8 -0.5
v -0.2 3 -0.5
v 0.7 3 -0.5
v -0.2 3 -0.9
v 0.7 3 -0.9
v -0.6 3.4 0.2
v -0.2 3.4 0.2
v -0.2 3.4 -0.9
v 0.1 3.4 -0.9
v -0.6 3.4 -1.2
v 0.1 3.4 -1.2
v 0.1 4.1 -0.9
v 0.7 4.1 -0.9
v 0.1 4.1 -1.2
v 0.7 4.1 -1.2
v 0.1 0.3 1.2
v 0.3 0.3 1.2
v 0.5 0.3 1.2
v 0.7 0.3 1.2
v 0.1 0.3 1.1
v 0.3 0.3 1.1
v 0.5 0.3 1.1
v 0.7 0.3 1.1
v -0.2 0.3 1
v -5.96046e-08 0.3 1
v -0.2 0.3 0.9
v -5.96046e-08 0.3 0.9
v 0.1 0.4 1.1
v 0.3 0.4 1.1
v 0.5 0.4 1.1
v 0.7 0.4 1.1
v -0.2 0.4 0.9
v -5.96046e-08 0.4 0.9
v 0.1 0.4 0.9
v 0.3 0.4 0.9
v 0.5 0.4 0.9
v -5.96046e-08 0.4 0.8
v 0.5 0.4 0.8
v 0.6 0.4 0.8
v 0.6 0.4 0.7
v 0.7 0.4 0.7
v -0.2 0.4 0.6
v -5.96046e-08 0.4 0.6
v 0.1 0.5 0.9
v 0.5 0.5 0.9
v -5.96046e-08 0.5 0.8
v 0.1 0.5 0.8
v 0.5 0.5 0.8
v 0.6 0.5 0.8
v -5.96046e-08 0.5 0.1
v 0.6 0.5 0.1
v -0.1 2 -0.4
v 0.7 2 -0.4
v -0.1 2 -0.5
v 0.7 2 -0.5
v -0.1 2.2 -0.2
v 0.7 2.2 -0.2
v -0.1 2.2 -0.4
v 0.7 2.2 -0.4
v -0.1 2.7 0.4
v 0.7 2.7 0.4
v -0.1 2.7 0.3
v 0.7 2.7 0.3
v -0.1 2.9 0.3
v 0.7 2.9 0.3
v -0.1 2.9 0.2
v 0.7 2.9 0.2
v -0.6 4.3 0.2
v 0.7 4.3 0.2
v -0.6 4.3 -1.2
v 0.7 4.3 -1.2

# faces
f 3/2/1 2/2/1 1/2/1
f 4/2/1 2/2/1 3/2/1
f 8/1/1 6/1/1 5/1/1
f 9/3/1 7/3/1 6/3/1
f 9/1/1 6/1/1 8/1/1
f 10/3/1 7/3/1 9/3/1
f 11/3/1 7/3/1 10/3/1
f 14/2/1 13/2/1 12/2/1
f 16/2/1 14/2/1 12/2/1
f 16/2/1 15/2/1 14/2/1
f 17/2/1 15/2/1 16/2/1
f 20/2/1 19/2/1 18/2/1
f 21/2/1 19/2/1 20/2/1
f 23/2/1 20/2/1 18/2/1
f 24/2/1 20/2/1 23/2/1
f 24/2/1 23/2/1 22/2/1
f 25/2/1 20/2/1 24/2/1
f 26/2/1 24/2/1 22/2/1
f 28/2/1 26/2/1 22/2/1
f 28/2/1 27/2/1 26/2/1
f 29/2/1 27/2/1 28/2/1
f 30/2/1 27/2/1 29/2/1
f 31/2/1 27/2/1 30/2/1
f 32/2/1 30/2/1 29/2/1
f 33/2/1 30/2/1 32/2/1
f 37/3/1 35/3/1 34/3/1
f 38/3/1 37/3/1 36/3/1
f 39/3/1 35/3/1 37/3/1
f 39/3/1 37/3/1 38/3/1
f 40/3/1 35/3/1 39/3/1
f 41/3/1 35/3/1 40/3/1
f 45/1/1 43/1/1 42/1/1
f 46/3/1 44/3/1 43/3/1
f 46/1/1 43/1/1 45/1/1
f 47/3/1 44/3/1 46/3/1
f 48/3/1 44/3/1 47/3/1
f 49/3/1 44/3/1 48/3/1
f 50/3/1 44/3/1 49/3/1
f 54/1/1 52/1/1 51/1/1
f 55/3/1 53/3/1 52/3/1
f 55/1/1 52/1/1 54/1/1
f 56/3/1 53/3/1 55/3/1
f 57/3/1 53/3/1 56/3/1
f 58/1/2 59/1/2 61/1/2
f 59/3/2 60/3/2 62/3/2
f 61/1/2 59/1/2 62/1/2
f 62/3/2 60/3/2 63/3/2
f 63/3/2 60/3/2 64/3/2
f 65/2/2 66/2/2 67/2/2
f 67/2/2 66/2/2 68/2/2
f 69/1/2 70/1/2 72/1/2
f 70/3/2 71/3/2 73/3/2
f 72/1/2 70/1/2 73/1/2
f 73/3/2 71/3/2 74/3/2
f 74/3/2 71/3/2 75/3/2
f 76/3/2 77/3/2 78/3/2
f 78/3/2 77/3/2 79/3/2
f 80/3/2 81/3/2 83/3/2
f 82/3/2 83/3/2 84/3/2
f 83/3/2 81/3/2 85/3/2
f 84/3/2 83/3/2 85/3/2
f 86/1/2 87/1/2 91/1/2
f 87/3/2 88/3/2 92/3/2
f 91/1/2 87/1/2 92/1/2
f 92/3/2 88/3/2 93/3/2
f 93/3/2 88/3/2 94/3/2
f 89/3/2 90/3/2 95/3/2
f 95/3/2 90/3/2 96/3/2
f 95/2/2 96/2/2 97/2/2
f 97/2/2 96/2/2 98/2/2
f 95/2/2 97/2/2 100/2/2
f 100/2/2 97/2/2 101/2/2
f 99/2/2 100/2/2 101/2/2
f 101/2/2 97/2/2 102/2/2
f 99/2/2 101/2/2 103/2/2
f 99/2/2 103/2/2 105/2/2
f 103/2/2 104/2/2 105/2/2
f 105/2/2 104/2/2 106/2/2
f 106/2/2 104/2/2 107/2/2
f 106/2/2 107/2/2 109/2/2
f 107/2/2 108/2/2 109/2/2
f 109/2/2 108/2/2 110/2/2
f 110/2/2 108/2/2 111/2/2
f 111/2/2 112/2/2 113/2/2
f 110/2/2 111/2/2 115/2/2
f 113/2/2 114/2/2 115/2/2
f 111/2/2 113/2/2 115/2/2
f 115/2/2 114/2/2 116/2/2
f 119/1/3 118/1/3 117/1/3
f 120/1/3 118/1/3 119/1/3
f 123/1/3 122/1/3 121/1/3
f 124/1/3 122/1/3 123/1/3
f 127/3/3 126/3/3 125/3/3
f 128/3/3 126/3/3 127/3/3
f 131/3/3 130/3/3 129/3/3
f 132/3/3 130/3/3 131/3/3
f 135/1/3 134/1/3 133/1/3
f 136/1/3 134/1/3 135/1/3
f 139/3/3 138/3/3 137/3/3
f 140/3/3 138/3/3 139/3/3
f 144/3/3 142/3/3 141/3/3
f 145/3/3 144/3/3 143/3/3
f 146/3/3 142/3/3 144/3/3
f 146/3/3 144/3/3 145/3/3
f 147/3/3 142/3/3 146/3/3
f 151/3/3 149/3/3 148/3/3
f 151/3/3 150/3/3 149/3/3
f 152/3/3 150/3/3 151/3/3
f 155/3/3 154/3/3 153/3/3
f 156/3/3 154/3/3 155/3/3
f 159/2/3 158/2/3 157/2/3
f 160/2/3 158/2/3 159/2/3
f 163/2/3 162/2/3 161/2/3
f 164/2/3 162/2/3 163/2/3
f 168/2/3 166/2/3 165/2/3
f 169/2/3 168/2/3 167/2/3
f 170/2/3 168/2/3 169/2/3
f 171/2/3 168/2/3 170/2/3
f 172/2/3 166/2/3 168/2/3
f 172/2/3 168/2/3 171/2/3
f 176/2/3 174/2/3 173/2/3
f 178/3/3 176/3/3 175/3/3
f 179/3/3 178/3/3 177/3/3
f 180/2/3 174/2/3 176/2/3
f 180/3/3 178/3/3 179/3/3
f 180/3/3 176/3/3 178/3/3
f 181/2/3 174/2/3 180/2/3
f 182/3/4 183/3/4 184/3/4
f 184/3/4 183/3/4 185/3/4
f 186/3/4 187/3/4 188/3/4
f 188/3/4 187/3/4 189/3/4
f 190/2/4 191/2/4 192/2/4
f 192/2/4 191/2/4 193/2/4
f 194/2/4 195/2/4 198/2/4
f 198/2/4 195/2/4 199/2/4
f 196/2/4 197/2/4 200/2/4
f 200/2/4 197/2/4 201/2/4
f 204/2/4 205/2/4 207/2/4
f 206/3/4 207/3/4 208/3/4
f 207/2/4 205/2/4 209/2/4
f 208/3/4 207/3/4 209/3/4
f 209/2/4 205/2/4 210/2/4
f 202/2/4 203/2/4 211/2/4
f 211/2/4 203/2/4 212/2/4
f 213/2/4 214/2/4 215/2/4
f 213/2/4 215/2/4 217/2/4
f 215/2/4 216/2/4 217/2/4
f 217/2/4 216/2/4 218/2/4
f 219/2/4 220/2/4 221/2/4
f 221/2/4 220/2/4 222/2/4
f 222/2/4 220/2/4 223/2/4
f 223/2/4 220/2/4 224/2/4
f 229/1/5 226/1/5 225/1/5
f 230/1/5 226/1/5 229/1/5
f 231/1/5 228/1/5 227/1/5
f 232/1/5 228/1/5 231/1/5
f 235/1/5 234/1/5 233/1/5
f 236/1/5 234/1/5 235/1/5
f 237/3/5 230/3/5 229/3/5
f 238/3/5 232/3/5 231/3/5
f 239/3/5 236/3/5 235/3/5
f 240/3/5 238/3/5 237/3/5
f 240/3/5 237/3/5 229/3/5
f 241/3/5 232/3/5 238/3/5
f 241/3/5 240/3/5 239/3/5
f 241/3/5 238/3/5 240/3/5
f 242/3/5 232/3/5 241/3/5
f 243/3/5 239/3/5 235/3/5
f 243/3/5 241/3/5 239/3/5
f 244/3/5 241/3/5 243/3/5
f 245/3/5 241/3/5 244/3/5
f 247/3/5 245/3/5 244/3/5
f 247/3/5 246/3/5 245/3/5
f 248/3/5 246/3/5 247/3/5
f 251/2/5 250/2/5 249/2/5
f 252/2/5 250/2/5 251/2/5
f 255/2/5 254/2/5 253/2/5
f 256/2/5 254/2/5 255/2/5
f 259/2/5 258/2/5 257/2/5
f 260/2/5 258/2/5 259/2/5
f 263/2/5 262/2/5 261/2/5
f 265/2/5 263/2/5 261/2/5
f 265/2/5 264/2/5 263/2/5
f 266/2/5 264/2/5 265/2/5
f 269/2/5 268/2/5 267/2/5
f 270/2/5 268/2/5 269/2/5
f 273/2/5 272/2/5 271/2/5
f 275/2/5 273/2/5 271/2/5
f 275/2/5 274/2/5 273/2/5
f 276/2/5 274/2/5 275/2/5
f 279/2/5 278/2/5 277/2/5
f 280/2/5 278/2/5 279/2/5
f 281/1/6 282/1/6 285/1/6
f 285/1/6 282/1/6 286/1/6
f 283/1/6 284/1/6 287/1/6
f 287/1/6 284/1/6 288/1/6
f 289/1/6 290/1/6 291/1/6
f 291/1/6 290/1/6 292/1/6
f 293/3/6 294/3/6 299/3/6
f 299/3/6 294/3/6 300/3/6
f 295/3/6 296/3/6 301/3/6
f 297/3/6 298/3/6 302/3/6
f 301/3/6 296/3/6 303/3/6
f 303/3/6 296/3/6 304/3/6
f 304/3/6 296/3/6 305/3/6
f 305/3/6 296/3/6 306/3/6
f 297/3/6 302/3/6 307/3/6
f 307/3/6 302/3/6 308/3/6
f 309/3/6 310/3/6 312/3/6
f 312/3/6 310/3/6 313/3/6
f 311/3/6 312/3/6 315/3/6
f 313/3/6 314/3/6 315/3/6
f 312/3/6 313/3/6 315/3/6
f 315/3/6 314/3/6 316/3/6
f 317/2/6 318/2/6 319/2/6
f 319/2/6 318/2/6 320/2/6
f 321/2/6 322/2/6 323/2/6
f 323/2/6 322/2/6 324/2/6
f 325/2/6 326/2/6 327/2/6
f 327/2/6 326/2/6 328/2/6
f 329/2/6 330/2/6 331/2/6
f 331/2/6 330/2/6 332/2/6
f 333/2/6 334/2/6 335/2/6
f 335/2/6 334/2/6 336/2/6
